<?xml version="1.0" encoding="UTF-8"?>
<svg id="Calque_2" data-name="Calque 2" xmlns="http://www.w3.org/2000/svg" viewBox="0 0 793.05 103.35">
  <defs>
    <style>
      .cls-1 {
        fill: #fff3d8;
      }
    </style>
  </defs>
  <g id="FORMES">
    <g>
      <g>
        <path class="cls-1" d="M42.55,90.96C14.69,90.32-.54,69.81.01,45.88.61,19.99,19.67-.64,48.05.02c27.73.64,42.7,21.01,42.14,45.07-.58,25.11-18.61,46.54-47.64,45.87ZM44.14,16.15c-11.38-.26-20.08,8.43-20.49,26.22-.44,19.09,6.99,31.7,22.55,32.05,11.64.27,20.23-9.22,20.63-26.22.4-17.26-6.6-31.69-22.68-32.06Z"/>
        <path class="cls-1" d="M151.45,4.36l33.22.77c-.4.12-5.27,1.45-14.64,16.15l-21.71,33.65-.47,20.53c-.32,13.99,5.52,15.96,6.69,16.12l-37.53-.87c1.05-.11,7.36-1.4,7.69-15.79l.46-19.75-19.46-35.52c-7.91-14.45-13.49-16.41-14.4-16.69l41.2.95c-.79.11-4.6.68-4.7,5.39-.05,2.22.66,5.38,3.17,9.89l9.93,17.76,9.1-14.44c3.81-6.19,5.47-10.08,5.53-12.7.1-4.45-3.15-5.31-4.06-5.46Z"/>
        <path class="cls-1" d="M249.49,93.77l-63.82-1.47c1.05-.11,7.89-1.65,8.25-17.08l1.25-54.14c.32-13.86-7.88-15.75-9.05-15.91l64.34,1.49-.62,26.94c-1.82-6.19-5.21-12.55-16.58-12.81l-15.17-.35-.5,21.45,13.73.32c9.02.21,10.55-3.42,10.83-4.2l-.54,23.54s-.55-4.46-10.36-4.69l-13.99-.32-.5,21.58,16.74.39c10.85.25,15.78-3.3,21.35-12.46l-5.35,27.75Z"/>
        <path class="cls-1" d="M334.23,95.73l-74.54-1.72,41.83-71.66-17.52-.4c-14.78-.34-16.71,3.93-20.3,12.09l.63-27.07,71.54,1.65-41.55,71.27,22.1.51c10.99.25,17.24-4.44,21.22-12.46l-3.39,27.79Z"/>
        <path class="cls-1" d="M345.53,8.85l34.39.79c-.66.12-5.14,1.45-6.8,16.98l-2.48,22.19c-1.66,15.14-9.43,22.94-9.43,22.94,0,0-7.41-7.89-8.36-23.35l-1.32-22.27c-.96-15.07-5.23-17-6.01-17.28ZM360.61,98.3c-6.93-.16-11.53-4.85-11.39-11.12.14-6.28,4.96-10.75,11.89-10.59,6.93.16,11.53,4.85,11.39,11.12s-4.96,10.75-11.89,10.59Z"/>
      </g>
      <path class="cls-1" d="M460.21,103.33c-27.85.77-44.1-18.94-44.76-42.87-.71-25.89,17.28-47.45,45.65-48.23,27.72-.76,43.7,18.82,44.36,42.88.69,25.11-16.23,47.43-45.26,48.22ZM458.02,28.54c-11.38.31-19.63,9.44-19.14,27.22.52,19.09,8.58,31.3,24.14,30.87,11.64-.32,19.74-10.23,19.27-27.23s-8.19-31.31-24.27-30.87Z"/>
      <path class="cls-1" d="M564.6,11.34l33.21-.91c-.39.14-5.19,1.71-13.8,16.87l-19.99,34.7.56,20.53c.38,13.99,6.32,15.66,7.5,15.76l-37.53,1.03c1.04-.16,7.28-1.77,6.89-16.15l-.54-19.75-21.23-34.49c-8.63-14.03-14.3-15.7-15.23-15.94l41.19-1.13c-.78.15-4.55.91-4.43,5.62.06,2.22.93,5.34,3.67,9.71l10.81,17.24,8.36-14.89c3.49-6.38,4.95-10.34,4.88-12.96-.12-4.45-3.41-5.14-4.33-5.25Z"/>
      <path class="cls-1" d="M667.03,95.68l-63.81,1.75c1.04-.16,7.8-2.05,7.37-17.48l-1.49-54.14c-.38-13.86-8.67-15.34-9.85-15.43l64.34-1.77.74,26.94c-2.13-6.09-5.83-12.27-17.21-11.96l-15.17.42.59,21.45,13.73-.38c9.02-.25,10.36-3.95,10.6-4.74l.65,23.54s-.78-4.43-10.58-4.16l-13.99.38.59,21.58,16.74-.46c10.85-.3,15.59-4.09,20.7-13.52l-3.94,27.98Z"/>
      <path class="cls-1" d="M751.76,93.36l-74.54,2.05,38.15-73.68-17.52.48c-14.78.41-16.49,4.77-19.66,13.1l-.74-27.07,71.53-1.97-37.9,73.28,22.1-.61c10.98-.3,17-5.31,20.57-13.52l-1.98,27.93Z"/>
      <path class="cls-1" d="M758.66,6.01l34.39-.94c-.65.15-5.06,1.71-5.94,17.31l-1.35,22.28c-.89,15.2-8.26,23.39-8.26,23.39,0,0-7.8-7.51-9.53-22.9l-2.44-22.18c-1.72-15-6.09-16.71-6.88-16.95ZM778.23,94.59c-6.93.19-11.76-4.26-11.94-10.53-.17-6.28,4.41-10.98,11.34-11.17,6.93-.19,11.76,4.26,11.94,10.53.17,6.28-4.41,10.98-11.34,11.17Z"/>
    </g>
  </g>
</svg>