<?xml version="1.0" encoding="UTF-8"?>
<svg id="Calque_2" data-name="Calque 2" xmlns="http://www.w3.org/2000/svg" viewBox="0 0 799.26 109.49">
  <defs>
    <style>
      .cls-1 {
        fill: #fff3d8;
      }

      .cls-2 {
        fill: #554596;
      }
    </style>
  </defs>
  <g id="TEXTE_VECTORISE" data-name="TEXTE VECTORISE">
    <g>
      <polygon class="cls-1" points="661.06 107.98 138.2 108.74 125.2 5.31 674.06 .75 661.06 107.98"/>
      <g>
        <g>
          <path class="cls-1" d="M101.34,27.11c-1.22-1.86-5.37-4.09-6.58-1.01l.36,3.12-2.58-1.93,3.45,3.87-6.2,1.89c-1.37-2.68-2.81-4.8-4.8-7.02C67.39,6.37,38.16,9.89,14.22,8.99c-.32.28,1.92,2.97,2.23,3.59,2.89,5.64,2.25,16.38,2.49,22.9.53,14.69.24,29.21-.02,43.87-.19,10.46,1.87,13.72-6.56,21.39-.42.38-.93.38-.72,1.21,7.23.18,14.49,1.02,21.71,1.31,1.83.07,11.14-.31,11.78.09.21.13-.1.82.29.75.54-1.49,4.62-1.5,6.05-1.31,1.57.21,2.64,1.09,2.99,2.6.71-.31.84-2.39.65-2.58-.25-.24-2.18.52-2.16-.42,7.32-.87,14.68-3.8,20.79-7.83,7.76-5.11,14.28-12.31,17.05-21.25,3.88-12.49,4.96-27.75-.83-39.78l6.58-1.31c2.64,3.3,6.76,10.99,5.81,15.2-.52,2.31-4.58,4.63-5.5,1.6l2.57.42c.95-6-6.77-3.05-3.73,1.16,2.05,2.84,6.29-.58,7.55-2.72,3.3-5.65,1.53-15.52-1.91-20.78ZM75.05,91.55c-14.94,10.74-30.78,10.2-48.14,9.12-1.3-.08-11.85.38-11.82-1.08,2.65-3.05,4.76-5.67,5.18-9.87,1.7-17.05-1.35-36.93,0-54.27-1.25-6.62.58-14.05-1.43-20.52-.56-1.77-2.13-3.09-2.03-5.07,1.4-.24,2.71.39,4.07.45,20.21.75,37.03-1.95,55.26,9.72,22.58,14.46,19.5,56.73-1.09,71.52Z"/>
          <path class="cls-1" d="M76.14,20.03c-18.23-11.67-35.05-8.98-55.26-9.72-1.37-.05-2.68-.68-4.07-.45-.1,1.98,1.48,3.3,2.03,5.07,2.01,6.47.18,13.9,1.43,20.52-1.34,17.35,1.71,37.23,0,54.27-.42,4.2-2.53,6.82-5.18,9.87-.03,1.46,10.52,1,11.82,1.08,17.35,1.08,33.19,1.62,48.14-9.12,20.59-14.79,23.67-57.07,1.09-71.52ZM67.57,84.52c-7.84,10.03-19.53,11.62-31.62,11.87-1.02.02-1.99-.16-2.94-.53l-1.11-79.51c.43-.49,11.66-.16,13.1-.06,8.34.6,14.85,2.84,21.12,8.37,16.43,14.49,14.1,43.66,1.44,59.85Z"/>
          <path class="cls-1" d="M104.87,95.35c-.06.12-1.4,1.96-1.54,2.12-.32.37-.82.59-1.31.62l2.58,7.31-5.37-4.61c-4.47,4.53-5.82,2.07-10.35,1.19-.67-.13-4.39-.45-5.02-.38-2.34.25-5.04,2.42-7.23,3.14-2.66.87-8.25.86-8.2-3.01.03-2.51,4.51-4.34,4.58-1.06-.81,1.59-2.33-.29-3.24,1.07,1.52,4.77,6.03,1.55,9.02.21.68-.92-2.87-2.38-3.01-3.43,2.17.86,4.83-.41,6.62-.29,2.01.12,3.39,2.25,5.44,2.01-1.13-1.95-2.55-4.53-1.83-6.76.31-.96,1.2-2.49,2.26-1.63l-.44,2.36c6.43.04,2.2,7.24,6.78,8.09,3.98.74,2.89-4.3,3.12-6.8,1.25.46,3.89,1.5,4.96.44,2.68-5.79-1.98-4.52-3.91-6.44-1.81-1.79-.7-6.36-4.92-5.63,2.18-2.99,4.93-.09,7.32.86-4.04-4.71-6.18-7.86-5.61-14.43.39-4.47,3.04-5.04,3.03-.2.55-.12.95-.7,1.19-1.18.63-1.24,2.85-6.22,2.69-7.19-.12-.72-.57-1.08-1.08-1.52l-.21,1.28c-6.64-.79,1.37-6.08,3.22-1.71,1.33,3.14-2.82,6.46-3.87,9.45-1.24,3.54-1.55,8.58,0,12.06.57,1.28,1.89,2.46,2.61,3.85,1.39,2.66,3.11,7.38,1.76,10.19Z"/>
          <path class="cls-1" d="M108.86,0l.07,79.81-.46,17.84c-.75.1-.4-.98-.43-1.5-.38-9.22-.11-19.15-.02-28.43.19-19.51.39-38.99.11-58.51-.02-1.69,1.29-7.3-.62-8.11-2.85-1.21-10.76.16-14.1.15l5.76,1.77,3.28,2.53c-1.32-.21-2.21-1.36-3.44-1.93-7.86-3.62-18.7,1.5-15.07,10.97l-1.07-1.29c-.8,1.81.8,3.46,1.07,5.16-4.12-5.06-1.95-10.42,2.16-14.63-8.49,1.9-15.92,10.34-25.25,6.1-3.61-1.64-3.3-5.22-8.72-6.34-2.19-.45-6.53-.24-6.05,2.82,5.05-1.45,1.45,3.88-1.29.64-1.25-1.48.86-3.23,2.26-3.74,3.28-1.21,7.57-.34,10,2.24,1.01-3.52,5.81-4.13,5.81,0l-1.66-.06-.5-2.09c-2.62-.14-2.54,2.48-1.47,4.27,1.9,3.18,7.65,1.62,10.23-.04,2.82-1.81,5.58-7.33,9.7-3.99l-.16,2.33c2.11-1.25,4.43-2.36,6.76-3.14,1.46-.49,3.74-.22,4.65-1.59-4.52.08-9.06-.11-13.57-.02-1.13.02-2.18.45-3.4.47-15.72.24-31.96.09-47.37-.02-7.17-.05-13.87.03-16.55,7.96,3.91,1.27,4.1,3.5,2.97,7.29-.6,2.02-2.56,4.01-2.42,6.41.18,3.12,5.12,3.72,5.42,1.73.04-.25-2.37-4.48.62-3.95,1.79.32,1.73,4.97-.76,5.97-4.37,1.77-8.78-3.65-8.43-7.78-1.31-.41-.94,1.54-.85,2.36,1.13,11.11,11.49,18.01,12.04,28.85.21,4.12-1.34,6.43-2.58,10.1l-.43-1.72c-4.22,1.51-7.89,1.41-10.41-2.71-.97-1.59-1.95-5.23-1.92-7.05.04-2.55,4.56-7.79,2.67-10.48-.46-.66-4.45-1.51-1.21-3.79,6.36-.57.38,10.52.98,11.13,2.4-1.27,6.51.97,6.5,3.66-.02,4.05-6.99,3.37-3.7-.65l1.08.26v1.9s1.66-.49,1.66-.49l-.47-3.28c-4.44-1.35-6.85-.58-6.36,4.42.91,9.35,14.83,10,12.27-1.08-1.03-4.48-7.2-6.53-7.08-10.5.08-2.65,1.7-2.07,2.06-2.46.94-1-2.97-6.64-3.59-8.13-2.18-5.31-3.01-14.04-.33-19.26.53-1.03,2.69-1.94,2.25-3.97-3.18.91-8.83,1.08-6.02-3.69l1.72.25-.82,1.41.8,1.83c4.1,1.18,6.55-3.29,10.34-3.69v-1.27c-1.45-.33-5.34,1.25-6.24,0l.44-.86,99.15-.39Z"/>
          <path class="cls-1" d="M7.33,1.24C-.58.4.74,3.98.86,10.09c.5,26.14.62,52.37.72,78.67,0,2.77-.97,17.47.26,18.69,2.65.96,5.54.37,8.31.51,14.42.73,28.62.32,43.04.43,12.74.09,25.53.53,38.27.47,4.83-.02,9.64-.11,14.43-.45l-.43,1.08-104.59-.65L0,1.1C.25.03,5.24.37,6.27.55c.48.09.95-.04,1.06.69Z"/>
          <path class="cls-1" d="M9.91,68.38l4.13.39c1.59,2.44.33,4.86-1.76,6.5-2.76,2.15-4.57,1.48-5.83,5.79-1.47,5.06,3.04,11.04,8.52,8.3.84-.85,1.62-4.82.32-5.05-1.01-.18-3.03,2.41-3.65-2.14,3.87-1.6,5.57,1.53,5.57,5.01.01,4.82-7.78,4.72-10.95,1.43-4.72-4.9-1.16-18.18,4.3-21.94l-.65,1.72Z"/>
          <path class="cls-1" d="M93.84,23.2c.94-5.22-5.8-2.85-8.18-6.24,1.04-.28,1.94.91,3.01,1.29,5.21,1.86,10.88-1.15,8.51-7.22-1.4-3.59-7.77-4.58-6.79.55l1.51-1.29c4.75,1.33-.32,6.59-2.76,2.76-1.19-1.88.22-5.34,2.33-5.75,4.29-.83,8.27,3.12,8.57,7.24.24,3.37-2.29,8.86-6.21,8.68Z"/>
          <path class="cls-1" d="M91.68,83.45c-.1,1.85-1.36,2.8-.43,4.73-1.07-.64-2.35-.26-3.47-.62-2.81-.89-2-5.98,1.43-4.91.91.28,1.07,1.72,2.47.79Z"/>
          <path class="cls-1" d="M13.78,97.21c-.87,1.23-2.81-1.09-3.31-1.21-2.74-.67-1.69,3.04-1.85,4.67-1.59-.8-.91-4.1.07-5.32,2.39-2.98,6.2.29,5.09,1.86Z"/>
          <path class="cls-1" d="M76.08,10.37c4.26-.86,2.61,4.63-.45,3.72-1.68-.5-1.76-3.27.45-3.72Z"/>
          <path class="cls-1" d="M96.28,94.09c-.02.07-.84.57-.94.99-1.99-.67-2.64-2.86-2.36-4.75l3.25.83c.3.95.36,1.97.05,2.92Z"/>
          <path class="cls-1" d="M8.99,102.29l.49-.76,2.59,2.57c-1.08-.02-1.63-.86-2.8-.89-1.38-.03-2.21,1.18-2.58-.4h-.64s-.66,1.72-.66,1.72c-1.18.29-1.82-2.3.21-2.84,1.13-.3,2.15,1.17,3.39.59Z"/>
          <path class="cls-1" d="M8.13,64.45c-1.4.87-3.18-.71-2.33-2.09,1.31-2.11,3.75,1.21,2.33,2.09Z"/>
          <path class="cls-1" d="M108.47,107.77c.02.78,1.08,1.58-1.29,1.5-.31-.26.86-2.41.86-2.79v-7.1h.43c.05,2.79-.07,5.6,0,8.39Z"/>
          <path class="cls-1" d="M66.13,24.67c-6.27-5.53-12.79-7.78-21.12-8.37-1.44-.1-12.67-.42-13.1.06l1.11,79.51c.94.37,1.92.56,2.94.53,12.09-.26,23.78-1.84,31.62-11.87,12.66-16.19,14.99-45.36-1.44-59.85ZM69.31,71.62c.16-.78,4.82-.02,3.56-3.54-1.05-2.93-6.86-1.18-4.95-5.6.64-1.46,2.21-1.32,2.25-2.69-4.18.99-7.04,5.02-4.62,9.14l2.47,3.34c-6.78-1.22-13.14-4.03-19.36-6.89-.18-.97.05-.68.55-.96,5.78-3.17,18.92-1.32,21.21-8.49.86-2.69-1.92-2.96-1.54-5.61-1.42,1.47-3.03,3.07-5.16,3.44,3.75-2.68,1.91-8.26-2.72-6.8-1.3.41-.53,2.23-3.96,2.11-3.48-.12-4.88-2.52-4.54-5.86.35-3.27,3.77-5.83,7.01-5.27,2.65.46,3.48,3.3,1.4,5.06l-1.08-3.01c-4.51.31-3.58,4.87.54,4.22,4.98-.79,3.04-7.89-2.91-7.24-5.73.62-8.98,6.41-7.41,11.73.74,2.5,4.88,6.27,7.52,6.69,1.24.19,4.17-.13,5.38-.44,1.68-.43,6.32-4.11,6.66-.48.53,5.56-9.84,6.92-13.66,6.18,1.07-6.79-10.18-4.81-12.7-.87-.83-1.77-3.89-4.77-3.66-6.65.09-.75,1.04-1.23.82-2.08-.19-.75-1.59-1.18-1.7-2.26-.1-.95,2.01-2.2,2.14-4.32,0-.14-1.28.09-.74-2.02.12-.47,1.32-2.49,1.62-2.69,1.11-.73,1.62,1.74,2.61,2.18,3.85.57,3.76-5.29,6.02-6.9,1.19-.84,3.3-1.06,4.72-1.08-.05-.6-1.59-1.08-2.04-1.19-5.86-1.36-9.29,1.18-12.25,6.05-.64,1.07-.71,3.42-2.06,3.31.05-3.39,2.81-8.37,5.53-10.3,2.01-1.41,6.53-3.83,8.08-.92.7.13,1.82-1.88,3.42-2.11,1.38-.19,4.83.57,6.2,1.08,4.2,1.55,7.38,6.17,7.97,10.54,1-2.88-2.34-5.6-1.51-8.19-1.81.32-3.56-1.68-5.44-2.52-4.32-1.94-5.9-.89-9.35-1.47-1.59-.27-1.38-1.73-4.58-.53-6.17,2.3-8.85,7.57-10.78,13.32-.24.71-.32,1.26-1.27,1.1.24-2.45,1.5-8.34,3.05-10.08.69-.78,2.25-1.29,2.93-2.24,2.21-3.09,2.21-7.25.97-10.75-.22-.61.13-.73-.91-.6.61,2.42-.71,1.95-1.32,2.75-1.14,1.48.22,2.73.38,4.03.16,1.24-.53,3.18-1.09,4.32-.36.74.31,1.14-1.19.94-.45-.05.25-.86.18-1.45-.31-2.75-1.15-5.76-4.27-6.29,2.43,4.32-1.37,7.29-.87,11.41.23,1.89,1.64,2.47,1.73,3.44.05.53-.35,4.27-.46,5.14-.1.89-.93,1.52-.78,2.5.2,1.31,2.36,2.46,2.45,3.61.04.55-.7,1.05-.8,1.69-.28,1.74.96,1.79,1.48,2.79.26.5.24,1.18.51,1.65,1.03,1.81,2.61,3.34,3.17,5.44-3.17,4.18-5.31,8.74-4.72,14.19.29,2.7,2.24,5.78,5.29,5.29.97-.16,2.24-1.85,2.29-2.7.16-2.99-4.95-3.59-2.42.41-2.6,2.04-4.04-.7-3.78-3.3.33-3.2,4.56-8.67,7.93-8.94,1.97-.15,3.24,1.55,4.89,2.36,6.7,3.29,12.62,3.89,19.23,6.16.62.21,1.48.2,1.44,1.15l-2.58.22c0,1.08,1.84-.34,1.71,1.06-.27,2.86-5.34,8.99-7.52,11.01-7.05,6.54-20.18,8.53-29.51,7.97l-.22-77.31c.46-.66,7.72-.48,9.07-.4,9.21.53,17.2,3.03,23.62,9.73,11.37,11.87,11.38,29.61,7.06,44.61-.71,2.05-4.15,1.71-4.64-.33Z"/>
          <path class="cls-1" d="M65.86,74.42l-2.58.43c.71,3.02,1.69,3.48-.64,6.03-4.64,5.09-13.2-.12-18.06,6.47l-2.82,7.28c-1.51-9.26,4.17-17.78,13.31-20.04,3.59-.89,7.09.27,10.78-.18Z"/>
          <path class="cls-1" d="M52.09,19.76c.12,4.35-3.02,6.69-6.89,7.74,1.51-1.19,1.44-5.47,2.26-6.35.56-.6,4.02-1.98,4.63-1.39Z"/>
        </g>
        <g>
          <path class="cls-1" d="M791.67,27.11c-1.22-1.86-5.37-4.09-6.58-1.01l.36,3.12-2.58-1.93,3.45,3.87-6.2,1.89c-1.37-2.68-2.81-4.8-4.8-7.02-17.6-19.67-46.82-16.14-70.76-17.04-.32.28,1.92,2.97,2.23,3.59,2.89,5.64,2.25,16.38,2.49,22.9.53,14.69.24,29.21-.02,43.87-.19,10.46,1.87,13.72-6.56,21.39-.42.38-.93.38-.72,1.21,7.23.18,14.49,1.02,21.71,1.31,1.83.07,11.14-.31,11.78.09.21.13-.1.82.29.75.54-1.49,4.62-1.5,6.05-1.31,1.57.21,2.64,1.09,2.99,2.6.71-.31.84-2.39.65-2.58-.25-.24-2.18.52-2.16-.42,7.32-.87,14.68-3.8,20.79-7.83,7.76-5.11,14.28-12.31,17.05-21.25,3.88-12.49,4.96-27.75-.83-39.78l6.58-1.31c2.64,3.3,6.76,10.99,5.81,15.2-.52,2.31-4.58,4.63-5.5,1.6l2.57.42c.95-6-6.77-3.05-3.73,1.16,2.05,2.84,6.29-.58,7.55-2.72,3.3-5.65,1.53-15.52-1.91-20.78ZM765.38,91.55c-14.94,10.74-30.78,10.2-48.14,9.12-1.3-.08-11.85.38-11.82-1.08,2.65-3.05,4.76-5.67,5.18-9.87,1.7-17.05-1.35-36.93,0-54.27-1.25-6.62.58-14.05-1.43-20.52-.56-1.77-2.13-3.09-2.03-5.07,1.4-.24,2.71.39,4.07.45,20.21.75,37.03-1.95,55.26,9.72,22.58,14.46,19.5,56.73-1.09,71.52Z"/>
          <path class="cls-1" d="M766.47,20.03c-18.23-11.67-35.05-8.98-55.26-9.72-1.37-.05-2.68-.68-4.07-.45-.1,1.98,1.48,3.3,2.03,5.07,2.01,6.47.18,13.9,1.43,20.52-1.34,17.35,1.71,37.23,0,54.27-.42,4.2-2.53,6.82-5.18,9.87-.03,1.46,10.52,1,11.82,1.08,17.35,1.08,33.19,1.62,48.14-9.12,20.59-14.79,23.67-57.07,1.09-71.52ZM757.91,84.52c-7.84,10.03-19.53,11.62-31.62,11.87-1.02.02-1.99-.16-2.94-.53l-1.11-79.51c.43-.49,11.66-.16,13.1-.06,8.34.6,14.85,2.84,21.12,8.37,16.43,14.49,14.1,43.66,1.44,59.85Z"/>
          <path class="cls-1" d="M795.2,95.35c-.06.12-1.4,1.96-1.54,2.12-.32.37-.82.59-1.31.62l2.58,7.31-5.37-4.61c-4.47,4.53-5.82,2.07-10.35,1.19-.67-.13-4.39-.45-5.02-.38-2.34.25-5.04,2.42-7.23,3.14-2.66.87-8.25.86-8.2-3.01.03-2.51,4.51-4.34,4.58-1.06-.81,1.59-2.33-.29-3.24,1.07,1.52,4.77,6.03,1.55,9.02.21.68-.92-2.87-2.38-3.01-3.43,2.17.86,4.83-.41,6.62-.29,2.01.12,3.39,2.25,5.44,2.01-1.13-1.95-2.55-4.53-1.83-6.76.31-.96,1.2-2.49,2.26-1.63l-.44,2.36c6.43.04,2.2,7.24,6.78,8.09,3.98.74,2.89-4.3,3.12-6.8,1.25.46,3.89,1.5,4.96.44,2.68-5.79-1.98-4.52-3.91-6.44-1.81-1.79-.7-6.36-4.92-5.63,2.18-2.99,4.93-.09,7.32.86-4.04-4.71-6.18-7.86-5.61-14.43.39-4.47,3.04-5.04,3.03-.2.55-.12.95-.7,1.19-1.18.63-1.24,2.85-6.22,2.69-7.19-.12-.72-.57-1.08-1.08-1.52l-.21,1.28c-6.64-.79,1.37-6.08,3.22-1.71,1.33,3.14-2.82,6.46-3.87,9.45-1.24,3.54-1.55,8.58,0,12.06.57,1.28,1.89,2.46,2.61,3.85,1.39,2.66,3.11,7.38,1.76,10.19Z"/>
          <path class="cls-1" d="M799.19,0l.07,79.81-.46,17.84c-.75.1-.4-.98-.43-1.5-.38-9.22-.11-19.15-.02-28.43.19-19.51.39-38.99.11-58.51-.02-1.69,1.29-7.3-.62-8.11-2.85-1.21-10.76.16-14.1.15l5.76,1.77,3.28,2.53c-1.32-.21-2.21-1.36-3.44-1.93-7.86-3.62-18.7,1.5-15.07,10.97l-1.07-1.29c-.8,1.81.8,3.46,1.07,5.16-4.12-5.06-1.95-10.42,2.16-14.63-8.49,1.9-15.92,10.34-25.25,6.1-3.61-1.64-3.3-5.22-8.72-6.34-2.19-.45-6.53-.24-6.05,2.82,5.05-1.45,1.45,3.88-1.29.64-1.25-1.48.86-3.23,2.26-3.74,3.28-1.21,7.57-.34,10,2.24,1.01-3.52,5.81-4.13,5.81,0l-1.66-.06-.5-2.09c-2.62-.14-2.54,2.48-1.47,4.27,1.9,3.18,7.65,1.62,10.23-.04,2.82-1.81,5.58-7.33,9.7-3.99l-.16,2.33c2.11-1.25,4.43-2.36,6.76-3.14,1.46-.49,3.74-.22,4.65-1.59-4.52.08-9.06-.11-13.57-.02-1.13.02-2.18.45-3.4.47-15.72.24-31.96.09-47.37-.02-7.17-.05-13.87.03-16.55,7.96,3.91,1.27,4.1,3.5,2.97,7.29-.6,2.02-2.56,4.01-2.42,6.41.18,3.12,5.12,3.72,5.42,1.73.04-.25-2.37-4.48.62-3.95,1.79.32,1.73,4.97-.76,5.97-4.37,1.77-8.78-3.65-8.43-7.78-1.31-.41-.94,1.54-.85,2.36,1.13,11.11,11.49,18.01,12.04,28.85.21,4.12-1.34,6.43-2.58,10.1l-.43-1.72c-4.22,1.51-7.89,1.41-10.41-2.71-.97-1.59-1.95-5.23-1.92-7.05.04-2.55,4.56-7.79,2.67-10.48-.46-.66-4.45-1.51-1.21-3.79,6.36-.57.38,10.52.98,11.13,2.4-1.27,6.51.97,6.5,3.66-.02,4.05-6.99,3.37-3.7-.65l1.08.26v1.9s1.66-.49,1.66-.49l-.47-3.28c-4.44-1.35-6.85-.58-6.36,4.42.91,9.35,14.83,10,12.27-1.08-1.03-4.48-7.2-6.53-7.08-10.5.08-2.65,1.7-2.07,2.06-2.46.94-1-2.97-6.64-3.59-8.13-2.18-5.31-3.01-14.04-.33-19.26.53-1.03,2.69-1.94,2.25-3.97-3.18.91-8.83,1.08-6.02-3.69l1.72.25-.82,1.41.8,1.83c4.1,1.18,6.55-3.29,10.34-3.69v-1.27c-1.45-.33-5.34,1.25-6.24,0l.44-.86,99.15-.39Z"/>
          <path class="cls-1" d="M697.67,1.24c-7.92-.85-6.59,2.74-6.47,8.84.5,26.14.62,52.37.72,78.67,0,2.77-.97,17.47.26,18.69,2.65.96,5.54.37,8.31.51,14.42.73,28.62.32,43.04.43,12.74.09,25.53.53,38.27.47,4.83-.02,9.64-.11,14.43-.45l-.43,1.08-104.59-.65-.87-107.74c.25-1.07,5.24-.73,6.27-.55.48.09.95-.04,1.06.69Z"/>
          <path class="cls-1" d="M700.25,68.38l4.13.39c1.59,2.44.33,4.86-1.76,6.5-2.76,2.15-4.57,1.48-5.83,5.79-1.47,5.06,3.04,11.04,8.52,8.3.84-.85,1.62-4.82.32-5.05-1.01-.18-3.03,2.41-3.65-2.14,3.87-1.6,5.57,1.53,5.57,5.01.01,4.82-7.78,4.72-10.95,1.43-4.72-4.9-1.16-18.18,4.3-21.94l-.65,1.72Z"/>
          <path class="cls-1" d="M784.18,23.2c.94-5.22-5.8-2.85-8.18-6.24,1.04-.28,1.94.91,3.01,1.29,5.21,1.86,10.88-1.15,8.51-7.22-1.4-3.59-7.77-4.58-6.79.55l1.51-1.29c4.75,1.33-.32,6.59-2.76,2.76-1.19-1.88.22-5.34,2.33-5.75,4.29-.83,8.27,3.12,8.57,7.24.24,3.37-2.29,8.86-6.21,8.68Z"/>
          <path class="cls-1" d="M782.02,83.45c-.1,1.85-1.36,2.8-.43,4.73-1.07-.64-2.35-.26-3.47-.62-2.81-.89-2-5.98,1.43-4.91.91.28,1.07,1.72,2.47.79Z"/>
          <path class="cls-1" d="M704.11,97.21c-.87,1.23-2.81-1.09-3.31-1.21-2.74-.67-1.69,3.04-1.85,4.67-1.59-.8-.91-4.1.07-5.32,2.39-2.98,6.2.29,5.09,1.86Z"/>
          <path class="cls-1" d="M766.42,10.37c4.26-.86,2.61,4.63-.45,3.72-1.68-.5-1.76-3.27.45-3.72Z"/>
          <path class="cls-1" d="M786.62,94.09c-.02.07-.84.57-.94.99-1.99-.67-2.64-2.86-2.36-4.75l3.25.83c.3.95.36,1.97.05,2.92Z"/>
          <path class="cls-1" d="M699.32,102.29l.49-.76,2.59,2.57c-1.08-.02-1.63-.86-2.8-.89-1.38-.03-2.21,1.18-2.58-.4h-.64s-.66,1.72-.66,1.72c-1.18.29-1.82-2.3.21-2.84,1.13-.3,2.15,1.17,3.39.59Z"/>
          <path class="cls-1" d="M698.46,64.45c-1.4.87-3.18-.71-2.33-2.09,1.31-2.11,3.75,1.21,2.33,2.09Z"/>
          <path class="cls-1" d="M798.81,107.77c.02.78,1.08,1.58-1.29,1.5-.31-.26.86-2.41.86-2.79v-7.1h.43c.05,2.79-.07,5.6,0,8.39Z"/>
          <path class="cls-1" d="M756.46,24.67c-6.27-5.53-12.79-7.78-21.12-8.37-1.44-.1-12.67-.42-13.1.06l1.11,79.51c.94.37,1.92.56,2.94.53,12.09-.26,23.78-1.84,31.62-11.87,12.66-16.19,14.99-45.36-1.44-59.85ZM759.64,71.62c.16-.78,4.82-.02,3.56-3.54-1.05-2.93-6.86-1.18-4.95-5.6.64-1.46,2.21-1.32,2.25-2.69-4.18.99-7.04,5.02-4.62,9.14l2.47,3.34c-6.78-1.22-13.14-4.03-19.36-6.89-.18-.97.05-.68.55-.96,5.78-3.17,18.92-1.32,21.21-8.49.86-2.69-1.92-2.96-1.54-5.61-1.42,1.47-3.03,3.07-5.16,3.44,3.75-2.68,1.91-8.26-2.72-6.8-1.3.41-.53,2.23-3.96,2.11-3.48-.12-4.88-2.52-4.54-5.86.35-3.27,3.77-5.83,7.01-5.27,2.65.46,3.48,3.3,1.4,5.06l-1.08-3.01c-4.51.31-3.58,4.87.54,4.22,4.98-.79,3.04-7.89-2.91-7.24-5.73.62-8.98,6.41-7.41,11.73.74,2.5,4.88,6.27,7.52,6.69,1.24.19,4.17-.13,5.38-.44,1.68-.43,6.32-4.11,6.66-.48.53,5.56-9.84,6.92-13.66,6.18,1.07-6.79-10.18-4.81-12.7-.87-.83-1.77-3.89-4.77-3.66-6.65.09-.75,1.04-1.23.82-2.08-.19-.75-1.59-1.18-1.7-2.26-.1-.95,2.01-2.2,2.14-4.32,0-.14-1.28.09-.74-2.02.12-.47,1.32-2.49,1.62-2.69,1.11-.73,1.62,1.74,2.61,2.18,3.85.57,3.76-5.29,6.02-6.9,1.19-.84,3.3-1.06,4.72-1.08-.05-.6-1.59-1.08-2.04-1.19-5.86-1.36-9.29,1.18-12.25,6.05-.64,1.07-.71,3.42-2.06,3.31.05-3.39,2.81-8.37,5.53-10.3,2.01-1.41,6.53-3.83,8.08-.92.7.13,1.82-1.88,3.42-2.11,1.38-.19,4.83.57,6.2,1.08,4.2,1.55,7.38,6.17,7.97,10.54,1-2.88-2.34-5.6-1.51-8.19-1.81.32-3.56-1.68-5.44-2.52-4.32-1.94-5.9-.89-9.35-1.47-1.59-.27-1.38-1.73-4.58-.53-6.17,2.3-8.85,7.57-10.78,13.32-.24.71-.32,1.26-1.27,1.1.24-2.45,1.5-8.34,3.05-10.08.69-.78,2.25-1.29,2.93-2.24,2.21-3.09,2.21-7.25.97-10.75-.22-.61.13-.73-.91-.6.61,2.42-.71,1.95-1.32,2.75-1.14,1.48.22,2.73.38,4.03.16,1.24-.53,3.18-1.09,4.32-.36.74.31,1.14-1.19.94-.45-.05.25-.86.18-1.45-.31-2.75-1.15-5.76-4.27-6.29,2.43,4.32-1.37,7.29-.87,11.41.23,1.89,1.64,2.47,1.73,3.44.05.53-.35,4.27-.46,5.14-.1.89-.93,1.52-.78,2.5.2,1.31,2.36,2.46,2.45,3.61.04.55-.7,1.05-.8,1.69-.28,1.74.96,1.79,1.48,2.79.26.5.24,1.18.51,1.65,1.03,1.81,2.61,3.34,3.17,5.44-3.17,4.18-5.31,8.74-4.72,14.19.29,2.7,2.24,5.78,5.29,5.29.97-.16,2.24-1.85,2.29-2.7.16-2.99-4.95-3.59-2.42.41-2.6,2.04-4.04-.7-3.78-3.3.33-3.2,4.56-8.67,7.93-8.94,1.97-.15,3.24,1.55,4.89,2.36,6.7,3.29,12.62,3.89,19.23,6.16.62.21,1.48.2,1.44,1.15l-2.58.22c0,1.08,1.84-.34,1.71,1.06-.27,2.86-5.34,8.99-7.52,11.01-7.05,6.54-20.18,8.53-29.51,7.97l-.22-77.31c.46-.66,7.72-.48,9.07-.4,9.21.53,17.2,3.03,23.62,9.73,11.37,11.87,11.38,29.61,7.06,44.61-.71,2.05-4.15,1.71-4.64-.33Z"/>
          <path class="cls-1" d="M756.2,74.42l-2.58.43c.71,3.02,1.69,3.48-.64,6.03-4.64,5.09-13.2-.12-18.06,6.47l-2.82,7.28c-1.51-9.26,4.17-17.78,13.31-20.04,3.59-.89,7.09.27,10.78-.18Z"/>
          <path class="cls-1" d="M742.43,19.76c.12,4.35-3.02,6.69-6.89,7.74,1.51-1.19,1.44-5.47,2.26-6.35.56-.6,4.02-1.98,4.63-1.39Z"/>
        </g>
      </g>
      <g>
        <path class="cls-2" d="M168.39,37.32c-.48,0-1.18-.02-2.09-.04-.92-.03-1.88-.08-2.9-.14-1.02-.06-2.02-.13-2.99-.22-.98-.09-1.76-.19-2.36-.32-.12-.06-.23-.22-.34-.47-.11-.25-.16-.5-.16-.74,0-.27.12-.48.36-.63,1.2.33,2.5.59,3.92.79,1.41.2,2.76.35,4.05.47,1.29.12,2.45.2,3.49.23s1.79.04,2.27.04c1.17,0,2.37-.03,3.6-.09s2.37-.13,3.42-.23c1.05-.09,1.93-.18,2.63-.27.71-.09,1.12-.18,1.24-.27.06,0,.15.06.27.18.12.12.18.26.18.41,0,.33-.15.58-.45.74-.3.16-.72.29-1.26.36-.54.08-1.2.13-1.98.16-.78.03-1.65.07-2.61.13-.15.03-.22.2-.22.49,0,.69.11,1.83.34,3.42.23,1.59.51,3.39.86,5.4.34,2.01.73,4.12,1.17,6.35.43,2.22.87,4.31,1.3,6.28.43,1.96.84,3.69,1.21,5.17s.7,2.5.97,3.04c.15.06.28.1.38.11.1.02.29.02.56.02.39,0,.73-.02,1.01-.04.28-.03.5-.04.65-.04.12,0,.21.12.27.36.06.24.09.4.09.5,0,.21-.11.32-.31.32-.15,0-.36-.02-.63-.04-.27-.03-.65-.05-1.12-.07-.48-.02-1.1-.04-1.87-.07-.76-.03-1.73-.04-2.9-.04-.39,0-.82.01-1.28.04-.47.03-.91.06-1.33.09-.42.03-.8.06-1.12.09-.33.03-.56.04-.68.04-.09,0-.17-.06-.22-.18-.06-.12-.09-.25-.09-.41s.02-.28.07-.38c.04-.1.13-.16.25-.16.27-.03.63-.05,1.08-.07.45-.01.67-.13.67-.34,0-.18-.08-.72-.22-1.62-.15-.9-.34-1.98-.56-3.24s-.47-2.6-.72-4.03c-.26-1.42-.5-2.75-.74-3.98-.54-.09-1.22-.16-2.05-.22-.83-.06-1.69-.09-2.59-.09-1.05,0-2.05.04-2.99.13s-1.69.25-2.23.49c-.15.66-.32,1.36-.5,2.09-.18.74-.35,1.48-.52,2.23s-.31,1.49-.43,2.23-.18,1.42-.18,2.05c0,1.23.26,2.12.79,2.65.53.54,1.18.81,1.96.81s1.27-.02,1.46-.07c.19-.05.37-.07.52-.07.24,0,.36.06.36.18,0,.06-.07.16-.2.29-.14.13-.31.28-.52.43-.27.21-.62.47-1.06.79-.44.31-1,.47-1.69.47-.09,0-.32-.02-.7-.04-.38-.03-.83-.07-1.37-.11s-1.11-.08-1.71-.11c-.6-.03-1.17-.04-1.71-.04-.75,0-1.36.01-1.82.04s-.83.06-1.1.09c-.27.03-.46.06-.56.09-.1.03-.19.04-.25.04s-.11-.05-.16-.16-.07-.22-.07-.34c0-.18.08-.28.23-.31.3-.12.74-.34,1.3-.67.6-.36,1.13-.97,1.6-1.82.46-.85,1-2.02,1.6-3.49.42-.99.88-2.34,1.39-4.05.51-1.71,1.02-3.58,1.53-5.62.51-2.04.99-4.18,1.44-6.41s.83-4.39,1.12-6.46l3.96-2.12ZM172.98,51.31c-.15-.75-.32-1.68-.52-2.79-.2-1.11-.4-2.24-.61-3.4-.21-1.15-.41-2.24-.61-3.26s-.35-1.8-.47-2.34c-.18-.81-.34-1.32-.47-1.53-.14-.21-.28-.31-.43-.31-.3,0-.62.25-.95.74-.33.5-.68,1.16-1.06,1.98-.38.83-.74,1.77-1.1,2.83-.36,1.07-.71,2.16-1.06,3.29-.35,1.12-.66,2.24-.95,3.35-.29,1.11-.52,2.12-.7,3.01.48-.12,1.09-.25,1.82-.38.73-.13,1.51-.28,2.34-.43s1.65-.29,2.47-.43,1.58-.25,2.27-.34Z"/>
        <path class="cls-2" d="M185.49,49.65c-.24-.06-.35-.18-.34-.36.01-.18.13-.29.34-.32.09-.03.38-.13.86-.31.48-.18,1.06-.39,1.73-.63.67-.24,1.38-.49,2.12-.76.73-.27,1.39-.5,1.96-.67.36-.12.61-.2.74-.25.14-.04.25-.07.34-.07s.19.04.32.11c.12.08.15.19.09.34-.09.24-.19.81-.29,1.71-.11.9-.2,1.9-.29,2.99s-.17,2.18-.25,3.26-.11,1.94-.11,2.57c0,2.4.51,4.25,1.53,5.56,1.02,1.3,2.61,1.96,4.77,1.96,1.11,0,2.03-.22,2.77-.67s1.3-.97,1.69-1.58c.27-.39.45-1.24.54-2.56,0-.24,0-.55.02-.95.01-.39.03-.8.04-1.24.01-.43.03-.85.04-1.26.01-.4.02-.74.02-1.01.03-1.38,0-2.66-.11-3.85-.11-1.18-.26-2.06-.47-2.63-.09-.36-.27-.54-.54-.54-.18,0-.35,0-.52.02-.17.02-.26-.11-.29-.38,0-.09.09-.19.27-.29.18-.1.53-.26,1.04-.47.48-.18,1.01-.36,1.6-.54s1.16-.33,1.73-.45c.57-.12,1.08-.2,1.53-.25s.78-.02.99.07c0,.03.02.07.07.11s.08.14.11.29c.06.18.02.74-.11,1.69s-.28,2.48-.43,4.61c-.12,1.47-.22,2.9-.32,4.28-.09,1.38-.13,2.43-.13,3.15,0,1.41.26,2.53.79,3.35.52.82,1.18,1.24,1.96,1.24.51,0,1-.1,1.46-.31.46-.21.8-.39,1.01-.54.24,0,.37.11.38.32.01.21-.04.34-.16.4-.45.3-1.07.68-1.87,1.12-.8.45-1.62.88-2.48,1.28-.85.4-1.67.75-2.45,1.04-.78.28-1.41.43-1.89.43-.24,0-.46-.16-.65-.47-.2-.32-.35-.7-.47-1.15-.12-.45-.21-.91-.27-1.39-.06-.48-.09-.9-.09-1.26-.63.45-1.35.92-2.16,1.42s-1.65.96-2.52,1.4c-.87.44-1.73.79-2.59,1.06-.86.27-1.64.41-2.36.41-1.83,0-3.33-.49-4.5-1.46s-1.75-2.24-1.75-3.8c0-.33.03-.82.09-1.49.06-.66.13-1.41.22-2.25.09-.84.17-1.74.23-2.7.06-.96.09-1.89.09-2.79,0-1.38-.22-2.44-.65-3.17-.44-.74-1-1.15-1.69-1.24l-.72-.09Z"/>
        <path class="cls-2" d="M234.67,49.1c-.33.27-.72.61-1.17,1.01-.45.4-.92.79-1.42,1.17s-1,.7-1.51.97-1,.41-1.48.41c-.42,0-.79-.1-1.12-.29-.33-.2-.64-.41-.92-.63s-.56-.43-.83-.63c-.27-.19-.56-.29-.86-.29-.81,0-1.49.33-2.05.99-.56.66-1.01,1.5-1.35,2.52s-.6,2.13-.76,3.33c-.17,1.2-.25,2.36-.25,3.46,0,.93.04,1.69.11,2.27.07.58.19,1.05.34,1.4.15.34.35.58.61.7.25.12.56.18.92.18.39,0,.81-.06,1.26-.18.09-.03.16.03.2.18.05.15.07.27.07.36,0,.06-.04.13-.14.2-.09.08-.15.11-.18.11-.66.27-1.33.56-2.03.88-.69.31-1.26.58-1.71.79-.42.18-.92.38-1.51.58s-1.09.32-1.51.32c-.48,0-.88-.08-1.19-.22-.32-.15-.47-.3-.47-.45s.04-.28.11-.4c.08-.12.14-.34.2-.68.06-.45.13-.98.2-1.6.07-.61.15-1.28.22-2,.08-.72.14-1.46.18-2.23s.07-1.52.07-2.27c0-1.68-.05-3.11-.16-4.28-.11-1.17-.29-2.11-.56-2.83-.27-.72-.64-1.24-1.1-1.55-.47-.32-1.06-.47-1.78-.47h-.4c-.12,0-.24.02-.36.04-.18,0-.27-.09-.27-.27s.09-.32.27-.41c.33-.21.84-.52,1.53-.92.69-.4,1.4-.79,2.14-1.17.73-.38,1.45-.71,2.14-1.01.69-.3,1.2-.45,1.53-.45.39,0,.72.13.99.38.27.26.47.58.61.97s.23.83.29,1.33c.06.5.09.98.09,1.46,0,.36,0,.74-.02,1.12-.02.39-.02.81-.02,1.26,1.35-1.98,2.56-3.52,3.64-4.61s2.1-1.64,3.06-1.64c.36,0,.71.15,1.06.45s.71.64,1.1,1.01c.39.38.79.71,1.21,1.01.42.3.86.45,1.31.45.39,0,.67-.04.85-.13.18-.09.33-.16.45-.22.24,0,.36.16.36.49v.04Z"/>
        <path class="cls-2" d="M254.7,62.96c-.33.36-.84.85-1.53,1.49-.69.63-1.52,1.26-2.5,1.89-.98.63-2.06,1.17-3.26,1.62-1.2.45-2.48.67-3.83.67-1.23,0-2.43-.19-3.6-.56-1.17-.37-2.22-.94-3.15-1.71-.93-.76-1.67-1.74-2.23-2.92-.56-1.18-.83-2.6-.83-4.25,0-1.35.09-2.51.27-3.49.18-.97.42-1.83.72-2.57.3-.73.64-1.36,1.01-1.89.38-.53.76-1,1.15-1.42.48-.54,1.06-1.05,1.75-1.53.69-.48,1.43-.92,2.23-1.31.79-.39,1.63-.7,2.52-.92.88-.22,1.78-.34,2.68-.34,1.62,0,2.89.27,3.8.81s1.37,1.29,1.37,2.25c0,.6-.18,1.16-.54,1.67.3-.09.68-.24,1.15-.45.46-.21.94-.43,1.42-.65s.91-.43,1.28-.61c.37-.18.62-.31.74-.41.06-.06.13-.08.2-.07.08.02.11.07.11.16,0,.39-.08.71-.22.97-.15.26-.33.46-.54.61-.48.3-1.17.68-2.07,1.12-.9.45-1.9.92-2.99,1.42-1.1.49-2.23.99-3.4,1.48-1.17.5-2.27.97-3.31,1.42-1.04.45-1.93.85-2.7,1.19-.76.34-1.28.59-1.55.74,0,1.02.2,1.97.61,2.86.4.88.97,1.66,1.69,2.32.72.66,1.58,1.18,2.59,1.55s2.11.56,3.31.56c1.08,0,2.05-.11,2.92-.34.87-.22,1.6-.48,2.21-.76.6-.28,1.07-.54,1.42-.76.34-.22.53-.34.56-.34.12,0,.24.05.36.16s.18.22.18.34ZM238.86,56.08c.51-.18,1.09-.4,1.73-.65.64-.25,1.27-.53,1.89-.83.61-.3,1.18-.58,1.69-.86.51-.27.9-.51,1.17-.72.54-.39.81-1.05.81-1.98,0-.36-.07-.73-.2-1.12-.13-.39-.34-.74-.61-1.06-.27-.32-.6-.57-.99-.76s-.83-.29-1.3-.29c-.42,0-.87.14-1.35.43-.48.29-.93.75-1.35,1.39-.42.65-.77,1.5-1.06,2.57-.29,1.07-.43,2.36-.43,3.89Z"/>
        <path class="cls-2" d="M252.04,67.65c.66-.39,1.32-.93,1.98-1.62.66-.69,1.32-1.46,1.98-2.32.66-.86,1.33-1.76,2-2.72s1.34-1.92,2-2.88c1.11-1.62,2.15-3.16,3.13-4.63.97-1.47,1.75-2.67,2.32-3.6h-.72c-1.11,0-2.32-.04-3.62-.13-1.31-.09-2.48-.13-3.53-.13-.96,0-1.65.07-2.07.22-.42.15-.8.39-1.12.72-.09,0-.22-.04-.38-.11-.17-.07-.25-.19-.25-.34,0-.09.02-.15.05-.18.36-.24.84-.64,1.44-1.21.6-.57,1.2-1.14,1.8-1.71.6-.57,1.12-1.07,1.58-1.51s.72-.65.81-.65c.21,0,.36.04.45.11.09.08.17.16.23.25.06.09.13.19.22.29.09.11.24.2.45.29.36.15.85.3,1.49.45.63.15,1.33.28,2.11.38.78.11,1.62.2,2.52.27.9.07,1.8.11,2.7.11.57,0,1.15-.04,1.75-.11.6-.08,1.12-.17,1.58-.29.03,0,.07.06.13.18.06.12.09.22.09.32,0,.06-.02.11-.04.16-.03.04-.04.08-.04.11-.84.63-1.78,1.68-2.81,3.15s-2.44,3.32-4.21,5.54c-.15.15-.26.3-.34.45-.08.15-.17.3-.29.45-1.32,1.68-2.47,3.11-3.46,4.3-.99,1.19-1.88,2.2-2.66,3.04.45.06.98.16,1.6.31.61.15,1.3.3,2.07.45.76.15,1.6.29,2.52.41.92.12,1.9.18,2.95.18,1.11,0,2.02-.1,2.72-.29.71-.19,1.36-.58,1.96-1.15.21-.21.31-.3.29-.27-.01.03.04.04.16.04.15,0,.22.08.2.25-.02.17-.02.28-.02.34,0,.36-.21.79-.63,1.3-.42.51-1.01,1-1.75,1.46-.75.46-1.64.86-2.68,1.19s-2.18.5-3.44.5c-.78,0-1.63-.04-2.54-.13s-1.85-.2-2.81-.32-1.92-.23-2.88-.32-1.86-.13-2.7-.13c-.51,0-.94.05-1.28.16-.34.1-.74.22-1.19.34-.15,0-.22-.09-.22-.27,0-.03.03-.16.09-.4l.36-.27Z"/>
        <path class="cls-2" d="M287.37,52.79c-.33.51-.65,1.12-.95,1.84-.3.72-.58,1.37-.85,1.94-1.26-.09-2.33-.13-3.22-.13h-2.5c-.87,0-1.81.03-2.81.09-1.01.06-1.76.12-2.27.18.3-.6.62-1.27.97-2,.34-.74.68-1.4,1.01-2,.48.12,1.21.2,2.21.25s1.96.07,2.92.07h1.33c.5,0,1,0,1.51-.02.51-.01,1-.04,1.46-.07.46-.03.86-.08,1.19-.14Z"/>
        <path class="cls-2" d="M303.61,63.24c.12-.18.35-.55.7-1.1.34-.55.73-1.24,1.17-2.05.43-.81.88-1.69,1.35-2.63s.89-1.9,1.28-2.86c.39-.96.71-1.87.97-2.72.25-.85.38-1.6.38-2.23,0-.48-.06-.86-.18-1.15-.12-.28-.29-.5-.52-.65-.23-.15-.49-.25-.79-.31s-.62-.09-.94-.09c-.18,0-.36.02-.54.04-.18.03-.36.07-.54.13-.18.06-.32.04-.43-.07-.11-.1-.16-.19-.16-.25,0-.12.2-.27.61-.45.4-.18.96-.34,1.67-.49.7-.15,1.51-.28,2.43-.38s1.87-.16,2.86-.16c1.41,0,2.12.47,2.12,1.4,0,.42-.28,1.14-.83,2.16-.55,1.02-1.26,2.21-2.11,3.58-.86,1.37-1.8,2.81-2.83,4.34-1.04,1.53-2.05,3.01-3.04,4.43-.99,1.43-1.9,2.74-2.72,3.94-.83,1.2-1.45,2.13-1.87,2.79-.09.12-.42.18-.99.18-.24,0-.4-.04-.47-.11-.08-.08-.14-.2-.2-.38-.27-.84-.58-1.77-.92-2.79s-.71-2.05-1.1-3.11c-.39-1.05-.79-2.09-1.19-3.13-.4-1.04-.8-2-1.19-2.9-1.05-2.52-1.94-4.28-2.68-5.29-.74-1-1.42-1.51-2.05-1.51-.18,0-.35.03-.52.09-.17.06-.32.12-.47.18-.06,0-.14-.07-.25-.2s-.13-.23-.07-.29c.03-.03.31-.22.85-.58.54-.36,1.17-.76,1.89-1.19.72-.43,1.45-.83,2.18-1.19.74-.36,1.33-.54,1.78-.54.69,0,1.32.64,1.89,1.91.57,1.28,1.24,3.04,2.02,5.29l3.47,10.35Z"/>
        <path class="cls-2" d="M333.72,64.63c-.33.27-.78.63-1.35,1.08-.57.45-1.23.9-1.98,1.35-.75.45-1.58.83-2.48,1.15-.9.31-1.84.47-2.83.47-1.5,0-2.83-.26-4-.79s-2.15-1.23-2.95-2.12c-.79-.88-1.4-1.93-1.8-3.13-.41-1.2-.61-2.47-.61-3.82,0-1.59.24-3,.72-4.23.48-1.23,1.07-2.3,1.78-3.22.7-.92,1.46-1.68,2.27-2.29s1.54-1.1,2.21-1.46c.3-.18.68-.38,1.15-.58.46-.21.97-.41,1.53-.58.55-.18,1.15-.34,1.8-.47.64-.13,1.31-.2,2-.2,1.29,0,2.54.17,3.76.5s2.29.85,3.22,1.55c.93.71,1.68,1.61,2.25,2.72.57,1.11.85,2.45.85,4,0,1.26-.23,2.45-.7,3.55-.46,1.11-1.01,2.1-1.64,2.97s-1.25,1.61-1.87,2.23c-.62.62-1.06,1.06-1.33,1.33ZM328.63,65.35c1.71,0,3.02-.65,3.94-1.94.91-1.29,1.37-3.27,1.37-5.94,0-1.35-.19-2.6-.56-3.76-.38-1.15-.9-2.17-1.58-3.04-.67-.87-1.46-1.55-2.36-2.05-.9-.49-1.88-.74-2.92-.74-.75,0-1.46.2-2.14.59-.67.39-1.27.95-1.78,1.69-.51.73-.92,1.63-1.21,2.68-.3,1.05-.45,2.24-.45,3.56,0,1.41.22,2.67.65,3.78.43,1.11,1.01,2.05,1.73,2.81.72.77,1.54,1.35,2.45,1.76.92.4,1.87.61,2.86.61Z"/>
        <path class="cls-2" d="M341.14,49.65c-.24-.06-.35-.18-.34-.36.01-.18.13-.29.34-.32.09-.03.38-.13.85-.31s1.06-.39,1.73-.63c.68-.24,1.38-.49,2.12-.76s1.39-.5,1.96-.67c.36-.12.61-.2.74-.25s.25-.07.34-.07.19.04.31.11c.12.08.15.19.09.34-.09.24-.19.81-.29,1.71-.11.9-.2,1.9-.29,2.99s-.17,2.18-.25,3.26c-.08,1.08-.11,1.94-.11,2.57,0,2.4.51,4.25,1.53,5.56s2.61,1.96,4.77,1.96c1.11,0,2.03-.22,2.77-.67.73-.45,1.3-.97,1.69-1.58.27-.39.45-1.24.54-2.56,0-.24,0-.55.02-.95.01-.39.03-.8.04-1.24.01-.43.03-.85.04-1.26.01-.4.02-.74.02-1.01.03-1.38,0-2.66-.11-3.85-.11-1.18-.26-2.06-.47-2.63-.09-.36-.27-.54-.54-.54-.18,0-.35,0-.52.02-.17.02-.26-.11-.29-.38,0-.09.09-.19.27-.29.18-.1.52-.26,1.04-.47.48-.18,1.01-.36,1.6-.54s1.16-.33,1.73-.45c.57-.12,1.08-.2,1.53-.25.45-.04.78-.02.99.07,0,.03.02.07.07.11s.08.14.11.29c.06.18.02.74-.11,1.69-.13.95-.28,2.48-.43,4.61-.12,1.47-.23,2.9-.32,4.28s-.13,2.43-.13,3.15c0,1.41.26,2.53.79,3.35.52.82,1.18,1.24,1.96,1.24.51,0,1-.1,1.46-.31.46-.21.8-.39,1.01-.54.24,0,.37.11.38.32.01.21-.04.34-.16.4-.45.3-1.07.68-1.87,1.12-.79.45-1.62.88-2.47,1.28-.86.4-1.67.75-2.45,1.04-.78.28-1.41.43-1.89.43-.24,0-.46-.16-.65-.47-.2-.32-.35-.7-.47-1.15-.12-.45-.21-.91-.27-1.39-.06-.48-.09-.9-.09-1.26-.63.45-1.35.92-2.16,1.42-.81.5-1.65.96-2.52,1.4s-1.73.79-2.59,1.06c-.85.27-1.64.41-2.36.41-1.83,0-3.33-.49-4.5-1.46s-1.75-2.24-1.75-3.8c0-.33.03-.82.09-1.49.06-.66.13-1.41.23-2.25.09-.84.16-1.74.22-2.7.06-.96.09-1.89.09-2.79,0-1.38-.22-2.44-.65-3.17-.44-.74-1-1.15-1.69-1.24l-.72-.09Z"/>
        <path class="cls-2" d="M369.67,67.1c-.24.15-.47.4-.68.74s-.34.61-.4.79c-.03.06-.11.11-.25.16s-.23.07-.29.07c-.27,0-.41-.13-.41-.41,0-.09.12-.33.36-.72.18-.3.46-.77.85-1.42.39-.64.79-1.3,1.19-1.98.41-.67.78-1.29,1.12-1.84.34-.56.59-.92.74-1.1.15-.15.33-.17.54-.07.21.11.27.23.18.38-.06.06-.11.13-.13.23-.03.09-.04.24-.04.45,0,.27.23.61.7,1.01.46.41,1.06.79,1.78,1.17.72.38,1.51.7,2.38.97.87.27,1.72.4,2.57.4.99,0,1.78-.28,2.36-.85.58-.57.88-1.32.88-2.25,0-1.05-.33-1.83-.99-2.34-.66-.51-1.48-.9-2.45-1.17-.97-.27-2.04-.49-3.19-.65-1.16-.16-2.22-.41-3.2-.74-.98-.33-1.79-.81-2.45-1.44-.66-.63-.99-1.54-.99-2.75,0-.93.32-1.87.97-2.83.64-.96,1.5-1.81,2.56-2.57,1.06-.75,2.29-1.36,3.67-1.84,1.38-.48,2.82-.72,4.32-.72.45,0,.97.04,1.58.14.6.09,1.19.2,1.78.34s1.12.27,1.62.41c.5.14.86.25,1.1.34.06,0,.04.12-.04.36-.09.27-.31.68-.67,1.24-.36.56-.76,1.1-1.19,1.64-.44.54-.84,1.02-1.21,1.44-.38.42-.64.63-.79.63h-.27c-.15,0-.26-.03-.32-.09.03-.15.04-.34.04-.58,0-1.05-.47-1.87-1.42-2.48-.95-.6-2.32-.9-4.12-.9-.87,0-1.58.25-2.14.76-.56.51-.83,1.12-.83,1.85,0,1.17.33,2.04.99,2.61.66.57,1.49,1,2.47,1.28.99.29,2.05.5,3.2.65,1.14.15,2.21.38,3.2.7.99.31,1.81.79,2.47,1.42.66.63.99,1.57.99,2.83,0,.57-.12,1.12-.36,1.67-.24.54-.56,1.05-.95,1.53-.39.48-.83.92-1.3,1.33-.48.4-.96.76-1.44,1.06-.45.3-.96.61-1.53.92-.57.32-1.19.61-1.84.88-.66.27-1.34.49-2.03.65-.69.16-1.38.25-2.07.25-.33,0-.85-.07-1.57-.2-.72-.13-1.45-.29-2.18-.47-.74-.18-1.39-.35-1.96-.52-.57-.16-.87-.28-.9-.34Z"/>
        <path class="cls-2" d="M415.84,63.64c.18.12.27.27.27.45,0,.24-.35.56-1.04.95-.72.42-1.67.92-2.86,1.49-1.19.57-2.36,1.06-3.53,1.48-.57.21-1.08.39-1.53.54-.45.15-.86.23-1.21.23-.42,0-.94-.1-1.55-.29-.62-.2-1.15-.43-1.6-.7-.36-.24-.65-.43-.86-.56s-.31-.28-.31-.43c0-.12.04-.23.11-.34.07-.1.14-.23.2-.38.03-.09.06-.21.09-.36.03-.15.04-.3.04-.45.09-.75.19-1.84.29-3.26.11-1.42.19-3,.25-4.72.06-1.72.11-3.51.16-5.36.04-1.84.07-3.56.07-5.15,0-1.95,0-3.52-.02-4.72-.02-1.2-.05-2.16-.11-2.88-.09-.99-.21-1.64-.36-1.96-.15-.31-.31-.55-.5-.7-.21-.18-.41-.29-.61-.34s-.38-.07-.54-.09c-.17-.01-.3-.02-.4-.02s-.16-.03-.16-.09c0-.99.42-1.49,1.26-1.49.63,0,1.37,0,2.23.02.86.02,1.57.02,2.14.02.36,0,.74-.02,1.15-.07.41-.04.8-.09,1.19-.14.39-.04.75-.1,1.08-.16s.57-.12.72-.18c.12-.03.22.02.29.13.07.12.12.27.13.45.02.18-.01.35-.09.5s-.17.24-.29.27c-.18.03-.34.04-.47.04s-.37.06-.7.18c-.15.06-.29.25-.41.56-.12.32-.22.81-.32,1.49-.09.67-.18,1.56-.27,2.66s-.18,2.47-.27,4.12c-.09,1.32-.16,2.66-.2,4.03s-.09,2.69-.13,3.98c-.04,1.29-.08,2.49-.09,3.6-.02,1.11-.02,2.06-.02,2.84,0,.87,0,1.75.02,2.63.01.88.1,1.58.25,2.09.15.48.54.93,1.17,1.35.63.42,1.29.63,1.98.63.54,0,1.09-.07,1.67-.22.57-.15,1.09-.33,1.57-.54.48-.21.91-.42,1.28-.63.37-.21.65-.37.83-.5Z"/>
        <path class="cls-2" d="M426.5,54.24c-.18-.93-.39-1.76-.63-2.5-.24-.73-.54-1.35-.9-1.84-.36-.5-.79-.87-1.3-1.12-.51-.25-1.14-.38-1.89-.38-.66,0-1.27.12-1.82.36-.56.24-1.04.53-1.44.86-.4.33-.72.66-.94.99-.23.33-.35.58-.38.76-.03.24-.17.36-.41.36-.42,0-.81-.15-1.17-.45-.36-.3-.54-.66-.54-1.08,0-.24.03-.42.09-.54.69-.39,1.53-.81,2.52-1.26s2.02-.87,3.08-1.26c1.07-.39,2.12-.71,3.17-.97,1.05-.25,1.99-.38,2.83-.38,1.26,0,2.23.18,2.9.54.67.36,1.18.87,1.51,1.53.33.66.53,1.43.61,2.32.07.88.14,1.84.2,2.86.09,1.53.21,3.01.36,4.43.15,1.43.38,2.69.67,3.78.3,1.1.68,1.98,1.15,2.66.46.67,1.04,1.01,1.73,1.01.33,0,.69-.06,1.08-.18.39-.12.76-.26,1.12-.43.36-.16.68-.33.97-.49.28-.17.47-.28.56-.34.27,0,.43.13.5.4,0,.15-.03.29-.09.41-.06.06-.29.21-.67.45s-.87.53-1.44.86c-.57.33-1.2.68-1.89,1.06-.69.38-1.37.73-2.05,1.06s-1.3.6-1.87.81-1.02.32-1.35.32c-.39,0-.73-.16-1.01-.47-.29-.32-.53-.73-.74-1.26-.21-.53-.39-1.13-.54-1.82-.15-.69-.29-1.41-.41-2.16-.54.45-1.23.98-2.07,1.6-.84.62-1.76,1.19-2.75,1.73-.99.54-2,1-3.04,1.37-1.03.38-2.03.56-2.99.56-.81,0-1.51-.13-2.12-.38-.6-.25-1.1-.59-1.51-1.01-.41-.42-.71-.91-.9-1.46-.2-.55-.29-1.13-.29-1.73,0-.96.29-1.75.88-2.36s1.49-1.25,2.72-1.91c.57-.3,1.37-.7,2.38-1.19,1.02-.5,2.06-1,3.13-1.51,1.06-.51,2.05-1,2.97-1.46.92-.46,1.58-.83,2-1.1ZM427.81,61.21c-.09-.51-.18-1.06-.27-1.67-.09-.6-.18-1.17-.27-1.71s-.17-1-.25-1.39c-.08-.39-.13-.64-.16-.77-.48.18-1.02.39-1.62.63s-1.2.5-1.8.79c-.6.29-1.17.57-1.71.85-.54.29-.99.55-1.35.79-.69.45-1.21.9-1.58,1.35s-.54.99-.54,1.62c0,.87.25,1.64.76,2.29.51.66,1.31.99,2.39.99.57,0,1.16-.1,1.78-.31.61-.21,1.18-.45,1.71-.72.52-.27.98-.54,1.37-.81.39-.27.66-.48.81-.63.24-.24.43-.44.56-.61.14-.16.19-.4.16-.7Z"/>
        <path class="cls-2" d="M468.85,49.1c-.33.27-.72.61-1.17,1.01-.45.4-.92.79-1.42,1.17s-1,.7-1.51.97-1,.41-1.48.41c-.42,0-.8-.1-1.12-.29-.33-.2-.64-.41-.92-.63s-.56-.43-.83-.63c-.27-.19-.55-.29-.85-.29-.81,0-1.49.33-2.05.99s-1,1.5-1.35,2.52c-.35,1.02-.6,2.13-.76,3.33-.17,1.2-.25,2.36-.25,3.46,0,.93.04,1.69.11,2.27s.19,1.05.34,1.4c.15.34.35.58.61.7.25.12.56.18.92.18.39,0,.81-.06,1.26-.18.09-.03.16.03.2.18s.07.27.07.36c0,.06-.04.13-.13.2-.09.08-.15.11-.18.11-.66.27-1.33.56-2.03.88-.69.31-1.26.58-1.71.79-.42.18-.92.38-1.51.58-.58.21-1.09.32-1.51.32-.48,0-.88-.08-1.19-.22-.32-.15-.47-.3-.47-.45s.04-.28.11-.4c.07-.12.14-.34.2-.68.06-.45.13-.98.2-1.6.07-.61.15-1.28.22-2,.07-.72.13-1.46.18-2.23.05-.76.07-1.52.07-2.27,0-1.68-.05-3.11-.16-4.28s-.29-2.11-.56-2.83c-.27-.72-.64-1.24-1.1-1.55-.46-.32-1.06-.47-1.78-.47h-.41c-.12,0-.24.02-.36.04-.18,0-.27-.09-.27-.27s.09-.32.27-.41c.33-.21.84-.52,1.53-.92.69-.4,1.4-.79,2.14-1.17s1.45-.71,2.14-1.01c.69-.3,1.2-.45,1.53-.45.39,0,.72.13.99.38.27.26.47.58.61.97.13.39.23.83.29,1.33.06.5.09.98.09,1.46,0,.36,0,.74-.02,1.12-.01.39-.02.81-.02,1.26,1.35-1.98,2.57-3.52,3.65-4.61s2.1-1.64,3.06-1.64c.36,0,.71.15,1.06.45s.71.64,1.1,1.01c.39.38.79.71,1.21,1.01.42.3.86.45,1.31.45.39,0,.67-.04.85-.13s.33-.16.45-.22c.24,0,.36.16.36.49v.04Z"/>
        <path class="cls-2" d="M488.92,62.96c-.33.36-.84.85-1.53,1.49-.69.63-1.52,1.26-2.5,1.89s-2.06,1.17-3.26,1.62c-1.2.45-2.48.67-3.83.67-1.23,0-2.43-.19-3.6-.56-1.17-.37-2.22-.94-3.15-1.71-.93-.76-1.67-1.74-2.23-2.92-.56-1.18-.83-2.6-.83-4.25,0-1.35.09-2.51.27-3.49.18-.97.42-1.83.72-2.57.3-.73.64-1.36,1.01-1.89.38-.53.76-1,1.15-1.42.48-.54,1.06-1.05,1.75-1.53.69-.48,1.43-.92,2.23-1.31.79-.39,1.63-.7,2.52-.92.88-.22,1.78-.34,2.68-.34,1.62,0,2.89.27,3.8.81s1.37,1.29,1.37,2.25c0,.6-.18,1.16-.54,1.67.3-.09.68-.24,1.15-.45.46-.21.94-.43,1.42-.65.48-.22.91-.43,1.28-.61s.62-.31.74-.41c.06-.06.13-.08.2-.07.07.02.11.07.11.16,0,.39-.08.71-.22.97-.15.26-.33.46-.54.61-.48.3-1.17.68-2.07,1.12-.9.45-1.9.92-2.99,1.42-1.1.49-2.23.99-3.4,1.48-1.17.5-2.27.97-3.31,1.42-1.04.45-1.93.85-2.7,1.19-.76.34-1.28.59-1.55.74,0,1.02.2,1.97.61,2.86.4.88.97,1.66,1.69,2.32.72.66,1.58,1.18,2.59,1.55s2.11.56,3.31.56c1.08,0,2.05-.11,2.92-.34.87-.22,1.6-.48,2.21-.76.6-.28,1.07-.54,1.42-.76.34-.22.53-.34.56-.34.12,0,.24.05.36.16s.18.22.18.34ZM473.08,56.08c.51-.18,1.09-.4,1.73-.65.64-.25,1.27-.53,1.89-.83.61-.3,1.18-.58,1.69-.86.51-.27.9-.51,1.17-.72.54-.39.81-1.05.81-1.98,0-.36-.07-.73-.2-1.12-.13-.39-.34-.74-.61-1.06-.27-.32-.6-.57-.99-.76s-.83-.29-1.3-.29c-.42,0-.87.14-1.35.43-.48.29-.93.75-1.35,1.39-.42.65-.77,1.5-1.06,2.57-.29,1.07-.43,2.36-.43,3.89ZM484.15,38.4c0,.09-.37.4-1.1.92-.74.53-1.61,1.11-2.61,1.75-1.01.65-2.02,1.28-3.04,1.89-1.02.62-1.82,1.07-2.38,1.37-.09.06-.2.06-.32,0-.12-.06-.24-.14-.36-.25-.12-.1-.21-.2-.27-.29-.06-.09-.06-.17,0-.23.48-.39,1.13-.99,1.96-1.8.82-.81,1.66-1.64,2.5-2.5s1.58-1.61,2.23-2.27c.64-.66,1.01-1.04,1.1-1.12.09-.03.25.06.5.27.24.21.5.46.76.74.27.29.51.58.72.88.21.3.31.51.31.63Z"/>
        <path class="cls-2" d="M505.7,66.16c-.96.6-2.15,1.14-3.55,1.62-1.41.48-2.78.72-4.1.72-.42,0-.89-.03-1.42-.09-.53-.06-.95-.12-1.28-.18-.03.57-.05,1.15-.07,1.76-.01.6-.03,1.18-.04,1.73-.02.55-.03,1.07-.04,1.55-.02.48-.02.88-.02,1.21,0,1.53.13,2.56.38,3.1.25.54.65.81,1.19.81.27,0,.64-.04,1.1-.11.46-.08.88-.2,1.24-.38.06-.06.13,0,.2.18s.11.34.11.5c0,.03-.21.11-.63.25-.42.13-.95.3-1.6.5-.65.19-1.34.41-2.09.63s-1.47.44-2.16.63c-.69.19-1.28.35-1.78.47-.5.12-.8.18-.92.18-.18,0-.34-.02-.5-.04-.15-.03-.22-.17-.22-.41,0-.15.05-.25.16-.29.11-.05.19-.11.25-.2.15-.18.24-.52.27-1.01s.08-.98.14-1.46c.09-1.17.19-2.56.29-4.16.1-1.6.2-3.28.29-5.04.09-1.75.17-3.51.25-5.26.07-1.75.11-3.35.11-4.79,0-2.04-.08-3.64-.25-4.79-.17-1.15-.4-2.01-.7-2.57-.3-.55-.64-.9-1.01-1.03-.38-.14-.77-.2-1.19-.2-.09,0-.22,0-.38.02-.17.02-.32.02-.47.02-.12,0-.18-.1-.18-.31,0-.15,0-.25.02-.29.02-.04.08-.1.2-.16.15-.09.43-.24.83-.45.4-.21.87-.44,1.39-.7.52-.25,1.09-.53,1.69-.81.6-.29,1.16-.54,1.69-.76.52-.23.98-.41,1.37-.56.39-.15.66-.23.81-.23.45,0,.76.2.92.59.16.39.26.92.29,1.57,0,.27,0,.7-.02,1.28-.02.58-.04,1.25-.07,2,.39-.42.92-.94,1.6-1.55.67-.61,1.44-1.21,2.29-1.78.85-.57,1.75-1.06,2.7-1.46.94-.4,1.87-.61,2.77-.61,1.29,0,2.44.23,3.44.7,1,.47,1.84,1.08,2.5,1.84s1.16,1.64,1.51,2.61c.34.98.52,1.97.52,2.99,0,1.44-.22,2.77-.65,3.98-.44,1.22-.97,2.29-1.6,3.24-.63.94-1.32,1.76-2.07,2.45-.75.69-1.44,1.23-2.07,1.62l-1.44.95ZM495.58,62.69c.09.33.33.67.72,1.01.39.34.89.66,1.51.94.61.29,1.32.53,2.12.72.79.2,1.64.29,2.54.29.81,0,1.58-.16,2.32-.47s1.37-.81,1.91-1.48c.54-.68.97-1.55,1.28-2.63.31-1.08.47-2.38.47-3.92,0-1.08-.15-2.1-.45-3.06-.3-.96-.74-1.8-1.3-2.52-.57-.72-1.25-1.28-2.03-1.69s-1.64-.61-2.57-.61c-.48,0-1.01.11-1.6.32-.58.21-1.15.49-1.69.85s-1.04.78-1.51,1.26c-.47.48-.8.99-1.01,1.53-.15.36-.28.92-.38,1.69-.11.76-.18,1.61-.22,2.52-.04.92-.08,1.84-.09,2.77-.02.93-.02,1.76-.02,2.47Z"/>
        <path class="cls-2" d="M533.38,64.63c-.33.27-.78.63-1.35,1.08-.57.45-1.23.9-1.98,1.35-.75.45-1.57.83-2.47,1.15-.9.31-1.84.47-2.83.47-1.5,0-2.83-.26-4-.79s-2.15-1.23-2.95-2.12c-.8-.88-1.4-1.93-1.8-3.13-.4-1.2-.61-2.47-.61-3.82,0-1.59.24-3,.72-4.23.48-1.23,1.07-2.3,1.78-3.22.7-.92,1.46-1.68,2.27-2.29.81-.62,1.54-1.1,2.21-1.46.3-.18.68-.38,1.15-.58.46-.21.97-.41,1.53-.58.56-.18,1.16-.34,1.8-.47.64-.13,1.31-.2,2-.2,1.29,0,2.54.17,3.76.5s2.29.85,3.22,1.55c.93.71,1.68,1.61,2.25,2.72.57,1.11.85,2.45.85,4,0,1.26-.23,2.45-.7,3.55-.47,1.11-1.01,2.1-1.64,2.97s-1.25,1.61-1.87,2.23c-.62.62-1.06,1.06-1.33,1.33ZM528.29,65.35c1.71,0,3.02-.65,3.94-1.94.92-1.29,1.37-3.27,1.37-5.94,0-1.35-.19-2.6-.56-3.76-.38-1.15-.9-2.17-1.58-3.04-.67-.87-1.46-1.55-2.36-2.05-.9-.49-1.88-.74-2.92-.74-.75,0-1.46.2-2.14.59-.67.39-1.27.95-1.78,1.69-.51.73-.92,1.63-1.22,2.68-.3,1.05-.45,2.24-.45,3.56,0,1.41.22,2.67.65,3.78.43,1.11,1.01,2.05,1.73,2.81.72.77,1.54,1.35,2.45,1.76.92.4,1.87.61,2.86.61Z"/>
        <path class="cls-2" d="M548.63,56.35c-.03.27-.06.51-.09.72-.03.21-.05.45-.07.72-.02.27-.03.61-.04,1.01-.02.41-.02.94-.02,1.6,0,1.08.04,1.97.11,2.66.08.69.19,1.24.34,1.64.15.41.34.68.56.83.22.15.5.22.83.22.21,0,.43-.03.68-.09.06,0,.11.08.16.25.04.16.04.28-.02.34-.18.15-.53.37-1.06.65-.53.29-1.12.56-1.78.83-.66.27-1.34.51-2.05.72s-1.3.32-1.78.32c-.42,0-.75-.05-.99-.16s-.36-.23-.36-.38.01-.24.04-.27.07-.11.13-.22c.06-.15.1-.34.13-.56.03-.23.07-.49.13-.79.06-.42.12-.95.18-1.6.06-.65.12-1.35.18-2.12.06-.77.11-1.56.16-2.38.04-.83.07-1.63.07-2.41,0-.33,0-.74-.02-1.24-.02-.5-.04-1.13-.07-1.91-.03-.87-.13-1.61-.29-2.23-.17-.62-.38-1.11-.63-1.49-.26-.38-.54-.65-.86-.83s-.62-.27-.92-.27h-.45c-.15,0-.3.02-.45.04-.12,0-.18-.13-.18-.4,0-.06.02-.11.07-.16s.19-.14.43-.29c.39-.27.92-.6,1.58-.99.66-.39,1.33-.75,2.03-1.08.69-.33,1.34-.61,1.96-.85s1.09-.36,1.42-.36c.87,0,1.3.5,1.3,1.49,0,.15-.02.42-.04.81-.03.39-.05.79-.07,1.19-.02.4-.04.79-.07,1.15-.03.36-.04.6-.04.72.63-.6,1.3-1.21,2.02-1.84.72-.63,1.5-1.21,2.34-1.73s1.73-.95,2.66-1.28,1.89-.5,2.88-.5c1.8,0,3.28.52,4.43,1.55,1.15,1.04,1.73,2.68,1.73,4.93,0,.6-.04,1.3-.11,2.12-.08.81-.16,1.65-.25,2.52-.09.87-.17,1.73-.25,2.57-.08.84-.11,1.59-.11,2.25,0,2.4.78,3.6,2.34,3.6.3,0,.64-.05,1.01-.16.38-.1.73-.22,1.08-.36.34-.14.65-.27.92-.41.27-.13.45-.25.54-.34.03-.03.07,0,.11.07.04.08.08.17.11.29.03.12.04.22.02.31-.02.09-.04.15-.07.18-.24.15-.76.44-1.55.86s-1.68.85-2.66,1.28c-.97.43-1.94.82-2.9,1.17-.96.34-1.73.52-2.29.52-.69,0-1.16-.17-1.42-.5-.26-.33-.38-.67-.38-1.04,0-.24.04-.54.11-.9.07-.36.17-.94.29-1.75.12-.87.23-1.89.34-3.06.1-1.17.16-2.43.16-3.78,0-2.64-.49-4.64-1.46-6.01-.98-1.37-2.2-2.05-3.67-2.05-.93,0-1.75.18-2.47.54-.72.36-1.33.85-1.84,1.46-.51.62-.92,1.32-1.22,2.12s-.49,1.64-.58,2.54Z"/>
        <path class="cls-2" d="M569.65,67.1c-.24.15-.47.4-.67.74-.21.34-.35.61-.41.79-.03.06-.11.11-.25.16-.13.04-.23.07-.29.07-.27,0-.41-.13-.41-.41,0-.09.12-.33.36-.72.18-.3.46-.77.85-1.42.39-.64.79-1.3,1.19-1.98.41-.67.78-1.29,1.12-1.84.34-.56.59-.92.74-1.1.15-.15.33-.17.54-.07.21.11.27.23.18.38-.06.06-.11.13-.13.23-.03.09-.04.24-.04.45,0,.27.23.61.7,1.01.46.41,1.06.79,1.78,1.17.72.38,1.51.7,2.38.97.87.27,1.73.4,2.57.4.99,0,1.78-.28,2.36-.85.58-.57.88-1.32.88-2.25,0-1.05-.33-1.83-.99-2.34-.66-.51-1.48-.9-2.45-1.17-.98-.27-2.04-.49-3.2-.65-1.16-.16-2.22-.41-3.2-.74s-1.79-.81-2.45-1.44c-.66-.63-.99-1.54-.99-2.75,0-.93.32-1.87.97-2.83.64-.96,1.5-1.81,2.56-2.57,1.06-.75,2.29-1.36,3.67-1.84,1.38-.48,2.82-.72,4.32-.72.45,0,.97.04,1.57.14.6.09,1.19.2,1.78.34s1.12.27,1.62.41c.5.14.86.25,1.1.34.06,0,.04.12-.04.36-.09.27-.31.68-.67,1.24-.36.56-.76,1.1-1.19,1.64-.44.54-.84,1.02-1.21,1.44-.38.42-.64.63-.79.63h-.27c-.15,0-.25-.03-.32-.09.03-.15.04-.34.04-.58,0-1.05-.47-1.87-1.42-2.48-.95-.6-2.32-.9-4.12-.9-.87,0-1.58.25-2.14.76-.56.51-.83,1.12-.83,1.85,0,1.17.33,2.04.99,2.61.66.57,1.49,1,2.48,1.28.99.29,2.05.5,3.19.65,1.14.15,2.21.38,3.2.7s1.81.79,2.47,1.42c.66.63.99,1.57.99,2.83,0,.57-.12,1.12-.36,1.67-.24.54-.55,1.05-.94,1.53-.39.48-.83.92-1.31,1.33-.48.4-.96.76-1.44,1.06-.45.3-.96.61-1.53.92-.57.32-1.19.61-1.84.88-.66.27-1.33.49-2.03.65s-1.38.25-2.07.25c-.33,0-.86-.07-1.58-.2-.72-.13-1.45-.29-2.18-.47-.74-.18-1.39-.35-1.96-.52-.57-.16-.87-.28-.9-.34Z"/>
        <path class="cls-2" d="M611.27,62.96c-.33.36-.84.85-1.53,1.49-.69.63-1.52,1.26-2.5,1.89s-2.06,1.17-3.26,1.62c-1.2.45-2.48.67-3.83.67-1.23,0-2.43-.19-3.6-.56-1.17-.37-2.22-.94-3.15-1.71-.93-.76-1.67-1.74-2.23-2.92-.56-1.18-.83-2.6-.83-4.25,0-1.35.09-2.51.27-3.49.18-.97.42-1.83.72-2.57.3-.73.64-1.36,1.01-1.89.38-.53.76-1,1.15-1.42.48-.54,1.06-1.05,1.75-1.53.69-.48,1.43-.92,2.23-1.31.79-.39,1.63-.7,2.52-.92s1.78-.34,2.68-.34c1.62,0,2.89.27,3.8.81s1.37,1.29,1.37,2.25c0,.6-.18,1.16-.54,1.67.3-.09.68-.24,1.15-.45.46-.21.94-.43,1.42-.65.48-.22.91-.43,1.28-.61s.62-.31.74-.41c.06-.06.13-.08.2-.07.07.02.11.07.11.16,0,.39-.08.71-.22.97-.15.26-.33.46-.54.61-.48.3-1.17.68-2.07,1.12-.9.45-1.9.92-2.99,1.42-1.1.49-2.23.99-3.4,1.48-1.17.5-2.27.97-3.31,1.42-1.04.45-1.94.85-2.7,1.19s-1.28.59-1.55.74c0,1.02.2,1.97.61,2.86.41.88.97,1.66,1.69,2.32.72.66,1.58,1.18,2.59,1.55,1,.38,2.11.56,3.31.56,1.08,0,2.05-.11,2.92-.34.87-.22,1.6-.48,2.21-.76.6-.28,1.07-.54,1.42-.76.34-.22.53-.34.56-.34.12,0,.24.05.36.16s.18.22.18.34ZM595.43,56.08c.51-.18,1.09-.4,1.73-.65.65-.25,1.28-.53,1.89-.83.61-.3,1.18-.58,1.69-.86.51-.27.9-.51,1.17-.72.54-.39.81-1.05.81-1.98,0-.36-.07-.73-.2-1.12-.13-.39-.34-.74-.61-1.06-.27-.32-.6-.57-.99-.76s-.83-.29-1.3-.29c-.42,0-.87.14-1.35.43s-.93.75-1.35,1.39c-.42.65-.77,1.5-1.06,2.57-.29,1.07-.43,2.36-.43,3.89Z"/>
        <path class="cls-2" d="M637.73,42.81c-.03,1.08-.32,2.08-.88,2.99-.56.92-1.24,1.79-2.05,2.61-.81.83-1.69,1.61-2.63,2.36-.94.75-1.82,1.5-2.63,2.25-.81.75-1.49,1.51-2.03,2.27-.54.77-.83,1.57-.85,2.41,0,.3.1.59.29.88s.43.54.72.77.58.4.9.52c.32.12.58.18.79.18.18,0,.28.1.29.29.01.2-.05.32-.2.38-.12.06-.32.18-.61.36s-.6.35-.94.52c-.35.17-.69.3-1.04.4-.35.11-.62.13-.83.07-.15-.03-.41-.11-.79-.25s-.75-.31-1.12-.54-.71-.5-1.01-.83c-.3-.33-.45-.7-.45-1.12s.22-.93.65-1.53c.43-.6.99-1.26,1.67-1.98.67-.72,1.39-1.51,2.16-2.36.77-.85,1.49-1.75,2.16-2.68s1.23-1.91,1.67-2.93c.43-1.02.65-2.05.65-3.11,0-1.62-.41-2.73-1.24-3.33s-1.84-.9-3.04-.9c-.6,0-1.22.12-1.87.36-.64.24-1.21.55-1.71.92-.49.38-.88.79-1.17,1.24-.29.45-.37.87-.25,1.26.06.18.04.31-.07.4-.11.09-.23.11-.38.04-.42-.24-.76-.57-1.01-.99-.25-.42-.38-.83-.38-1.21,0-.18.18-.44.54-.79.36-.34.82-.73,1.37-1.15.55-.42,1.19-.85,1.91-1.28.72-.43,1.46-.82,2.21-1.17.75-.34,1.48-.63,2.18-.86.71-.22,1.34-.34,1.91-.34,2.1,0,3.81.44,5.13,1.33,1.32.88,1.98,2.39,1.98,4.52ZM626.48,64.4c.12,0,.32.11.61.31.29.21.58.45.9.72.32.27.59.55.83.83s.38.49.41.61c0,.12-.12.33-.36.63-.24.3-.51.6-.81.9s-.61.57-.92.81c-.31.24-.53.38-.65.41-.09,0-.29-.11-.58-.32s-.62-.46-.97-.74c-.35-.29-.66-.56-.95-.83-.29-.27-.43-.45-.43-.54-.03-.15.09-.37.36-.67.27-.3.58-.6.94-.9.36-.3.7-.57,1.01-.81.32-.24.52-.38.61-.4Z"/>
      </g>
    </g>
  </g>
</svg>