<?xml version="1.0" encoding="UTF-8"?>
<svg id="Calque_2" data-name="Calque 2" xmlns="http://www.w3.org/2000/svg" viewBox="0 0 204.14 77.87">
  <defs>
    <style>
      .cls-1 {
        fill: #554596;
      }
    </style>
  </defs>
  <g id="FORMES">
    <g>
      <path class="cls-1" d="M5.14,30.43c-1.89,0-3.78.83-4.53,2.57l-.6-.53c.91-4.38,3.93-7.02,7.4-7.02.3,0,.68.08.98.08-.15-.6-.68-3.17-.68-4,0-3.47,2.87-5.29,5.74-6.8l2.19-1.13.6.98c-1.13,1.13-1.13,2.72-1.13,4.15,0,1.36.23,3.55.53,4.68l1.81,7.85c.3,1.36.6,2.42.6,4.15,0,3.55-3.1,5.59-5.89,8.16l-1.74,1.59-.98-.83c1.59-2.72,1.81-3.78,1.81-5.97,0-4.61-2.19-7.93-6.12-7.93M27.79,55.13c-3.25-.76-14.42-3.85-16.99-3.85-1.43,0-2.72,1.06-3.77,2.04l-.98.91-1.06-1.06,2.42-2.72c2.42-2.72,5.74-5.89,9.74-5.89,2.04,0,4.38.3,4.68.38V9.14c-3.1.08-6.19,1.36-9.51,1.36S6.49,5.29,5.51.3l.91-.3c.98,1.66,1.66,2.49,4.61,2.49,3.63,0,7.25-1.74,11.55-1.74,19.18,0,26.43,11.18,26.43,24.01,0,11.03-4.15,17.9-11.7,23.41l-9.51,6.95ZM40.02,18.2c-2.27-5.59-7.4-9.06-16.92-9.06v19.63c2.79-3.25,10.87-8.08,16.92-10.57M41.84,26.51c-.08-1.89-.91-5.44-1.43-7.17-6.04,2.57-14.2,7.48-17.29,11.02v6.49c3.25-2.94,12.61-8.16,18.73-10.35M41.91,27.94c-5.89,2.19-15.18,7.25-18.8,10.5v6.72c2.64.68,8.83,2.11,11.48,3.02,5.51-3.55,7.33-9.52,7.33-20.24"/>
      <path class="cls-1" d="M5.14,30.43c-1.89,0-3.78.83-4.53,2.57l-.6-.53c.91-4.38,3.93-7.02,7.4-7.02.3,0,.68.08.98.08-.15-.6-.68-3.17-.68-4,0-3.47,2.87-5.29,5.74-6.8l2.19-1.13.6.98c-1.13,1.13-1.13,2.72-1.13,4.15,0,1.36.23,3.55.53,4.68l1.81,7.85c.3,1.36.6,2.42.6,4.15,0,3.55-3.1,5.59-5.89,8.16l-1.74,1.59-.98-.83c1.59-2.72,1.81-3.78,1.81-5.97,0-4.61-2.19-7.93-6.12-7.93ZM27.79,55.13c-3.25-.76-14.42-3.85-16.99-3.85-1.43,0-2.72,1.06-3.77,2.04l-.98.91-1.06-1.06,2.42-2.72c2.42-2.72,5.74-5.89,9.74-5.89,2.04,0,4.38.3,4.68.38V9.14c-3.1.08-6.19,1.36-9.51,1.36S6.49,5.29,5.51.3l.91-.3c.98,1.66,1.66,2.49,4.61,2.49,3.63,0,7.25-1.74,11.55-1.74,19.18,0,26.43,11.18,26.43,24.01,0,11.03-4.15,17.9-11.7,23.41l-9.51,6.95ZM40.02,18.2c-2.27-5.59-7.4-9.06-16.92-9.06v19.63c2.79-3.25,10.87-8.08,16.92-10.57ZM41.84,26.51c-.08-1.89-.91-5.44-1.43-7.17-6.04,2.57-14.2,7.48-17.29,11.02v6.49c3.25-2.94,12.61-8.16,18.73-10.35ZM41.91,27.94c-5.89,2.19-15.18,7.25-18.8,10.5v6.72c2.64.68,8.83,2.11,11.48,3.02,5.51-3.55,7.33-9.52,7.33-20.24Z"/>
      <path class="cls-1" d="M66.88,16.89l-8.01,6.69v4.19c.96.41,2.46.96,3.69,1.96l2.87-1.82.5.59-5.87,4.23c-2.09-1.23-4.83-2.28-7.19-3.05v-.64c1.18-.46,1.64-1.91,1.64-2.91v-8.65c0-1.23-.82-1.96-1.78-2.09v-.82c3.46-1.32,6.06-2.91,8.56-4.6l5.6,6.92ZM57.59,8.65l-.41-.59,6.56-7.06.82.18.23,4.33-7.19,3.14ZM58.87,22.68l4.1-3.51-4.51-6.15-.64.32c.64,1.18,1.05,2.46,1.05,3.92v5.42Z"/>
      <path class="cls-1" d="M66.88,16.89l-8.01,6.69v4.19c.96.41,2.46.96,3.69,1.96l2.87-1.82.5.59-5.87,4.23c-2.09-1.23-4.83-2.28-7.19-3.05v-.64c1.18-.46,1.64-1.91,1.64-2.91v-8.65c0-1.23-.82-1.96-1.78-2.09v-.82c3.46-1.32,6.06-2.91,8.56-4.6l5.6,6.92ZM57.59,8.65l-.41-.59,6.56-7.06.82.18.23,4.33-7.19,3.14ZM58.87,22.68l4.1-3.51-4.51-6.15-.64.32c.64,1.18,1.05,2.46,1.05,3.92v5.42Z"/>
      <path class="cls-1" d="M73.37,9.7c.86.96,2.87,1.55,4.69,1.55.91,0,1.78-.14,2.46-.46l.32.55-5.74,7.06c2.87,1.14,5.28,3.82,5.28,6.65,0,6.01-9.29,8.29-9.29,12.29,0,.91.91,1.78,1.91,1.78.91,0,1.87-.59,2.69-2.05.5,0,1.18.59,1.18,1.27,0,1.23-3.14,1.68-3.55,1.68-1.87,0-3.05-1.05-3.05-2.6,0-4.01,5.74-6.37,5.74-11.47,0-2.05-2.23-4.24-3.41-4.24-.5,0-.91.59-1.23,1.05l-.64-.41,6.15-7.33c-.23,0-.5.05-.73.05-1.78,0-3.78-.45-5.24-1.55l-1.87,1.64-.46-.73,4.78-4.74Z"/>
      <path class="cls-1" d="M73.37,9.7c.86.96,2.87,1.55,4.69,1.55.91,0,1.78-.14,2.46-.46l.32.55-5.74,7.06c2.87,1.14,5.28,3.82,5.28,6.65,0,6.01-9.29,8.29-9.29,12.29,0,.91.91,1.78,1.91,1.78.91,0,1.87-.59,2.69-2.05.5,0,1.18.59,1.18,1.27,0,1.23-3.14,1.68-3.55,1.68-1.87,0-3.05-1.05-3.05-2.6,0-4.01,5.74-6.37,5.74-11.47,0-2.05-2.23-4.24-3.41-4.24-.5,0-.91.59-1.23,1.05l-.64-.41,6.15-7.33c-.23,0-.5.05-.73.05-1.78,0-3.78-.45-5.24-1.55l-1.87,1.64-.46-.73,4.78-4.74Z"/>
      <path class="cls-1" d="M89.55,9.97c1.59,1.18,3.42,1.82,6.19,2.32,1.46-.68,2.14-1.37,2.82-2.05l.55.36c-1.09,1.37-2.41,3.1-2.41,5.69v9.65c0,2.28.55,3.19,1.41,3.6l1.55-1.05.36.68-4.6,3.55c-1.37-.55-3.1-2.6-3.1-4.19l-4.46,4.19c-2.09-.82-4.37-2.37-4.37-6.01s2.41-5.51,4.69-7.01c-1.87-2-2.96-4.37-3.55-7.15,2.73-.59,4.01-1.55,4.92-2.6M92.33,20.99v-5.28c-2.41-.68-4.87-1.41-6.74-2.46.87,3.87,3.23,6.97,6.74,7.74M92.33,21.86c-1.68-.27-2.41-.77-3.64-1.68-.59,1.27-.82,2.64-.82,3.96,0,3.19.82,4.74,2.19,5.55l2.28-2.14v-5.69Z"/>
      <path class="cls-1" d="M89.55,9.97c1.59,1.18,3.42,1.82,6.19,2.32,1.46-.68,2.14-1.37,2.82-2.05l.55.36c-1.09,1.37-2.41,3.1-2.41,5.69v9.65c0,2.28.55,3.19,1.41,3.6l1.55-1.05.36.68-4.6,3.55c-1.37-.55-3.1-2.6-3.1-4.19l-4.46,4.19c-2.09-.82-4.37-2.37-4.37-6.01s2.41-5.51,4.69-7.01c-1.87-2-2.96-4.37-3.55-7.15,2.73-.59,4.01-1.55,4.92-2.6ZM92.33,20.99v-5.28c-2.41-.68-4.87-1.41-6.74-2.46.87,3.87,3.23,6.97,6.74,7.74ZM92.33,21.86c-1.68-.27-2.41-.77-3.64-1.68-.59,1.27-.82,2.64-.82,3.96,0,3.19.82,4.74,2.19,5.55l2.28-2.14v-5.69Z"/>
      <path class="cls-1" d="M108.93,28.64c.41.18.73.32,1.5.91l1.05-.73.36.68-4.14,3.23c-2.37-1.41-3.23-2.19-4.64-2.5v-.77c1.05-.32,1.5-1.73,1.5-2.69v-10.75c0-1.41-.82-2.78-2.28-2.09l-.27-.59,3.46-3.42c2.46.64,3.14,2.32,3.37,4.01l3.73-3.96c1.41,1.73,1.96,2.78,3.37,2.46l.23.59-2.28,3.05c-1.46-.05-2.91-.77-3.78-2.32l-1.18,1.27v13.62Z"/>
      <path class="cls-1" d="M108.93,28.64c.41.18.73.32,1.5.91l1.05-.73.36.68-4.14,3.23c-2.37-1.41-3.23-2.19-4.64-2.5v-.77c1.05-.32,1.5-1.73,1.5-2.69v-10.75c0-1.41-.82-2.78-2.28-2.09l-.27-.59,3.46-3.42c2.46.64,3.14,2.32,3.37,4.01l3.73-3.96c1.41,1.73,1.96,2.78,3.37,2.46l.23.59-2.28,3.05c-1.46-.05-2.91-.77-3.78-2.32l-1.18,1.27v13.62Z"/>
      <path class="cls-1" d="M121.47,13.61h-2.55v-.73c1.87-.73,4.78-3.46,6.56-6.33l1.18-1.91.59.36-.32.59c-.86,1.64-1.18,2.82-1.18,4.78v.5h4.14l-.96,2.73h-3.1v14.57c1,.5,1.64.77,2.41,1.37l1.05-.73.36.68-4.14,3.23c-2.37-1.41-4.14-2.19-5.56-2.5v-.77c1.05-.32,1.5-1.73,1.5-2.69v-13.16Z"/>
      <path class="cls-1" d="M121.47,13.61h-2.55v-.73c1.87-.73,4.78-3.46,6.56-6.33l1.18-1.91.59.36-.32.59c-.86,1.64-1.18,2.82-1.18,4.78v.5h4.14l-.96,2.73h-3.1v14.57c1,.5,1.64.77,2.41,1.37l1.05-.73.36.68-4.14,3.23c-2.37-1.41-4.14-2.19-5.56-2.5v-.77c1.05-.32,1.5-1.73,1.5-2.69v-13.16Z"/>
      <path class="cls-1" d="M134.15,13.3c2.87-.77,5.42-1.91,7.42-3.42.73.64,2.5,2.05,4.1,2.05,1.32,0,1.87-1.46,1.82-2.64l.64.09c0,1.64-.73,2.73-1.82,4.05l-3.96,4.92c1.5,1.09,3.46,1.91,5.46,1.91l.09.64c-.96.82-1.18,1.14-1.18,1.59v6.51c-2.41.68-4.96,2-7.38,4.14-.87-1.14-3.28-2.91-5.19-2.91s-2.87,1.5-2.19,2.87l-.64.32c-1.14-2.28,1.41-3.83,2.69-5.55l3.01-4.01c-1.32-.64-2.73-1.46-4.23-1.87v-.64c.46-.14,1.37-.46,1.37-1.14v-6.92ZM142.34,22.72c-1-.23-1.87-.68-2.64-1.23l-4.92,6.6c2.6-.77,5.78-.32,7.56,1.78v-7.15ZM143.98,15.16c-2.5.09-4.14-.64-5.46-2.6v7.79l.82.5,4.64-5.69Z"/>
      <path class="cls-1" d="M134.15,13.3c2.87-.77,5.42-1.91,7.42-3.42.73.64,2.5,2.05,4.1,2.05,1.32,0,1.87-1.46,1.82-2.64l.64.09c0,1.64-.73,2.73-1.82,4.05l-3.96,4.92c1.5,1.09,3.46,1.91,5.46,1.91l.09.64c-.96.82-1.18,1.14-1.18,1.59v6.51c-2.41.68-4.96,2-7.38,4.14-.87-1.14-3.28-2.91-5.19-2.91s-2.87,1.5-2.19,2.87l-.64.32c-1.14-2.28,1.41-3.83,2.69-5.55l3.01-4.01c-1.32-.64-2.73-1.46-4.23-1.87v-.64c.46-.14,1.37-.46,1.37-1.14v-6.92ZM142.34,22.72c-1-.23-1.87-.68-2.64-1.23l-4.92,6.6c2.6-.77,5.78-.32,7.56,1.78v-7.15ZM143.98,15.16c-2.5.09-4.14-.64-5.46-2.6v7.79l.82.5,4.64-5.69Z"/>
      <path class="cls-1" d="M37.57,68.19l-4.55,3.8v2.38c.54.23,1.4.54,2.09,1.11l1.63-1.03.29.34-3.33,2.4c-1.19-.7-2.74-1.29-4.08-1.73v-.36c.67-.26.93-1.08.93-1.65v-4.91c0-.7-.47-1.11-1.01-1.19v-.47c1.96-.75,3.44-1.65,4.86-2.61l3.18,3.93ZM33.02,71.47l2.32-1.99-2.56-3.49-.36.18c.36.67.59,1.4.59,2.22v3.07Z"/>
      <path class="cls-1" d="M37.57,68.19l-4.55,3.8v2.38c.54.23,1.4.54,2.09,1.11l1.63-1.03.29.34-3.33,2.4c-1.19-.7-2.74-1.29-4.08-1.73v-.36c.67-.26.93-1.08.93-1.65v-4.91c0-.7-.47-1.11-1.01-1.19v-.47c1.96-.75,3.44-1.65,4.86-2.61l3.18,3.93ZM33.02,71.47l2.32-1.99-2.56-3.49-.36.18c.36.67.59,1.4.59,2.22v3.07Z"/>
      <path class="cls-1" d="M40.62,66.33h-1.45v-.41c1.06-.41,2.71-1.96,3.72-3.59l.67-1.09.34.21-.18.34c-.49.93-.67,1.6-.67,2.71v.28h2.35l-.54,1.55h-1.76v8.27c.57.28.93.44,1.37.77l.59-.41.21.39-2.35,1.83c-1.34-.8-2.35-1.24-3.15-1.42v-.44c.59-.18.85-.98.85-1.52v-7.47Z"/>
      <path class="cls-1" d="M40.62,66.33h-1.45v-.41c1.06-.41,2.71-1.96,3.72-3.59l.67-1.09.34.21-.18.34c-.49.93-.67,1.6-.67,2.71v.28h2.35l-.54,1.55h-1.76v8.27c.57.28.93.44,1.37.77l.59-.41.21.39-2.35,1.83c-1.34-.8-2.35-1.24-3.15-1.42v-.44c.59-.18.85-.98.85-1.52v-7.47Z"/>
      <path class="cls-1" d="M56.2,62.8c-1.14,0-2.28.5-2.73,1.55l-.36-.32c.55-2.64,2.37-4.24,4.46-4.24.18,0,.41.05.59.05-.09-.36-.41-1.91-.41-2.41,0-2.09,1.73-3.19,3.46-4.1l1.32-.68.36.59c-.68.68-.68,1.64-.68,2.5,0,.82.14,2.14.32,2.82l1.09,4.74c.18.82.36,1.46.36,2.5,0,2.14-1.87,3.37-3.55,4.92l-1.05.96-.59-.5c.96-1.64,1.09-2.28,1.09-3.6,0-2.78-1.32-4.78-3.69-4.78M69.86,77.68c-1.96-.46-8.7-2.32-10.25-2.32-.86,0-1.64.64-2.28,1.23l-.59.55-.64-.64,1.46-1.64c1.46-1.64,3.46-3.55,5.87-3.55,1.23,0,2.64.18,2.82.23v-21.58c-1.87.05-3.73.82-5.74.82s-3.51-3.14-4.1-6.15l.55-.18c.59,1,1,1.5,2.78,1.5,2.19,0,4.37-1.05,6.97-1.05,11.57,0,15.94,6.74,15.94,14.48,0,6.65-2.5,10.79-7.06,14.12l-5.74,4.19ZM77.24,55.42c-1.37-3.37-4.46-5.46-10.2-5.46v11.84c1.69-1.96,6.56-4.87,10.2-6.37M78.33,60.43c-.05-1.14-.55-3.28-.86-4.33-3.64,1.55-8.56,4.51-10.43,6.65v3.92c1.96-1.78,7.6-4.92,11.29-6.24M78.38,61.29c-3.55,1.32-9.15,4.37-11.34,6.33v4.05c1.59.41,5.33,1.27,6.92,1.82,3.32-2.14,4.42-5.74,4.42-12.2"/>
      <path class="cls-1" d="M56.2,62.8c-1.14,0-2.28.5-2.73,1.55l-.36-.32c.55-2.64,2.37-4.24,4.46-4.24.18,0,.41.05.59.05-.09-.36-.41-1.91-.41-2.41,0-2.09,1.73-3.19,3.46-4.1l1.32-.68.36.59c-.68.68-.68,1.64-.68,2.5,0,.82.14,2.14.32,2.82l1.09,4.74c.18.82.36,1.46.36,2.5,0,2.14-1.87,3.37-3.55,4.92l-1.05.96-.59-.5c.96-1.64,1.09-2.28,1.09-3.6,0-2.78-1.32-4.78-3.69-4.78ZM69.86,77.68c-1.96-.46-8.7-2.32-10.25-2.32-.86,0-1.64.64-2.28,1.23l-.59.55-.64-.64,1.46-1.64c1.46-1.64,3.46-3.55,5.87-3.55,1.23,0,2.64.18,2.82.23v-21.58c-1.87.05-3.73.82-5.74.82s-3.51-3.14-4.1-6.15l.55-.18c.59,1,1,1.5,2.78,1.5,2.19,0,4.37-1.05,6.97-1.05,11.57,0,15.94,6.74,15.94,14.48,0,6.65-2.5,10.79-7.06,14.12l-5.74,4.19ZM77.24,55.42c-1.37-3.37-4.46-5.46-10.2-5.46v11.84c1.69-1.96,6.56-4.87,10.2-6.37ZM78.33,60.43c-.05-1.14-.55-3.28-.86-4.33-3.64,1.55-8.56,4.51-10.43,6.65v3.92c1.96-1.78,7.6-4.92,11.29-6.24ZM78.38,61.29c-3.55,1.32-9.15,4.37-11.34,6.33v4.05c1.59.41,5.33,1.27,6.92,1.82,3.32-2.14,4.42-5.74,4.42-12.2Z"/>
      <path class="cls-1" d="M99.84,61.34l-8.01,6.69v4.19c.96.41,2.46.96,3.69,1.96l2.87-1.82.5.59-5.87,4.23c-2.09-1.23-4.83-2.28-7.2-3.05v-.64c1.18-.46,1.64-1.91,1.64-2.91v-8.65c0-1.23-.82-1.96-1.78-2.09v-.82c3.46-1.32,6.06-2.91,8.56-4.6l5.6,6.92ZM90.55,53.1l-.41-.59,6.56-7.06.82.18.23,4.33-7.19,3.14ZM91.82,67.12l4.1-3.51-4.51-6.15-.64.32c.64,1.18,1.05,2.46,1.05,3.92v5.42Z"/>
      <path class="cls-1" d="M99.84,61.34l-8.01,6.69v4.19c.96.41,2.46.96,3.69,1.96l2.87-1.82.5.59-5.87,4.23c-2.09-1.23-4.83-2.28-7.2-3.05v-.64c1.18-.46,1.64-1.91,1.64-2.91v-8.65c0-1.23-.82-1.96-1.78-2.09v-.82c3.46-1.32,6.06-2.91,8.56-4.6l5.6,6.92ZM90.55,53.1l-.41-.59,6.56-7.06.82.18.23,4.33-7.19,3.14ZM91.82,67.12l4.1-3.51-4.51-6.15-.64.32c.64,1.18,1.05,2.46,1.05,3.92v5.42Z"/>
      <path class="cls-1" d="M103.63,51.46c0-1.96-.68-3.55-1.96-4.1l.64-.59c1.32.46,2.28,1.14,3.14,2.41.64-1.68,2.37-3.46,4.24-3.87l.32.46c-1.59,1.32-2,2.91-2,5.69v21.17c1,.5,1.64.77,2.41,1.37l1.05-.73.36.68-4.14,3.23c-2.37-1.41-4.14-2.19-5.56-2.5v-.77c1.05-.32,1.5-1.73,1.5-2.69v-19.76Z"/>
      <path class="cls-1" d="M103.63,51.46c0-1.96-.68-3.55-1.96-4.1l.64-.59c1.32.46,2.28,1.14,3.14,2.41.64-1.68,2.37-3.46,4.24-3.87l.32.46c-1.59,1.32-2,2.91-2,5.69v21.17c1,.5,1.64.77,2.41,1.37l1.05-.73.36.68-4.14,3.23c-2.37-1.41-4.14-2.19-5.56-2.5v-.77c1.05-.32,1.5-1.73,1.5-2.69v-19.76Z"/>
      <path class="cls-1" d="M128.76,61.34l-8.01,6.69v4.19c.96.41,2.46.96,3.69,1.96l2.87-1.82.5.59-5.87,4.23c-2.09-1.23-4.83-2.28-7.2-3.05v-.64c1.18-.46,1.64-1.91,1.64-2.91v-8.65c0-1.23-.82-1.96-1.78-2.09v-.82c3.46-1.32,6.06-2.91,8.56-4.6l5.6,6.92ZM120.75,67.12l4.1-3.51-4.51-6.15-.64.32c.64,1.18,1.05,2.46,1.05,3.92v5.42Z"/>
      <path class="cls-1" d="M128.76,61.34l-8.01,6.69v4.19c.96.41,2.46.96,3.69,1.96l2.87-1.82.5.59-5.87,4.23c-2.09-1.23-4.83-2.28-7.2-3.05v-.64c1.18-.46,1.64-1.91,1.64-2.91v-8.65c0-1.23-.82-1.96-1.78-2.09v-.82c3.46-1.32,6.06-2.91,8.56-4.6l5.6,6.92ZM120.75,67.12l4.1-3.51-4.51-6.15-.64.32c.64,1.18,1.05,2.46,1.05,3.92v5.42Z"/>
      <path class="cls-1" d="M132.92,58.06h-2.55v-.73c1.87-.73,4.78-3.46,6.56-6.33l1.18-1.91.59.36-.32.59c-.86,1.64-1.18,2.82-1.18,4.78v.5h4.14l-.96,2.73h-3.1v14.57c1,.5,1.64.77,2.41,1.37l1.05-.73.36.68-4.14,3.23c-2.37-1.41-4.14-2.19-5.56-2.5v-.77c1.05-.32,1.5-1.73,1.5-2.69v-13.16Z"/>
      <path class="cls-1" d="M132.92,58.06h-2.55v-.73c1.87-.73,4.78-3.46,6.56-6.33l1.18-1.91.59.36-.32.59c-.86,1.64-1.18,2.82-1.18,4.78v.5h4.14l-.96,2.73h-3.1v14.57c1,.5,1.64.77,2.41,1.37l1.05-.73.36.68-4.14,3.23c-2.37-1.41-4.14-2.19-5.56-2.5v-.77c1.05-.32,1.5-1.73,1.5-2.69v-13.16Z"/>
      <path class="cls-1" d="M145.58,58.06h-2.55v-.73c1.87-.73,4.78-3.46,6.56-6.33l1.18-1.91.59.36-.32.59c-.86,1.64-1.18,2.82-1.18,4.78v.5h4.14l-.96,2.73h-3.1v14.57c1,.5,1.64.77,2.41,1.37l1.05-.73.36.68-4.14,3.23c-2.37-1.41-4.14-2.19-5.56-2.5v-.77c1.05-.32,1.5-1.73,1.5-2.69v-13.16Z"/>
      <path class="cls-1" d="M145.58,58.06h-2.55v-.73c1.87-.73,4.78-3.46,6.56-6.33l1.18-1.91.59.36-.32.59c-.86,1.64-1.18,2.82-1.18,4.78v.5h4.14l-.96,2.73h-3.1v14.57c1,.5,1.64.77,2.41,1.37l1.05-.73.36.68-4.14,3.23c-2.37-1.41-4.14-2.19-5.56-2.5v-.77c1.05-.32,1.5-1.73,1.5-2.69v-13.16Z"/>
      <path class="cls-1" d="M163.26,73.09c.41.18.73.32,1.5.91l1.05-.73.36.68-4.14,3.23c-2.37-1.41-3.23-2.19-4.64-2.5v-.77c1.05-.32,1.5-1.73,1.5-2.69v-10.75c0-1.41-.82-2.78-2.28-2.09l-.27-.59,3.46-3.42c2.46.64,3.14,2.32,3.37,4.01l3.73-3.96c1.41,1.73,1.96,2.78,3.37,2.46l.23.59-2.28,3.05c-1.46-.05-2.91-.77-3.78-2.32l-1.18,1.27v13.62Z"/>
      <path class="cls-1" d="M163.26,73.09c.41.18.73.32,1.5.91l1.05-.73.36.68-4.14,3.23c-2.37-1.41-3.23-2.19-4.64-2.5v-.77c1.05-.32,1.5-1.73,1.5-2.69v-10.75c0-1.41-.82-2.78-2.28-2.09l-.27-.59,3.46-3.42c2.46.64,3.14,2.32,3.37,4.01l3.73-3.96c1.41,1.73,1.96,2.78,3.37,2.46l.23.59-2.28,3.05c-1.46-.05-2.91-.77-3.78-2.32l-1.18,1.27v13.62Z"/>
      <path class="cls-1" d="M186.69,61.34l-8.01,6.69v4.19c.96.41,2.46.96,3.69,1.96l2.87-1.82.5.59-5.87,4.23c-2.09-1.23-4.83-2.28-7.19-3.05v-.64c1.18-.46,1.64-1.91,1.64-2.91v-8.65c0-1.23-.82-1.96-1.78-2.09v-.82c3.46-1.32,6.06-2.91,8.56-4.6l5.6,6.92ZM178.67,67.12l4.1-3.51-4.51-6.15-.64.32c.64,1.18,1.05,2.46,1.05,3.92v5.42Z"/>
      <path class="cls-1" d="M186.69,61.34l-8.01,6.69v4.19c.96.41,2.46.96,3.69,1.96l2.87-1.82.5.59-5.87,4.23c-2.09-1.23-4.83-2.28-7.19-3.05v-.64c1.18-.46,1.64-1.91,1.64-2.91v-8.65c0-1.23-.82-1.96-1.78-2.09v-.82c3.46-1.32,6.06-2.91,8.56-4.6l5.6,6.92ZM178.67,67.12l4.1-3.51-4.51-6.15-.64.32c.64,1.18,1.05,2.46,1.05,3.92v5.42Z"/>
      <path class="cls-1" d="M190.17,57.74c2.87-.77,5.42-1.91,7.42-3.42.73.64,2.5,2.05,4.1,2.05,1.32,0,1.87-1.46,1.82-2.64l.64.09c0,1.64-.73,2.73-1.82,4.05l-3.96,4.92c1.5,1.09,3.46,1.91,5.46,1.91l.09.64c-.96.82-1.18,1.14-1.18,1.59v6.51c-2.41.68-4.96,2-7.38,4.14-.87-1.14-3.28-2.91-5.19-2.91s-2.87,1.5-2.19,2.87l-.64.32c-1.14-2.28,1.41-3.83,2.69-5.55l3.01-4.01c-1.32-.64-2.73-1.46-4.23-1.87v-.64c.46-.14,1.37-.46,1.37-1.14v-6.92ZM198.36,67.17c-1-.23-1.87-.68-2.64-1.23l-4.92,6.6c2.6-.77,5.78-.32,7.56,1.78v-7.15ZM200,59.61c-2.5.09-4.14-.64-5.46-2.6v7.79l.82.5,4.64-5.69Z"/>
      <path class="cls-1" d="M190.17,57.74c2.87-.77,5.42-1.91,7.42-3.42.73.64,2.5,2.05,4.1,2.05,1.32,0,1.87-1.46,1.82-2.64l.64.09c0,1.64-.73,2.73-1.82,4.05l-3.96,4.92c1.5,1.09,3.46,1.91,5.46,1.91l.09.64c-.96.82-1.18,1.14-1.18,1.59v6.51c-2.41.68-4.96,2-7.38,4.14-.87-1.14-3.28-2.91-5.19-2.91s-2.87,1.5-2.19,2.87l-.64.32c-1.14-2.28,1.41-3.83,2.69-5.55l3.01-4.01c-1.32-.64-2.73-1.46-4.23-1.87v-.64c.46-.14,1.37-.46,1.37-1.14v-6.92ZM198.36,67.17c-1-.23-1.87-.68-2.64-1.23l-4.92,6.6c2.6-.77,5.78-.32,7.56,1.78v-7.15ZM200,59.61c-2.5.09-4.14-.64-5.46-2.6v7.79l.82.5,4.64-5.69Z"/>
    </g>
  </g>
</svg>