<?xml version="1.0" encoding="UTF-8"?>
<svg id="Calque_2" data-name="Calque 2" xmlns="http://www.w3.org/2000/svg" viewBox="0 0 414.43 842.14">
  <defs>
    <style>
      .cls-1 {
        fill: #554696;
      }
    </style>
  </defs>
  <g id="Calque_1-2" data-name="Calque 1">
    <g>
      <path class="cls-1" d="M404.53,353.25c-1.75-4.01-9.14-15.77-9.65-18.2-2-9.52,4.21-17.5-1.46-31.68-2.87-7.19-8.16-12.98-13.73-17.78-2.66-2.28-4.72-5.31-6.61-7.4-.53-.57-12.31-8.26-13.04-8.53-2.12-.81-3.98.08-4.74-.27-.95-.44-4.18-5.17-7.89-7.02-6.72-3.34-5.32-2.17-11.15-6.85-12.06-9.67-22.77-19.36-24.9-36.1-.58-4.59,0-11.12,0-16,0-.88,2.89-2.97-1-2.5.86,3.21-1.74,7.09-1.74,9.69,0,5.13,1.54,11.25.7,17.76-.2,1.51-1.88,2.68-1.93,4.05-.07,2.11,4.13,7.96,1.47,11.51-9.99-12.55-17.95-27.7-18.51-44.01-3.74-.44-.15,4.25-4.98,3.01l3.02,18.4c-.08.99-2.91,1.13-3.01,2.08-.05.41,3.01,6.37,3.56,7.43.67,1.31,2.51,2.12,2.96,3.1.54,1.19-.08,6.83,2.36,10.39.89,1.28,4.67-.27,2.62,2.42l-1.51.65c2.87,3.34,9.31,13.39,12.97,15.06,1.48.68,3.69-2.01,4.01-1.54.13,1.87-.5,4.37.49,6.02.87,1.44,8.01,2.51,3.05,4-1.51.45-6.65,1.2-7.33,2.19-.93,1.37.31,4.5-3.25,6.23-1.4.69-8.82,1.73-9.46.63-3.83-21.22-10.76-41.8-15.21-62.85-6.89-32.55-10.6-67.76-1.79-100.23,5.5-20.3,13.07-34.03,25.49-50.51.39-.52,6.44-3.76,2.5-4.48-2.22-.4-8.02,6.73-9.58,8.4-3.78,4.06-4,6-6.3,8.7-1.51,1.78-4.64,1.94-5.69,3.31-2.3,3-6.93,14.84-8.44,16.56-1.31,1.48-4.3.93-5.1,4.01-.59,2.25,1.73,3.05,1.54,4.38-.3,1.98-5.05,3.98-5.96,5.35-3.25,4.88-2.08,13.54-4.15,17.62-.97,1.9-3.52,1.19-2.79,3.15,1.02,2.77,4.41.72.94,6.76-.35.61-1.54.76-1.88,1.53-2.27,5.13.36,11.94-1.22,17.6-.58,2.09-2.69.53-2.78.68-.63,1.02-1.48,5.37-3.27,8.25-1.14,1.83-5.51,5.93-5.63,6.33-.64,2.06.04,4.89-.6,7.48-.42,1.7-3.01,2.51-3.97,4.95-1.47,3.72-1.55,8.75-3.57,12.48l2.96-1.54c.72,3.13-2.49,3.97-2.98,6.52-.27,1.46-.28,9.46.2,10.29.52.87,3.61.72,2.79,3.18-8.39-1.67-6.58,8.48-7.01,9.01-.17.22-1.29-.87-1.76-.7-3.49,1.27-.81,5.29-1.25,7.14-.54,2.25-3.71.32-3.96.55-.22.2-.89,4.96-1.01,6.01,2.23-.69,3.39-2.24,2.99,1-5.88-1.14-2.79,6.94-2.96,9.42-.07.98-3.12.29-3.14,4.1,0,2.22,2.69,1.29,3.15,3.96.43,2.48-.89,4.89-.71,6.88.43,4.56,4.12,21.83,6.57,24.99.84,1.08,2.94.63,3.67,1.61.68.89-.87,5.2,2.96,9,3.52,3.49,5.63,1.12,5.46,8.03-7.06,1.57-7.14-4.99-9.99-8.51-9.98-12.32-25.19-22.39-35.01-35.25-1.77-2.32-10.4-16.08-10.84-17.93-.49-2.08,1.96-8.27.83-11.29-1.48-.05-1.29,1.87-2.46,3.06-.8.82-2.45.84-2.53.95-.27.34,1.83,2.03,2.03,3.54.09.7.12,10.26-.02,10.79-.25,1.01-3.09-.2-1.02,3.65-3-.5-5.81-2.32-8.03-4.46-7.12-6.86-5.25-12.35-9.73-19.27-1.65-2.54-5.03-4.22-6.11-7.92-.58-1.98,1.98-.67,1.97-2.78-.03-3.67-2.7-8.17-3.09-12.06-.51-5.02.59-13.08,2.05-17.96.79-2.6,6.43-11.11,5.95-11.54-3.08-2.78-10.15,9.09-10.64,10.97-.56,2.16,1.37,2.79,1.39,3.54,0,.43-3.97,5.02-4.48,7.25-2.13,9.18.07,17.32.23,26.23-4.07-2.86-7.25-6.84-11-10-1.31-1.1-3.31-1.39-5.07-2.96-1.76-1.56-6.68-11.4-9.9-14.12-4.79-4.03-8.38-10.39-12.51-16.48-.58-.85-2.27-1.08-2.69-1.66-1.93-2.66-6.09-17.11-7.59-18.53-.62-.6-2.65-.29-3.29-1.17-1.28-1.79.22-5.48-.12-7.91-.8-5.73-5.32-15.85-5.29-20.83,0-2.23,1.69-3.38,2.02-5.79,1.22-8.98-.55-15.46,1.87-24.3.79-2.9,2.99-8.35,3.05-10.89.06-2.45-1.9-3.26-2.03-4.82,0-.33,4.06-2.67,4.81-4.25,1.04-2.21,1.25-6.83,3.25-9.28l-3-1c4.08-.51,3.99-5.69,3.98-9.01l-5.23,9.26c-11.42,27-20.77,55.64-14.37,85.75,1.76,8.25,5.19,17.87,9.61,24.98-5.4-1.34-6.24-2.3-6.96-7.53-7.32,2.06-4.3-4.71-5.75-8.16-1.1-2.64-3.99-3.02-4.76-4.33-1.54-2.59-1.67-9.14-4.5-13.23-.96-1.39-3.37-1.51-3.92-3.43-.77-2.67,1.52-3.88,1.53-4.81,0-.61-1.43-1.75-1.58-3.04-1.11-9.89-2.77-19.79-4.33-28.82-.17-.93-1.62-1.68-1.76-3.12-.05-.48,2.09-.3,2.78-3.22,1.32-5.62-.6-7.92-.55-10.62,0-.51.88-9.44.99-9.95.28-1.37,2.56-2.85,2.46-4.2-.23-3.17-2.83-3.57-.39-9.77,2.23-5.66,1.15-3.67,2.12-8.83.36-1.92,3.14-1.92,3.45-4.65.33-2.96-1.58-5.65-.67-8.58.64-2.05,3.1-2.29,4.26-3.78,3.63-4.67-1.56-4.77-1.4-5.41.16-.68,3.47-7.63,3.92-8.09,1.31-1.3,3.39-1.07,4.14-2.07.31-.42,4.38-8.81,4.48-9.32.43-2.1-1.12-3.68-.09-6,1.36-3.06,5.97-4.17,7.19-5.36,3.39-3.31,5.04-8.03,10.34-10.17-4.34-1.36-9.57.86-13.77,2.23C33.05,23.99,36.02,123.92,52.85,175.93c15.48,47.83,60.29,80.87,101.28,106.34,1.27.79,2.46,4.14,5.22,4.14-1.61.67-1.65,3.81-2.21,4.29-.34.29-7.87,1.8-8.79,1.6-.88-.19-6.12-2.71-7.25-3.36-8.33-4.77-18.23-10.18-25.36-15.86-1.25-1-3.52-1.72-4.37-2.7-1.18-1.35-.77-5.06-3-3.44-.1.08.47,2.91-1.49,1.97-1.87-.89-1.13-4.44-2.5-5.57-.63-.52-2.24.33-3.05-.02-2.29-1.01-11.58-10.07-3.98-7.89-3.83-1.76-5.49-4.95-8.49-7.51-1.76-1.51-4.58-2.07-6.08-3.92-2.69-3.29-4.27-10.02-8.9-14.1-1.38-1.22-4.34-1.87-4.48-2.07-.25-.37,1.51-4.63-2.55-7.9-2.17-1.74-4.96-.63-5.44-1.06-.26-.24-.68-5.01-1.54-6.97-.84-1.92-2.93-3.37-3.31-4.68-.56-1.95.33-4.99-.64-6.38-.77-1.11-3.33-.73-3.55-.95-.42-.44.91-3.73.78-5.24-.33-3.93-3.52-4.93-4.31-6.76-.56-1.29.65-2.8.07-3.98-.7-1.42-3.3-1.55-3.57-2.69-.62-2.53.43-5.91-.45-9.33-.72-2.79-4.03-5.26-4.38-6.67-.39-1.62,1.12-3.68.87-5.73-.41-3.39-1.33-2.3-1.5-8-.13-4.45-.34-6.96-4.52-9.08-.56-2.22,3.04-1.5,3.07-3.94.05-3.53-2.89-8.13-2.97-10-.06-1.48,1.29-3.34.98-4.88-.18-.94-2.08-.93-2.55-1.65-1.69-2.59,1.05-12.97-.54-17.02l-5.97,33.52c.22,18.15-3.62,40.16-.97,57.93.44,2.96,3.51,4.87.96,9.56l2-.5c-1.41,5.23-.05,14.27,1.25,19.74,11.15,46.72,48.58,78.23,89.72,100.27,5.95,3.19,13.33,5.08,18.02,9.47l-8-1.98c4.99,9.1-1.58,1.43-3.63.08-1.96-1.28-7.89-1.03-11.13-2.85-1.65-.94-1.89-2.58-3.04-3.2-5.78-3.07-14.83-4.44-21.2-6.05l5-1c.62-.5-3.55-3.65-4.52-3.97-2.64-.89.02,2.73-2,2.98-4.02.34-4.26-4.72-5.45-5.6-1.47-1.09-3.56,1.34-4.55-.4-.65-1.14.89-2.39.51-2.92-.21-.29-4.92-1.47-6.76-2.81-1.85-1.35-2.74-3.71-4.47-4.54-1.42-.69-3.89-.38-4.55-.94-.32-.27-2.47-5.4-4.17-7.06-1.2-1.17-3.15-.93-4.12-2.13-1.11-1.36-.75-3.85-1.82-5.2-1.34-1.68-3.63-.84-5.18-2.08-4.05-3.24-3.47-11.15-6.9-13.84-2.62-2.04-1.8,1.88-2.51,1.52-4.86-2.82-.62-5.45-.93-7.04-.68-3.42-4.22-1.87-5.12-3.95-.63-1.43.68-2.91.32-4.28-.7-2.69-1.99-7.75-2.75-10.06-.42-1.3-3.46-.44-3.98-2.28-.38-1.3,1.21-3.71.96-5.81-.28-2.28-2.96-4.44-3.06-8.12-.07-2.95,1.64-5.74,1.05-8.92-.5-2.68-3.39-3.52-3.6-4.99-.15-1.04-.43-10.42-.4-12.05.11-5.29,3.87-20.69-.01-24.5-1.94-1.9-3.2,5.05-3.48,6.01-19.98,68.33,6.7,137.18,69.82,170.16l15.67,7.82-6.99-.98,1.99,1.98c-3.69.58-6.85-.7-9.91-2.63-1.19-.75-.69-3.19-3.56-2.4-.98.27-.88,3.46-3.02,3.03-1.73-.34-.13-3.94-2.99-5.99-4.72-3.4-6.49-.46-9.83-.97-.47-.08-7.42-5.12-7.72-5.5-1.27-1.64-1.15-3.86-1.89-4.88-.6-.83-3.43-1.17-5.16-3.07-1.43-1.57-1.6-3.66-2.22-4.28-1.41-1.44-7.94-3.15-9.2-4.3-.46-.41-6.6-9.66-6.81-10.25-.56-1.57,1.19-4.75-2.19-4.78-.77,0-.05,2.76-1.98,2.02-3.76-1.44-1.31-4.9-1.52-7.4-.38-4.39-3.8-4.49-5.43-6.66-2.71-3.63-10.55-16.7-11.51-20.49-1.15-4.59-2.38-8.79-3.61-13.39-.61-2.31-2-12.96-2.6-13.89-.49-.74-3.3-.64-3.72-1.29-.83-1.28,1.05-4.87-1.12-4.86,1.03,20.51,6.28,41.79,15.13,60.35,19.11,40.05,38.12,72.84,82.84,87.16,18.2,5.83,31.89,5.76,50.53,6.48,1.21.05,3.72-.75,3.48.99l-5,1.02c3.25,5.62-4.51,3.06-7.79,3.67-2.65.49-5.18,2.99-7.8,3.31-5.45.65-14.24-3.02-19.05-2.96-2.42.03-3.44,1.94-4.85,1.96-1.5.02-3.46-2.32-5.39-2.55-1.69-.2-2.89,1.5-4.44,1.36-2.69-.23-3.03-3-4.48-3.81-1.64-.91-5.44-.37-8.55-2.13-2.53-1.43-8.68-8.82-9.32-8.92-2.24-.36-6.94,3.17-9.31-.45-.53-2.99,1.79-.13,1.98-.48,1.86-3.44-4.27-2.19-4.96-2.49-1.18-.49-2.39-2.93-4.29-3.76-1.86-.82-4.12-.48-5.72-1.28-.64-.32-7.23-9.26-9.08-10.92-1.36-1.22-7.05-4.23-7.98-5.23-.95-1.04-5.47-11.43-6.95-10.33l-2,3.99c-.7-1.12-1.82-6.66-2.09-6.92-.07-.06-1.35.67-1.92.33-4.53-2.71-1.37-7.62-3.52-10.35-1.19-1.51-3.3-1.39-4.19-2.34-3.53-3.75-6.4-9.47-5.3-14.7-3.94-.77-.35,2.5-.99,2.98-3.4,2.57-2.18-6.06-2.37-7.03-.7-3.5-5.05-7.14-5.62-9.47-.19-.76,3.69-.97,3-2.98-5.35-2.01-2.25-8.85-3.02-13.51-5.71.43-4.32,5.4-3.86,10.37,1.37,14.75,7.71,30.56,14.35,43.65,15.1,29.78,28.4,52.49,58.22,69.78,33.09,19.18,70.62,23.12,108.3,19.21l-12.99,3,4.98,1.98c-4.56.88-4.67,4.31-10.52,4.12-3.07-.11-4.19-1.85-5.92-2-6.29-.53-11.7,3.62-17.08,2.96-2.41-.29-3.8-2.12-5.95-2.16-2.97-.05-7.56,3.45-11.05,3.14-2.5-.23-1.56-2.86-3.93-3.13-6.53-.77-12.93,2.39-16.77,1.89-4.31-.57-8.98-4.7-13.26-5.83l-.51,4.01c-3.15.78-4.06-2.63-6.55-3.02-2.47-.38-5.39,1.36-6.8.94-1.55-.47-1.73-3.35-3.24-3.72-1.52-.38-6.74.78-9.77-.37-3.2-1.22.85-1.16-6.19-2.2-1.15-.17-1.88-2.16-3.15-2.49-1.44-.37-3.86,1.26-4.29.88-.19-.17-.55-4.6-1.06-4.98-.1-.07-1.42.77-2.3.6-7.06-1.36-5.46-2.98-9.41-5.59-8-5.26-17.64-9.74-23.37-17.41-.92-1.24-2.71-2.54-3.87-1.62-.74.59,10.3,13.89,11.45,15.04,35.99,35.69,106.48,44.38,154.55,37.96l-6,3.98c1.92.14,6.29-.41,6.99,2-8.73-3.71-8.77,2.45-13.75,4.83-1.26.6-11.23,4.8-11.88,4.9-1.69.26-3.76-1.11-6.62-.53-3.01.61-7.94,4.74-8.43,4.83-3.5.66-12.31-5.88-7.31,2.97-2.55.91-2.68-2.99-3.45-2.95-2.05.12-5.53,3.67-8.14,3.97-4.09.47-5.39-2.99-5.91-2.99-.6,0-2.55,3.64-5.05,4.01-4.68.68-7.82-6.14-12.45-.04,31.06,4.5,61.62,2.48,90.67-9.82,10.23-4.32,30.56-17.66,39.82-19.18,3-.49.21,1.78.41,3.43.12.9,3.28,0,2.1,2.57-7.24-1.86-5.24,6.02-10.48,10.03-4.13,3.16-13.02,1.98-12.53,9.98-2.68-1.1-4.71-.42-4-4.01-5.73,2.09-6.92,7.23.35,6.95,19.58-.74,39.5-18.09,55.64-27.57,1.12-.91,5.88,2.83,6.03,3.34,1.33,4.33-2.1,4.11-2.1,5.73,0,4.05,3.47,7.6,4.03,11.12.48,3.06.52,18.19-.88,20.04-.59.79-2.33.97-2.79,1.67-1.72,2.61-1.96,7.7,2.72,6.22-.83,2.27-4.56,4.13-5.28,5.76-.71,1.61.68,5.07.03,8-.9,4.12-7.96,5.04-3.74,11.74-7.83.59-4.7,1.15-6.48,6.01-1.04,2.83-4.5,10.78-6.09,12.93-1.65,2.21-9.26,6.84-10.5,8.79-1.39,2.21.36,4.87.07,5.24-.18.25-2.73.31-3.75,1.29-1.07,1.03-2.01,5.51-2.31,5.74-.44.33-3.52-1.23-5.24-1.02-.36.05-3.55,4.34-4.96,5.24-3.4,2.18-6.67,1.76-8.97,2.97-1.77.93-3.28,3.43-4.47,3.73-2.32.58-3.44-3.03-7.08-1.24-2.09,1.02-.61,3.11-1.78,3.4-2.58.64-8.26-.17-11.44.92l1-3.98c-4.86-1.92-7.33,2.23-12,1.98,3.44-3.09,1.34-6.73-.49-1.96-4.64-1.23-7.85-7.34-13.29-8.25-5.11-10.74-5.6-24.84,2.78-34.28,2.3-2.59,6.69-3.75,7-7.49-7.87-.91-6.15,10.28-13.99,6.99,2.38,7.63-.15,4.79-2.58,7.91-3.91,5.03-5.34,11.34-4.51,17.66.25,1.85,1.87,1.29,2.06,2.12,1.41,6.25-.46,6.26,4.51,12.32,14.78,18.06,46.57,17.11,66.49,9.47,2.59-.99,5.79-3.89,8.02-2.98l-8,8.49c4.16,1.27,7.02-5.85,7.51-5.99,1.61-.44,2.98,1.89,2.47,3.48-.47,1.51-8.71,2.04-8.29,7.26l-9.25,5.23c-.48,4.71,3.16,1.73,4.56,4.02-7.62-2.47-6.94,5.08-10.03,6.57-1.5.73-3.21-.5-4.02-.05-1.09.6-1.54,3.83-3.65,4.38-1.85.47-3.62-1.1-5.28-.43-2.47,1.01-7.8,6.8-12.24,7.9-2.93.73-5.38-.92-8.09-.36-.69.14-.85,2.99-6.18,3.07-6.13.09-5.29-3.07-6.02-3.09-2.09-.03-2.51,2.6-4.13,2.88-1.48.26-2.8-1.59-4.03-1.71-1.33-.13-3.28,2.56-4.31,1.85-.32-.23-1.43-4.98-4.33-6.3-2.19-.98-2.8,1.92-4.71.89-1.66-.9-1.51-3.37-2.3-4.26-2.02-2.31-5.52-2.39-7.88-6.63-1.88-3.36-1.21-6.74-3.8-9.21,3.51-.3.64-6.4-1.99-7.49,3.25,44.06,55.04,43.34,85.99,29.01l-5.99,7.51,4.98,1.47c-4.02.34-5.18,5.12-7.47,7.02-1.62,1.34-4.81,1.76-6.22,3.29-2.34,2.51-5.37,7.66-8.99,9.76-1.93,1.11-4.91.51-6.35,1.42-1.69,1.07.13,3.25,0,3.46-.86,1.27-12.94,2.19-12.92,4.56,0,.4,3.56,2.44.98,4.02-8.03-1.77-5.16,3.41-7.69,5.55-1.87,1.58-6.71,1.73-9.13,3.56-3.68,2.78-2.49,2.54-7.89,5.67-8.09,4.7-13.88,14.32-21.72,19.74-1.62,1.12-3.7.8-5.14,1.89-1.08.82-1.43,2.99-2.44,3.58-1.6.93-3.97.07-4.86.62-.57.36-1,4.77-2.09,6.42-.96,1.43-5.99,3.96-5.99,4.95,0,.55,2.36,1.83,1.93,2.48-.06.09-1.43-.37-1.94.75-.76,1.67-.65,5.99-1.97,7.62-.87,1.07-2.94.59-3.62,1.58-.94,1.37-1.53,10.03-4.39,13.43-.85,1-2.49.33-3.15,1.24-2.35,3.22.61,9.79.07,10.4l-2.98-1c-.75,10.97-2.37,22.26,1,33,3.38,2.56.03-15.04.17-16.23.42-3.74,5.18-18.13,6.8-22.29,8.27-21.29,27.33-40.03,46.01-52.48l-8.99,11.5c2.84,1.18,7.28-3.87,7.01-6.49l1,4.27c-2.88,2.16-5.02,6.55-7.75,8.75-1.56,1.25-4.11,1.48-5.02,2.24-1.25,1.03-.32,5.18-1.73,6.74-1,1.12-3.04.75-3.37,1.12-.46.51-2.63,10.29-3.69,12.81-.94,2.22-1.8,4.56-2.74,6.79-.22.51-4.49,3.74-5.27,6.21-.95,3.01.26,8.22-1.36,10.46-.76,1.05-2.56-.1-3.41,1.8-2.54,5.67.33,7.97.25,12.19-.06,3.27-2.7,6.14-2.89,8.16-.11,1.17.75,9.06.98,10.94,1.52,12.55,6.89,26.83,14.98,36.51.03-4.69-3.88-6.59-5.31-11.18-1-3.23-4.16-15.94-4.3-18.34-.12-2.1,4.44-7.89-.37-11l1.98-.47c1.27-2.42-1.08-9.29-.99-11.42.02-.57,1.69-.55,1.93-1.35,5.01-16.89,6.23-24.78,15.65-39.16,6.67-10.17,13.95-20.27,23.41-28.08.25,2.14-1.59,3.71-1.78,5.72-.21,2.17,1.28,4.63.87,6.7-.16.85-2.42.55-3.53,1.59-2.07,1.96-5,9.92-5.38,12.76-.46,3.5,2.27,5.61,1.92,7.6-.15.85-2.21.73-2.89,2.3-1.22,2.82-2.29,16.5-2.09,19.88.09,1.55,1.68,2.52,1.9,4.03.33,2.19-1.12,5.44-.92,8.77.31,5.02,6.24,24.19,9.45,27.67.88.95,3.21.68,4.46.97-.32-2.91-5.09-4.97-5.93-6.78-1.16-2.48-3.5-12.13-3.04-14.64.32-1.75,2-2.92,2.08-5.1.07-1.88-2.08-1.33-2.16-2.09-.17-1.52,1.75-16,2.17-18.76,4.17-27.28,18.68-52.19,37.87-71.62-1.19,4.87-6.63,9.99-7.98,14.52-.35,1.2.35,2.12,1.48,1.47,1.35-.77.86-3.15,2.5-2.99.11,3.97-4.99,5.77-6.5,10.02-.43,1.18,1.99,2.23,1.33,5.19-.76,3.32-5.66,8.07-6.42,10.77-.72,2.55.61,4.04.36,5.4-.18,1.03-3.57,4.12-4.32,7.56-.94,4.35,1.22,7.76-3.43,9.57l2.99,1.49c.73,2.63-2.64,2.28-3.02,3.71-2.5,9.54.91,29.07,4.54,38.27,8.88,22.54,31.35,40.45,56.48,38.01-2.07-5.05-6.78-2.13-10.16-2.54-.86-.11-8.48-1.81-8.88-2.03-1.61-.86-2.08-3.92-3.55-4.26-.96-.22-3.9,1.38-4.4.85-.17-.17.31-3-.91-4.6-2.22-2.92-9.35-.81-6.1-10.4-3.69.01-4.55,2.72-5.98-1.51l3.97.5c.4-.6-4.86-8.65-5.96-10.26-.71-1.04-2.59-1.19-2.94-2.38-.48-1.62.78-3.29.62-4.73-.18-1.63-1.93-3.49-2.18-5.47-3.95-30.58,5.66-55.47,21.05-81.08l13.41-19.08c-.96,3.09,1.36,5.47,1.78,7.74.3,1.65-.57,3.3.04,5.86,6.49,26.98,41.99,51.79,69.18,38.39l-7.39-3.07c-.71.1-1.19,3.44-4.31,3.89-.63.1-11.98-.84-12.58-1.02-2.41-.72-9.43-7.2-11.76-9.28-.97-.86-2.51-2.73-4.44-4.48-1.47-1.33-8.25-6.82-8.51-7.53-.14-.41,4.51-1.55,3-4.49h-5c2.13-6.96-2.84-11.6-3.74-18.77-1.83-14.54,4.21-28.1,10.93-40.55l12.8-16.68c3.68,5.79,4.23,12.41,7.59,17.91,11.23,18.34,34.57,30.68,55.7,21.86,10.41-4.35,18.84-15.89,18.75-27.32-.01-1.05-3.3-9.07-3.98-10.01-1.16-1.61-5.22-3.25-7.04-4.45-.47.55,4.61,9.13,4.81,10.7.19,1.4-1.97,2.45-1.74,3.67.2,1.09,2.79,2.01,2.97,4.16.06.83-1.98,9.13-2.51,9.59-.73.63-5.09.8-7.43,2.49-3.57,2.56-3.5,6.11-9.63,6.47-1.03.05-10.45-.08-10.98-.23-.61-.16-.56-1.57-1.19-1.84-2.87-1.26-7.85-2.74-10.23-4.59-4.75-3.71-6.06-10.94-10.06-14.96-2.42-2.45-5.14-1.5-6.61-7.46-.6-2.45.46-3.88.24-5.35-1.11-7.59-2.47-14.21-1.71-22.21.43-4.64,7.54-13.89,10.23-18.77,1.51-2.72,3.06-5.63,3.84-8.66l1.98,5.3,5,4.68c1.62-31.56,33.31-51.21,52.52-72.98,16.46-18.63,27.5-39.65,33-64,3.7-16.39,6.94-37.91-2.02-52.02-.65-1.02.47-2.74-.21-4.67-1.32-3.67-6.9-12.77-9.75-15.34-1.01-.91-3.1-.92-4.01-1.94-.48-.54.19-2.36-.42-3.32-.8-1.25-3.82-2.17-5.13-4.19-4.76-7.35-9.03-15.47-14.11-22.89-.89-1.29-2.88-1.84-3.34-2.66-.37-.65-3.26-13.12-3.41-14.59-.72-6.97,1.08-10.95,6.39-15.37,1.13,3.4,10.58,6.99,11.35,8.14.18.27-.9,1.54-.77,1.73,1.49,2.08,38.94,17.32,46.2,21.35,1.16.64,3.6.64,3.73.77.11.11-1.16,1.75-.57,2.97.95,1.97,5.76,2.92,7.59,5.49,1.43,2.01,1.6,4.77,2.94,7.06,1.41,2.44,4.96,5.19,5.57,6.53.71,1.56-.4,3.15-.02,4.01.6,1.35,3.07,1.63,3.36,2.09.91,1.51-3.71,8.89,2.11,8.84,3.58-16.37-2.33-32.83-8.82-47.67ZM252.34,281.42c-1.61-.71-4.17.03-5.09-1.11-.3-.38-3.96-7.5-4.38-8.49-1.62-3.73-4.95-13.59-6.02-17.89-2.95-11.9-1.44-20.19-.02-32.02,2.17-2.49,1.25.63,1.75.83.48.2,3.93-1.33,3.76.68-.07.88-2.7.57-3.07,3.02-.71,4.6,2.54,3.51,3.01,5.09.42,1.39-1.31,4.26-.92,6.81.21,1.31,1.47,2.32,1.7,3.38,1.7,7.89,4.16,14.05,5.87,21.33,1.57,6.69,4.38,4.84,5.46,6.57,1.69,2.73.8,13.24,2.96,17.3-2.33-.94-2.77-4.51-5.01-5.5ZM259.35,225.92c-2.83.51-1.64-.68-2.24-2.2-4.72-11.76-8.16-30.3-6.25-42.31.52-3.29,3.57-8.09,2.98-12.51l3.51,2.02,1-2.99c-.26,2.22.57,5.35-.14,7.37-.55,1.59-2.85.86-2.94,3.08-.13,3.17,3,6.3,2.89,7.87-.12,1.83-2.91,6.29-2.72,9.25.14,2.14,2.74,2.81,2.96,4.96.24,2.27-1.85,3.94-2.01,6-.38,5.12,3.61,13.76,2.96,19.46ZM370.55,303.32c-.93,1.19-1.45,2.6-1.71,3.96-2.95-3.52-3.83-7.73-3.83-7.73,0,0,4.02-.16,8.03,1.63-.92.55-1.79,1.24-2.49,2.14ZM374.36,311.33c1.18-.59,2.34-1.4,3.22-2.53.65-.83,1.1-1.76,1.39-2.71,2.33,3.28,3.06,6.73,3.06,6.73,0,0-3.78.14-7.67-1.49Z"/>
      <path class="cls-1" d="M253.35,797.93l-2-.5c-.79,3.33,2.55,2.15,3.05,4.99.97,5.51-2.69,15.64-5.54,20.51-5.84-4.7,3.17-9.28,2.31-15.27-.16-1.13-1.44-2.3-1.59-3.45-.32-2.33-2.01-16.35-2.46-17.1-.32-.52-3.83-1.86-3.76-4.17,6.65.39,4.11,4.65,5.18,8.31.8,2.73,5.99,2.66,4.81,6.69Z"/>
      <path class="cls-1" d="M286.04,710.25c4.63,4.33,5.77,12.19,4.21,18.07-1.3,4.9-5.66,13.04-10.89,14.6,1.49-7.22,8.01-5.36,7.68-14.37-.04-1.11-.7-7.74-.89-8.83-.64-3.69-2.06-7.01-3.81-10.28.61-1.37,3.04.2,3.69.81Z"/>
    </g>
  </g>
</svg>