<?xml version="1.0" encoding="UTF-8"?>
<svg id="Calque_2" data-name="Calque 2" xmlns="http://www.w3.org/2000/svg" viewBox="0 0 700.11 703.12">
  <defs>
    <style>
      .cls-1 {
        fill: #554696;
      }
    </style>
  </defs>
  <g id="Calque_1-2" data-name="Calque 1">
    <g>
      <path class="cls-1" d="M347.43,262.56c-.24.21-6.15-.35-6.46-.44-1.87-.54-3.24-3.67-6.5-2.52,1.97,3.2.29,7.01,1.21,10.28.62,2.21,8.99,10.03,7.76,11.7l-1.97,1c3.36,1.2,7.51,6.07,9.49,1.02l4.5,2.99c-2.4-3.11-11.79-16.17-10.99-19.44,1.31-5.36,11.86,5.73,7.98,9.44,4.84-.85,2.24,2.02,3.26,5.25.44,1.4,4.32,10.82,4.75,11.25,2.71,2.65,11.52,1,16,2,4.99,1.11,11.17,5.65,14.55,9.47,7.1,8,7.72,14.95,7.48,25.58-.06,2.47-1.56,5.71-1.09,7.75.16.72,6.68,4.37,8.08,6.18,1.79,2.32,1.82,6.2,2.96,7.1,1.02.82,2.37-1.6,5.84,3.11,4.77,6.49,8.91,16.12,8.17,24.31-.77.89-10.17-6.02-11.49-7-5.44-4.04-9.86-8.12-16.81-11.19-17.7-7.81-28.24.88-46.04.14-2.63.64-.58,10.36-.72,12.39-.32,4.46-2.46,10.13-3.28,14.99-.29,1.68-3.63,2.84,1.53,4,2.06.46,4.09-.78,6.09-.18,1.32.4,2.03,2.2,3.43,2.64,2,.63,6.08-.16,7.72,1.09,1.28.97.08,3.25.69,3.99.29.37,2.56.3,3.59.89,4.16,2.39,12.97,8.83,17.24,9.82,1.44.34,2.18-2.11,4.06-1.18,2.34,1.16,2.45,5.5,4.02,7.12,1.75,1.8,3.84.28,3.95.46.3.51.06,3.41,1.02,5.32.55,1.09,4.91,4.67,6.22,6.98,9.61,16.92,9.33,44.21,8.83,63.25-.28,10.39-3.88,18.1.78,28.13,2.48,5.33,5.42,10.29,8.72,14.26,1.07,1.28,4.27,5.24,4.75,6.39.86,2.07-1.38,2.56-.86,3.67.23.49,6.02,7.86,6.63,8.46,4.05,3.99,6.61,6.52,9.66,12.32.63,1.2.76,4.69,1.42,5.1.9.56,3.3-.28,3.8.17.3.27.04,4.02.97,5.36.63.9,2.3.22,3.15,1.23,4.35,5.14,11.69,31.81,11.97,38.82.63,15.8-4.7,45.25-17.03,56.06-30.14,26.42-82.91,35.04-121.38,29.35-27.86-4.12-80.9-23.76-97.09-47.91-3.95-5.9-.16-7.57.3-13.63.24-3.09-1.58-6.48-.67-9.62.75-2.57,6.94-5.8,7.77-10.26.39-2.1-.21-4.43.26-6.73.37-1.81,2.35-3.66,2.39-5.21.04-1.47-1.45-3.28-1.56-5.1-.41-6.63,3.23-3.03,4.72-3.73,2.74-1.27,8.08-10.04,8-13.38-.05-1.9-2.28-2.35-1.38-5.31.15-.48,4.52-8.37,4.88-8.72,3.65-3.67,12.23-3.67,8.89-12.07,1.74-2,9.71-7.78,10.36-9.2,1.62-3.54-2.31-5.08-.58-7.31.84-1.08,6.75-3.22,8.07-2.67l.98,1.99c-.46-2.93,1.78-3.77,3.04-5.52.73-1.02.74-2.62,1.24-3.2,1.48-1.69,6.02-.83,4.73-6.28,2.37-.36,2.41,2.38,4.94,1.55.68-.22,9.76-8.68,10.55-9.63,1.63-1.98.36-3.48,1.04-4.86.35-.71,7.96-10.66,8.62-10.87.83-.27,6.84,1.7,9.38-2.16,3.09-4.69-5.66-.15-4.53-4.01,5.5-.46,7.43-6.91,12.99-4.02v-2.99c-10.63,4.32-2.71-6.79-.49-6.98,2.58-.23-1.6,6.32,3.51,3.49,4.95-2.73-.49-5.62-.78-7.13-.32-1.66,1.67-5.97.78-8.38l4.99,3.99c1.24-6.34-4.43-12.52-4.76-18.67-.09-1.62,2.77-5.31,1.76-6.32-.21-.21-2.32.54-3.1-.59-.37-.53-3.34-11.01-2.91-11.41l3-.5c-1.58-1.87-3.82-2.7-5.44-4.57-2.03-2.35-4.84-7.01-7.01-9.97-9.02-12.31-13.13-18.3-17.24-32.78-.71-2.51-3.25-5.06-3.31-7.82-.06-2.46,2.43-3.73,1.91-5.68-.4-1.51-2.83-1.94-3.01-5.2-.25-4.3,4.71-5.95,3.17-11.96-.32-1.24-4.51.66-3.05-3.03,1.09-2.77,4.44-.12,4.98-.5.24-.17.69-4.22,1.95-5.59,1.35-1.48,3.75-1.25,3.98-1.51.41-.48-1.39-7.13,2.08-12.16,4.47-6.51,8.11-4.56,12.74-7.43,1.65-1.03,5.3-7.53,5.28-.31,4.08-.11,3.52-6.65,5.23-7.78.92-.61,2.98-.07,4.36-1.13,1.91-1.47,1.75-6.26,1.34-8.55-1.22-6.86-13.75-21.99-20.2-24.79-4.35-1.89-10.91-.52-9.64-8.16,1.39-8.37,5.22-2.58,7.41-2.58,1.46,0,2.78-2.25,3.94-2.01,1.04.21,8.39,16.36,9.76,18.81,7.06.13,5.93,7.37,13.75,5.74,3-.63,2.56-4.99,1.13-6.91-.68-.92-2.54-.65-3.55-1.64-3.96-3.88-8.44-13.56-13.82-16.22-1.78-.88-5-.89-6.13-1.69-.89-.63-.31-2.31-.81-2.81-1.78-1.78-4.02,1.23-3.84-5.8.21-8.39,8.21-10.69,13.58-4.5,4.27-2.24,2.35-11.21,2.9-12.01,2.64-3.79,15.78-1.86,13.38,8.33-.09.39-2.56,6.44-2.84,6.68ZM359.88,332.23c-4.45-5.83-9.7-6.8-16.4-3.63,2.69,1.22,5.08,10,5.94,10.49.3.17,6.53.44,6.85.3.37-.17,4.63-5.38,5.21-6.32.13-.77-1.16-.28-1.59-.85Z"/>
      <path class="cls-1" d="M226.47,67.6l-2-.51c1.28,3.1-1.43,5.51-1.78,7.25-.31,1.53.72,3,.69,4.64-.03,1.54-1.08,2.82-.76,4.86.73,4.54,7.2,5.78,7.82,7.51.46,1.26,2.19,12.37,2.14,13.77-.07,1.97-2.99,1.55-1.01,9.69.26,1.07,3.21,6.22,3.81,7.55,2.74,6.13-.38,4.46-1.24,6.47-.46,1.07,1.62,9.33,2.26,11.31.78,2.44,3.43,5.23,3.63,7.35.12,1.27-1.27,2.28-1.48,3.62-1.1,6.76,2.23,3.43,2.97,5.1.43.98,2.05,10.48,2.05,11.88,0,4.55-6.72,7.57-7.85,14.22-.93,5.54.89,6.18,1.47,9.89.21,1.37-1.08,3.16-.65,4.75.84,3.08,4.47-.02,5.79.74.3.17.72,2.16,1.57,2.96,8.18,7.66,6.38,12.05,8.25,21.77,1.47,7.62,6.66,24.79,6.4,31.72-.16,4.2-3.41,2.4-.01,8.7,3.24,6.01,1.43,5.61,2.51,10.88,6.41,31.34,11.88,62.43,17.18,94.64.43,2.63,3.44,17.2,3,18.02-.16.29-1.65.15-1.63.63.04,1.69,1.2,10.5,1.89,11.05.24.19,2.95-1.61,2.73,3.24-.06,1.38-1.4,2.1-1.28,3.35.17,1.77,2.43,1.81,2.57,2.62,1.48,8.52.48,15.85,1.07,23.67.5,6.61,3.2,4.01,3.92,4.65,1.9,1.68-1.93,2.19-2.03,2.49-.98,3.04,2.19,2.37,2.85,4.15,3.21,8.64-.25,19.48,2.88,27.12.51,1.24,2.14,1.13,2.3,1.92.51,2.5-1.01,5-.73,6.67.2,1.18,1.95,2.29,2.27,3.6,1.35,5.56,1.64,8.74-.54,14.04l2.98-1,1,13c-1.2-.26-3.27.75-4.03-.64-2.44-4.44-4.29-20.05-5.8-26.02-2.02-7.95-7.41-21.88-7.96-29.13-.63-8.37.49-6.9-1.96-15.95-.98-3.61.03-7.96-2.01-11.98-1.27-2.51-3.68-2.84-4.19-4.06-.2-.46-1.96-7.39-1.98-7.79-.02-.43,1.53-.38,1.66-.63,1.59-2.91-5.59-9.96-4.74-14.14.14-.71,1.82-.56,2.01-1.34.63-2.52-.9-11.19-2.96-12.85-2.7-2.17-1.34,1.88-3.01,1.52.64-4.12-3.4-10.93-3.05-14.35.05-.45,2.99-1.45,2.88-3.16-1.15-2.2-4.72-2.44-4.92-5.01-.16-2.09,1.68-3.08,1.88-4.17.28-1.57-1.64-2.55-1.25-4.28.38-1.71,7.35-10.29,6.47-11.01-.29-.24-2.35.53-3.11-.59-.92-1.34-.29-4.55-1.9-5.92-1.51-1.28-5.27-1.2-7.44-3.56s-10.78-27.73-9.55-28.92c.51-.5,3.32.94,2.98-1.01-2.5-.35-5.64-6.7-6.31-9.19-1.14-4.19-.35-12.24-1.64-15.18-.56-1.29-2.52,0-3.08-1.28-2.65-6.16-.54-18.32-2.93-23.71-.54-1.22-2.39-.13-3.07-1.3-1.3-2.26-1.33-11.09-2.22-14.6-2.21-8.75-6.22-17.01-7.29-26.71-.39-3.52.92-7.85-.09-12.12-1.44-6.1-6.79-9.57-6.35-15.93l2.98,2c1.02-5.5-3.75-2.73-3.99-2.99-.49-.53-1.81-12.29-2.26-14.26-.85-3.71-6.15-19.8-5.28-21.7.4-.87,2.07-1.51,2.31-2.67.18-.84-3.07-11.94-3.7-12.77-.83-1.09-2.46.13-3.4-1.82-1.07-2.23-6.94-26.68-6.55-28.07s2.52-2.3,2.6-3.2c.03-.32-2.44-5.66-2.66-5.9-1.01-1.14-2.83-.41-3.04-.64-.48-.51,1.04-12.55-.04-13.97-1.76-2.32-1.78,2.6-2.98,1.99-1.96-4.9,1.41-8.07-.02-12.99l-2.98,2c-.67-5.61-3.31-11.37-2.52-16.99l3.49,2.99c-1.45-7.21-3.88-8.63,2.08-14.43,13.64-13.25,30.67-14.8,32.44,8.34.13,1.69-1.4,2.84-1.08,4.17.26,1.11,1.92,2.26,2.27,3.72.97,4.02,1.3,8.2,2.29,12.21Z"/>
      <path class="cls-1" d="M367.77,28.88c-1.47,1.79-2.52,6.83-2.36,9.2.35,5.06,4.42,5.82,5.04,9.04,1.27,6.62.29,24.31.06,32.02-1.11,37.86-6.07,75.97-5.08,114,.1,3.92,1.67,7.63,1.1,12.01-.34,2.68-7.39,5.05-8.05,10.04-.11.85.58,8.37.87,8.75.84,1.1,3.1.75,4.22,2.05,1.47,1.71,1.47,29.02-.01,31.03-.63.85-2.82.85-3.08.58-.84-.83,1.22-5.29.52-6.97-.22-.52-5.2-5.43-6.04-6.01-7.56-5.28-13.67-3.85-21.48-.01.35-3.48-2.8-5.27-3.09-8.49-.41-4.56,3.42-8.58,2.08-13.51-.37-.44-3.62,1.43-3.99.99-2.41-2.85,2.91-3.1,3.52-3.94,1.86-2.58.98-9.91.46-13.05l-3.98,1.99c-1.06-4.12,1.21-8.94,1.1-12.54-.06-1.87-1.94-.94-2.19-2.89-.59-4.62-.17-25.89,1.34-29.81.6-1.56,2.98-2.81,2.69-4.13-.25-1.12-2.74-1.89-2.95-4.14-.12-1.32.96-2.9.82-4-.8-6.3-3.8-15.99-1.07-22.24,1.14-2.61,3.34-2.34,3.36-6.74.02-6.88-6.38-10.23-5.16-19.06,1-7.24,11.89-6.91,6.26-19.15-.54-1.16-3.14-6.85-3.42-7.14-.97-1-2.92,1.67-3.66-4.77-.84-7.32.38-13.85.96-20.89.31-3.82-2.02-5.57,1.94-9.98-4.65-1.3-4.81-3.21-4.06-8.07.7-4.58,4.03-4.12,4.1-5.03.09-1.16-1.67-3.49-1.85-5.15-.18-1.71.78-3.17.4-5.3-.74-4.21-5-8.19.1-13.03,3.83-3.64,6.49-1.8,9.7-1.94.65-.03.48-1.81,1.25-2,5.75-1.42,21.02-.18,26.34,2.49,7.26,3.64,9.93,14.52,7.79,21.8-.74,2.5-3.5,2.78-4.5,3.99Z"/>
      <path class="cls-1" d="M10.47,299.58v4.01c2.31.2,6.02-2.34,7.56-.02.79,1.2-.72,2.88-.4,4.32.43,1.98,4.94,3.75,4.9,6.68l3.93-2.97c.25,2.97,4.83,2.8,7.06,5.48s5.32,10.9,7.07,13.9c1.23,2.11,7.78,7.11,10.32,10.67,1.14,1.59,2.34,5.73,2.6,5.91,1.1.77,5.45-3,8.74-.74.81.55,6.59,14.53,9.67,16.87,2.64,1.99,5.22-1.63,9.54,1.43,4.31,3.06,4.03,7.67,5.5,11.5,2.69,7.01,22.4,10.6,23.52,21.48-.43,1.38-2.67-.94-2.98-.51-3.01,4.08,8.17,10.3,12,8.99-1.53-1.78-1.03-2.92,1.02-1.52,2.41,1.65,1.59,5.18,3.37,6.63,1.21.98,5.31.88,5.6,2.43.21,1.14-3.06,4.73-.77,7.24,1.3,1.42,8.1,1.41,8.75,2.32.24.33-.71,2.03-.43,3,1.88,6.35,4.58,3.79,6.23,5.14.36.29.29,2.25,1.8,3.68,1.96,1.86,6.05,1.92,6.99,3.08.26.32-.13,4.14,3.02,6.93,1.97,1.75,6.02,2.74,6.93,4.11.59.89-.39,2.67.53,4.31.26.47,6.87,7.25,7.41,7.69,3.78,3.07,10.01-.03,10.6,6.45.32,3.47-1.96,13.33-.17,16.06,1.48,2.26,4.81,2.65,6.07,3.98,1.2,1.26,1.02,3.85,2.65,4.41,1.87.64,5.05-1.43,7.65-.95,1.03.19,3.49,4.82,3.74,5.01.34.25,2.07-1.81,3.54-2.03,5.04-.77,6.77,5.01,9.45,7.53,1.55,1.46,11.03,8.9,10.98,10.01-.06,1.09-3.37.68-2.88,2.83.14.6,6.34,9.87,6.86,10.2.8.51,2.74.74,3.03.46,1-.99-2.18-4.72.51-5.98,1.4,1.95,5,4.09,5.95,6.03,1.41,2.87,1.93,10.68,3.49,12.51,2.59,3.02,5.31-.35,6.9.56.31.18.72,2.15,1.57,2.92,1.24,1.13,9.02,5.44,5.58,7.47-1.07.63-3.44-.92-4.49-1.53-11.55-6.67-26.49-19.15-37.41-27.59-30.2-23.31-59.84-50.83-90.4-73.09-17.15-12.49-44.99-26.15-60.16-40.33-4.89-4.57-1.85-3.08-2.62-7.3-1.64-9-5.25-18.69-16.42-18.69-4.18,0-7.41,3.42-10.24,3.86-4.12.63-18.21-11.71-21.29-15.31-7.71-9.02-10.27-18.21-11.02-29.98-.37-5.84-.84-29.37.63-33.64,1.09-3.19,4.86-6.7,8.41-5.91Z"/>
      <path class="cls-1" d="M38.19,223.88c3.24,2.63-.04,8.46,4.73,11.78,1.52,1.06,3.38.46,4.64,1.59,3.16,2.84.32,10.2,5.91,11.93,1.48.46,3.31-.49,4.05-.08,1.77.98,3.16,6.52,4.5,8.43,5.38,7.68,5.78,9.23,10.03,16.97,1.56,2.84,6.67,5.61,7.88,9.12s-.6,8.26,3.51,9.48c4.34,1.29,4.73-2.84,8.06,4.95,3.14,7.37,1.85,6.47,6.82,13.18,6.38,8.62,13.03,17,19.7,25.39.72,1.77-2.33,6.43-2.58,9.5-.09,1.07,0,7.66.12,8.79.22,2.21,1.02,4.5,1.4,6.7,1.16,1.82,14.97-1.36,18.87,1.12,2.31,1.47,1.17,3.73,2.64,5.36,3.18,3.53,10.27,6.7,12.52,13.53.64,1.94-1.1,3.54-.04,5.93.78,1.77,4.15,2.98,5.53,4.53,1.81,2.03,3.3,6.36,4.53,7.51,2.01,1.88,4.65-.62,3.42,5.42-.35,1.72-1.68,2.79-1.99,5.01-.24,1.68-.21,9.63.49,10.62.37.52,9.99,3.73,11.85,4.9,4.58,2.91,7.1,8.84,11.42,12.05,1.08.8,3.12.51,4.04,1.24.72.58,7.73,13.23,9.56,15.44,1.24,1.5,4.13,2.25,5.6,4.99,4.32,8.1-7.51.74-10.7.51-3.77-.26-5.97,2.06-9.77-.15-4.2-2.45-18.61-20.07-22.96-25.03-14.99-17.12-29.41-34.48-44.95-51.05-7.02-7.49-8.84-7.17-14.81-16.69-.46-.74-5.48-2.74-7.27-4.23-19.51-16.12-52.49-50.39-68.97-70.03-8.37-9.98-13.8-21.68-8.78-34.78,3.06-7.99,2.76-13.52,5.04-21.99,1.21-4.49,3.11-15.94,9.56-15.01.35.05,6.05,2.77,6.41,3.06Z"/>
      <path class="cls-1" d="M672.18,221.91c4.38,3.93,9.29,28.67,10.15,35.33,1.08,8.33,2.85,17.64-1.43,25.29-1.28,2.29-12.61,14.7-14.44,15.55-5.18,2.38-10.22-3.56-16.65,2.86-4.72,4.71-3.1,11.11-3.36,17.14-43.7,47.85-88.9,95.4-133.94,142.06-5.51.93-10.75.79-14.57,5.43-4.69,5.71-.58,10.52-4.02,15.98-1.08,1.72-20.34,21.15-21.93,22.14-1.83,1.14-3.79-.58-4.53-.1-.6.39.49,6.78-2.99,7-.06-5.19-1.93-8.02,3.02-11.47,1.83-1.27,4.7-1.28,5.9-3.1,1.03-1.56.6-3.79,1.4-5.12,2.88-4.74,9.82-9.7,12.54-15.03,1.17-2.29.91-6.97,1.16-7.23.62-.64,3.49-.12,3.76-.33,2.21-1.75,9.64-8.06,11.19-10.22,3.72-5.19-.74-3.91,1.01-8.01,7.2,2.24,3.67-4.78,4.01-9.48,6.49,1.94,3.82,1.1,5.93-2.53,1.2-2.06,5.48-9.21,7.12-9.99,1.97-.94,12.91,1.7,5.94-3.98,1.14-1.34,7.6-6.12,7.85-7.09.31-1.19-1.43-4.2-1.5-6.05-.39-10.53,4.72-8,9.65-13.86,1.85-2.2,4.71-9.82,5.23-10.27.95-.8,4.07-.59,4.62-1.39.5-.73.19-4.88,1.35-7.14,1.19-2.31,3.39-2.5,4.68-4.32.82-1.17,3.73-6.75,4.56-8.44,1.15-2.34.38-7.9,5.92-7.02.88.14,4.51,9.78,10.62,2.58-.75-1.56-2.44-1.06-3.3-1.49-3.93-2,9.07-6.69,9.81-8.02,2.51-4.51-2.38-6.09-2.46-8.44-.06-1.68,1.53-3.54,1.76-5.28.24-1.78-1.2-3.29-.35-5.24.27-.62,7.95-10.3,8.56-10.61,2.37-1.2,2.69,2.62,4.48.57,2.3-2.64.21-5.67.5-5.98.12-.12,1.97,0,2.89-.59,4.46-2.92,9.76-15.07,9.13-20.43,9.67,8.26,3.82-4.46,5.46-7.97.13-.28,3.37-4.23,3.88-4.74,4.43-4.45,1.68-2.89,3.22-5.31,4.16-6.55,9.9-12.72,14.2-19.7,4.46-7.24,7.62-13.91,13.23-20.77,3.04-3.73.9-7.45,7.99-3.5.58-6.07,6.36-7.71,9.02-12.56,1.2-.76,2.81.08,3.7.88Z"/>
      <path class="cls-1" d="M137.84,101.3c.6.51,2.05,0,2.71.91,1.33,1.79,12.97,34.76,13.48,37.88.41,2.5-.79,4.53.11,8.32.48,2.02,2.08,3.98,2.41,6.13l1.87-.92c2.17,2.67.59,7.6,1.15,9.32.4,1.22,2.2,1.25,2.88,2.42,1.01,1.73,12.59,36.01,12.83,38,.32,2.68-.77,4.41-.62,6.54.21,2.85,3.16,2.28,2.84,4.13-.44,2.52-4.17,6.11-4.81,9.28-1.01,5,1.27,9.44-.23,14.27,5.99-.36,3.01.3,3.58,2.09.84,2.62,5.6,6.78,8.42,5.42l-2.99-3.5,6.99,2-2.99,2.97c3.47-.55,5.43,10.34,6.13,10.9.77.61,3.01-.6,3.99.7.39.52,2.32,6.86,2.55,8.05s-.93,2.82-.5,4.6c1.34,5.65,7.52,12.6,8.33,19.7.15,1.36-1.84,3.74-1.44,5.38.17.71,3.23,2.38,3.88,3.45,2.72,4.48,9.23,23.54,10.6,29.18.79,3.23.24,8.67,1.42,11.4.53,1.22,2.36.22,3.11,1.25,1.49,2.05,16.12,43.02,17.25,47.62,1.05,4.26-2.36,6.4.16,7.78.6.33.28-3.89,1.98-.99,1.92,3.28,3.45,9.41,4.86,13.26.81,2.21,1.52,3.78,2.19,5.66,1.04,2.91,2.22,5.94,2.45,9.07l-.99-1.99-2.98,1.49c2.21.92,3.63,6.8,4.24,7.3.72.59,2.36,0,2.72.23.34.22-.99,6.52-.43,8.03,7.65,6.66,8.93,18.6,12.43,27.95l-3-6c-.61-.47-2.06,1.99-2.49,1.98-.91-.02-5.82-10.28-6.02-11.91-.16-1.37,2-3.46.95-5.09s-3.55-2.38-4.98-3.93c-4.24-4.62-2.97-9.84-5.24-14.76s-8.92-7.8-6.22-15.29c-.21-.26-4.29,2.65-4.06-2.41.06-1.25,3.25,1.52.53-5.56-2.41-6.28-8.01-9.71-8.52-10.69-.79-1.52-.9-5.67-2.98-9.59-2.91-5.5-5.12-16.82-6.88-19.1-1.77-2.28-4.09-1.07-6.56-7.68-1.45-3.89-3.98-9.11-4.96-11.93-.46-1.32.75-3.4.44-5.31-.24-1.49-5.44-3.07-6.3-4.98-.16-.36-.38-7.36-.27-7.8.34-1.37,2.17-2.8,2.75-4.28,3.39-8.6,2.17-16.22-5.91-21.41-5.15-3.31-11.05,1.19-13.36-1.92-.2-.27-2.38-5.92-2.45-6.31-.22-1.29,1.44-1.59.82-3.69-1.7-5.8-4.43-5.79-6.35-7.98-2.06-2.35-1.25-8.2-1.98-9.34-.17-.26-2.77,2.09-4.23-3.35-.62-2.31.42-3.7.1-4.97-.38-1.54-8.26-11.81-9.37-15.66-.58-2.01-.19-6.45-.6-6.91-.31-.34-2.24.05-3.76-1.72-3.95-4.59-7.13-17.19-10.15-22.67-.61-1.11-1.87-.68-1.93-.77-.38-.61,2.01-1.72,1.86-3.32-.15-1.65-3.47-4.09-2.88-6.66-1.64-.27-.56,3.87-2.48.98-1.79-2.69-1.12-5.38-2.25-7.77-.74-1.57-2.51-1.88-3.57-3.51-1.01-1.55-5.52-13.45-6.1-15.76-.36-1.45.49-3.31,0-3.98-.78-1.05-3.15-.56-4.47-2.66-.85-1.34-.26-3.78-.83-5.06-2.59-5.83-4.12-8.31-6.72-15.32-2.95-7.96-6.69-12.75-9.85-19.19-1.5-3.05-1.34-7.89-2.66-10.06-.55-.9-2.45-.97-2.91-2.32-1.88-5.49,3.5-8.35,3.68-11.03.28-4.14-3.79-.24,2.22-7.06,3.2-3.63,3.39-4.1,7.41-7.29,2.91-2.31,7.48-7.86,11.47-6.49.52.18,8.72,5.65,9.11,6.03,1.18,1.13-.1,4.15,2.31,6.18Z"/>
      <path class="cls-1" d="M272.73,85.35c.18.33,1.61-.17,1.84,1.66,2.19,17.97,4.67,39.77,3.29,57.1-.1,1.26,2.54,4.74,2.62,7.1.08,2.27-2.22,4.01-1.97,4.34.06.08,1.58-.31,1.94.74,1.3,3.79,1.78,15.86,2.12,20.79,3.54,50.29,9.37,100.06,13.09,150.73.12,1.6,1.63,3.44,1.79,5.38.72,8.98-6.47,23.82-6.94,31.01-.17,2.54,1.06,5.05,1.06,7.88,0,3.57-2.07,6.49-.1,10.5-5.32-1.16-2.21-4.66-2.37-8.33-.41-9.42-5.92-16.02-6.54-24.3-.27-3.58,1.34-6.73.76-9.63-.44-2.2-2.89-4.14-3.74-7.35-.64-2.42-.33-8.18-.02-10.81.22-1.91,1.66-3.12,1.66-4.91,0-4.23-4.24-2.18-4.74-2.67-.3-.28-.58-7.47-.46-8.13.44-2.36,2.64-3.32,2.42-7.24-.32-5.73-2.81-4.3-4.68-5.9-1.05-.9-2.63-12.31-2.29-14.2.44-2.46,3.33-3.09,3.04-5.96-.32-3.23-4.78-12.13-5.03-15.17-.28-3.33,2.91-6.38-1.99-8.41l-1,2.99c.56-2.18-.97-4.76-.89-6.55.08-1.91,1.88-3.32,1.85-4.95-.03-1.81-2.76-3.53-3-6.09-.25-2.7,1.47-3.81,1.53-4.89.07-1.36-.35-6.68-.69-7.83-.67-2.28-4.43-2.87-4.6-4.14-.12-.88,1.61-2.61,1.28-4.64-.68-4.17-8.06-10.81-2.75-15.93,3.66-3.53,4.57-.18,6.25-.48,3.91-.7,4.92-8.07,5-11.49l-4.99,3.99c.83-3.44,1.04-9.83-.51-12.99-1.56-3.19-9.28-4.86-11.44-6.56-4.82-3.79-.79-19.2-1.58-24.6-.3-2.06-2.31-3.66-2.46-5.38-.55-6.28-.55-6.04-1.79-12.18-1.97-9.77-2.87-19.62-4.48-29.52-.39-2.4-3.29-8.44-2.57-9.6.25-.4,2.21-.39,2.69-1.78.47-1.35.42-7.26.12-8.86-.86-4.54-6.59-4.43-8.23-7.77-.5-1.02-2.72-11.36-2.65-12.31.13-1.68,2.06-2.5,1.78-4.7-.23-1.84-2.49-3.96-2.9-7.22-.58-4.6-.34-15.87,2.57-19.47,1.28-1.59,3.37-1.38,4.18-2.33.54-.63.34-2.31,1.25-3.2.55-.55,13.13-5.22,14.6-5.42,11.65-1.6,13.73,6.5,15.29,16.53,1.24,7.98-.83,18.44.17,24.76.44,2.74,2.42,5.12,2.86,8.2.53,3.67-.15,19.28.34,20.17Z"/>
      <path class="cls-1" d="M415.83,11.23c.83.64,2.33.54,3.12,1.35,2.95,3.01,2.69,16.98,2.51,21.5-.58,15.26-3.71,30.77-4.98,46.02-6.02,71.9-11.49,143.82-19.5,215.49-2.49-2.58-5.71-6.18-9.49-6.63-2.27-.27-2.81,1.38-4.31,1.4-2.5.03-6.52-2.66-9.69-1.77l2.99-2.99-3,.46c-1.65-3.51-.94-7.15.27-10.7.5-1.46,2.39-2.43,2.59-3.41.41-1.94-2.79-4.42-2.79-4.86.01-.71,6.87-3.2,3.97-9.78-.59-1.34-5.58-.47-3.95-5.12.85-2.42,4.74-.94,4.96-2.11,1.1-6-4.68-7.86-5.04-9.19-1.07-3.93,1.31-9.22,1.01-13.28,10.93,4.21,7.09-7.32,8-14l2,5c3.13-.32,3.41-6.03,1.98-7.01-.55-.38-2.93,1.53-4.03.62-.86-.71-.78-2.71-1.5-3.56-1.04-1.24-4.17-1.34-4.46-2.56-.25-1.03,2.55-3.59,2.95-6.03.64-3.87-1.22-11.1-.79-12.75.34-1.31,2.39-1.99,2.84-4.22.7-3.47-1.07-6.25-.99-8.98.2-6.97,2.91-20.16,1.31-26.32-1.68-6.46-4.18-7.12-3.31-15.7.53-5.27,2.81-3.86,4.1-6.85,2.3-5.33.16-14.71.89-20.63-9.39,2.08-1.48-8.1-1.4-10.49.1-2.82-3.65-4.89-2.45-8.81.71-2.33,3.81-2.37,3.93-3.29.1-.76-2.64-7.33-2.95-10.04-.21-1.86-.62-12.91-.13-13.38.38-.36,4.64.37,5.01.01.21-.21.16-5.76-.05-5.97-.38-.37-4.08.51-4.93-1.53,1.04-7.45,12.46-8.39,12.51-15,.04-4.51-5.87-.27-7.95-6.48-.38-1.13.58-2.4.28-3.38-.43-1.4-2.61-1.25-2.89-2.34-.46-1.76-.39-9.5,1.53-10.3l3.49,2.99c.25-4.07,2.12-7.95,4.71-11.01,7.13-.28,15.15-.1,21.63,3.22,1.12.58,1.3,1.88,2.02,2.43Z"/>
      <path class="cls-1" d="M461.17,87.87c1.18,1.43,1.42,3.27,1.22,5.06l-12.92,74.93c-9.48,5.36-18.93,13.14-12.55,24.78,1.79,3.26,6.2,5.9,6.25,9.23-8.21,41.11-13.54,82.85-22.01,123.9-.54,2.63-3.45,18.82-5.19,18.79-.65-2.05-4.66-5.55-5.06-6.88-2.03-6.82-3.42-15.3-1.45-22.09l-3.98.99c-1.5-4.46,2.62-6.07,3.55-8.93.35-1.08,2.39-11.64,2.42-12.7.08-2.72-5.22-7.26-2.97-12.36l3.99.99c-.9-3.17,1.12-6.89,1.06-9.54-.07-2.93-2.59-4.14-2.79-6.06-.21-2.07.39-12.57,1.29-14.35,1.03-2.06,3.19-1.83,3.54-5.53.37-3.92-1.9-5.62-2.07-8.07-.21-3.08,2.96-7.85,2.96-11.08,0-2.37-1.93-3.48-2.08-5.84-.47-7.54,1.73-10.54.13-19.08-.77-4.11,1.78-7.49,2.35-11.64.4-2.93.45-15.46,1.75-16.68.59-.56,4.03.4,4.87-1.66.6-2.25-2.77-4.31-2.96-7-.21-2.91,1.94-7.45,2.03-10.96.18-6.91-1.15-15.74-1-22.85.01-.65.75-5.45.94-5.66,2.13-2.28,2.84,1.93,3.01,1.99,3.19,1.2.12-4.73.03-5.54-.78-7.41.15-13.87,2.19-20.71.52-1.76,2.28-2.72,2.71-5.29,1.15-6.78-2.1-6.45-2.85-9.14-.77-2.79,2.5-3.55,3.38-5.32,2.25-4.51-1.18-3.77-1.97-4.96-1.32-1.98,0-5.92.98-8.02l3.49,7.99c-.83-2.52,1.04-6.44.73-8.35-.25-1.56-3.43-4.16-3.32-6.12.02-.38,2-6.41,2.35-7.27.7-1.71,3.06-2.63,3.17-4.68.03-.62-.93-8.24-1.12-8.88-.98-3.3-3.39-1.94-2.69-9.08.15-1.56,6.09-15.22,6.79-15.98.29-.32,7.4-3.41,7.82-3.49,3.85-.76,16.94,3.89,20.21,6.41,9.92,7.64,2.46,25.04.31,35.19-.9,4.24.75,9.34-3.17,12.83-4.16,3.71-7.66.51-8.41,9.57-.6,7.26,2.39,5.91,5.03,9.13Z"/>
      <path class="cls-1" d="M318.8,295.25c1.24,1,3.29,1.56,4.01,2.28.95.95.39,2.46,1.26,3.15,2.47,1.94,4.18-1.29,2.4,4.91,3.21-2.09,6.57,2.49,5.86,5.29-.89,3.49-14.15,8.55-17.53,11.04-1.41,1.04-2.83,4.97-5.84,5.66-1.18-2.5-.92-5.62-1.75-8.24-.46-1.44-2.16-2.2-2.54-3.46-.47-1.55-2.8-14.52-3.08-16.92-.87-7.33,1.97-4.81,2.75-6.99,1.76-4.92-2.68-4.83-3.66-7.09-.88-2.05-1.71-10.58-1.28-12.74.24-1.2,2.9.1,3.14-1.1.45-2.31-.44-5.9-.07-8.46h-2.99s-.99,8-.99,8c1.26-4.18-1.49-11.12-1.04-14.44.35-2.61,3.4-3.47,3.63-5,1.35-9.2-7.35-17.08-6.59-26.55l3.99.99c.68-.8-1.27-20.23-2.04-20.95-1.29-1.19-5.4,2.94-3.95-6.04l3.97-.47c.42-4.98-3.7-4.34-4.52-5.46-1.65-2.28.4-6.07.22-8.45-.35-4.66-5.03-6.62,2.29-9.12-3.66-4.22-6.72-6.18-4.99-12.81.3-1.16,4.13-.83,3.06-6.22-.51-2.58-2.96-2.16-3.13-3.11-.35-1.95,2.28-4.24,2.09-6.8-.13-1.81-1.84-3.32-2.01-5.16-.61-6.46-.15-4.69-1.78-11.13-.55-2.18-2.49-20.39-2.25-21.63.14-.72,2.88-.14,2.06-4.16-.21-1.02-2.5-.11-2.91-.55-.29-.31-.25-6.9-1.13-8.43,5.05-.53,4.4-.83,4-6-.9-11.7-6.29-23.24-6.74-35.19-.09-2.3,3.3-6.94,2.7-9.75-.35-1.66-2.72-.58-3.41-1.53-3.66-5.02.79-10.62,2.02-15.99.61-2.64,1.07-6.71,1.44-9.57.61-4.65-3.53,5.37-5,3.51.46-12.63,26.11-21.52,32.42-10.91,5.59,9.41,3.21,32.12,3.54,43.46.14,4.65.01,9.6.17,14.01.08,2.12,2.06,3.74,1.95,6.92-.19,5.31-4.9,6.32-6.32,9.78-4.21,10.27,5.88,13,7.18,21.31.62,3.95,1.44,19.99,1.14,24.01-2.42,31.86,2.68,63.56,3.97,95.89.25,6.21,1,23.77-.29,28.8-1,3.92-12.23,14.67-14.93,21.07-1.74,4.13-2.82,8.03-1.06,12.42,2.37,5.92,6.93,3.16,10.27,4.74,1.18.56,1.47,2.51,2.3,3.18Z"/>
      <path class="cls-1" d="M177.25,65.41c-.1.22-2.98.1-1.84,3.66.31.96,2.74,0,3.89,2.19.22.42,1.71,6.73,1.72,7.26,0,1.53-1.75,2.55-1.54,3.53.18.89,2.42,1.23,3.06,2.23,2.66,4.17,1.81,10.4,2.38,14.36.37,2.55,2.88,6.72,2.63,8.37-.06.39-4.43.76-.08,6.19,1.19,1.49,2.71.43,2.87.58.68.67,4.62,16.46,4.81,18.46.22,2.31-1.59,12.93.51,14.23,1.55.96,5.23-1.63,4.74,5.69-.1,1.48-1.8,2.44-1.73,3.77.11,1.89,3.69,5.94,4.62,8.38,1.64,4.31,10.01,34.85,9.97,37.99-.02,1.68-1.93,2.33-1.6,5.51.59,5.69,3.45,3.77,3.68,3.98.86.79,4.93,19.95,5.58,22.71,2.24,9.59,4.42,19.52,7.32,28.86,2.39,7.71,1.5,13.11,2.43,19.54.24,1.64,2.73,4.22,3.59,6.49,1.48,3.89-.23,6.74.46,9.4,1.87,7.22,6.14,14.25,7.36,22.8.35,2.44-.69,6.98-.59,7.34.33,1.15,2.53.98,2.73,2.07.7,3.78-3.21,13.72-2.07,18.4,1.21,4.93,8.31,6.38,9.13,8.9.44,1.37,0,3.22.45,4.55,5.35,15.38,10.15,31.07,11.72,47.09.08.78,1.83.59,2.34,1.88,3.27,8.24.76,14.39,2.29,20.63,1.36,5.53,5.95,12.51,7.32,17.91.51,2.02.88,4.15,1.08,6.23l-6.5-6.99c-1.12-6.32-5.59-14.49-6.81-20.2-.38-1.79.24-8.71-.69-9.81-1.88-2.23-1.71,2.58-2.98,2,.01-6.98-7.32-17.84-7.8-23.72-.16-1.99,1.15-4.06.87-5.6-.13-.71-2.7-1.29-3.87-3.38-.56-1-4.32-12.07-4.27-12.74.04-.56,2.1-.5,2.13-1.14.23-5.01-3.8-2.2-4.06-2.42,1.97-3.52-6.1-13.74-4.76-16.81.1-.23,1.33-.12,1.55-.67.86-2.22-1.36-8.44-4.78-5.5l-12-35.52h3.99s-2.01-3.49-2.01-3.49l-1,1.99c-1.67,1.39-4.73-12.58-5.98-13.51l2.99-.49c1.11-4.02-3.05-5.08-4.05-6.7-1.22-1.97-.99-5.47-2.15-7.64-.65-1.2-2.18-1.39-2.77-2.45-1.88-3.37.72-7.55-.69-12.05-.94-2.99-4.01-5.03-4.87-8.12-.66-2.36-.22-4.57-1.02-6.98-1.77-5.39-9.16-9.7-4.94-15.05,1.61-2.04,4.76-1.92,5.36-3.63,1.26-3.57-.88-8.35-.95-11.87-.05-2.48,1.77-5.71,1-7.87-.72-2.01-3.35-1.29-4.84-2.2-2.06-1.27-3.59-3.76-6.15-4.85-1.9-.81-5.03-.61-6.33-1.49-.86-.59-.39-2.19-.88-2.74-1.02-1.14-2.33-.95-3.51-3.05-.91-1.62-5.68-16.53-5.19-17.3l3.96.5c-2.69-4.36-7.38-6.09-8.53-11.53-.82-3.91,1.53-7.27.34-11.26-.61-2.05-3.67-6.26-5.78-3.7-2.25-3.41-.44-10.24-1.12-12.37-.41-1.27-2.35-1.4-2.92-2.37-4.41-7.51-4.38-14.13-6.59-21.06-1.39-4.37-5.26-8.56-6.64-14.44-.56-2.4.18-7.1-.69-9.12-.51-1.17-2.2-.34-2.78-.85-3.8-3.37-2.28-16.53-3.28-21.13-.21-.95-2.63-.13-2-3.12.12-.56,6.64-6.64,7.98-8.11.76-.84,2.65-1.23,2.9-1.64.4-.64-1.12-1.83.09-3.26,1.78-2.11,4.57-2.32,7.04-1.55.22-2.02-2.46-.04-1.99-1.98,5.62-4.98,21.03,3.15,18.77,7.81Z"/>
      <path class="cls-1" d="M86.27,211.37c.37-.21-.18-2.43,1.69-1.77l3.51,3.5-2.99.99c2.58,5.25,6.28,9.76,9.19,14.81,1,1.73.78,4.19,1.93,6.11,2.29,3.85,9.68,9.04,12.15,14.87,1.15,2.71-.17,4.01-.27,6.71,7.51-3.76,4.31,6.24,5.41,8.01.79,1.28,3.33,1.29,4.32,2.25.67.65,8.95,15.31,9.24,16.26.95,3.09-4.77-1-2.98,1.97,1.35,2.24,8.81,7.87,10.48,11.52,1.01,2.22.19,6.53.52,6.98,1.75,2.32,1.78-2.6,2.98-1.99,1.67,5.46,3.96,11.89,6.59,16.91,6.38,12.17,17.14,24.74,23.71,38.34,1.43,2.96,1,6.72,1.82,8.06,1.44,2.33,6.58,1.91,5.73,6.96-.34,2.04-5.49,6.02.66,6.76,2.03.24,1.36-3.62,3.48-2.03,1.14.85,6.93,16.49,10.02,18.51-2.99,1.1-1.41.72-.99,3.48l1.98-1.99c1.27,4.37,4.28,8.01,6.34,11.99,4.81,9.33,13.23,20.06,16.9,30.28.99,2.75.47,5.81,1.88,8.2.99,1.68,2.99.56,3.93,1.9.32.46,5.28,9.16,5.49,9.68.83,2.01-.66,3.57-.12,5.94.58,2.57,5.41,8.24,6.99,11.1.67,1.22.51,3.19,1.07,3.93,1.13,1.48,3.56.5,4.35,1.14.56.46,2.29,8.35,3.31,10.19,2.79,5.04,8.52,12.55,11.91,18.09,1.96,3.21,3.06,6.42,5.96,9.53-1.08.08-2.3-.27-3.33-.02-1.28.31,0,2.44-1.66,2.02-2-2.46-2.68-8.74-4.35-10.66-1.17-1.35-3.73-1.89-5.52-3.98-9.45-11.06-16.32-25.27-24.49-37.02-7.32-10.52-21.23-25.65-26.81-36.79-.88-1.76.08-3.15-.06-3.37-.51-.83-5.3-3-6.87-6.58-2.91-6.65,4.66-11.75-1.47-20.54-4.7-6.73-11.94-3.47-15.45-5.55-1.49-.88-6.63-10.11-6.01-12.51l-1.83.85c-3.94-8.26-17.91-21.18-17.04-30.43.69-7.34,6.64-9.15.71-17.75-3.21-4.65-6.82-6.85-12.44-7.59-1.49-.2-3.2,1.18-4.21.77-.35-.14-4-5.04-4.77-5.8-3.02-2.99-3.7-1.57-6.64-7.32-3.6-7.04-9.4-12.36-14.02-19.98-5.8-9.57-2.71-6.8-11.18-14.82-4.56-4.32-23.1-28.55-26.25-34.17-.25-.44.76-1.67.68-1.74-.23-.18-1.81.45-3.07-.68-1.04-.93-11.49-15.65-12.4-17.39-3.33-6.35-.34-5.24-7.05-10.89-3.58-3.01-2.09-6.1-3.15-8.78-.58-1.47-2.6-1.12-3.1-3.96-1.06-6,1.1-14.26,3.78-19.6.42-.83,2.79-1.59,3.43-3.77.46-1.57-.34-3.13.21-4.71,6.11-17.59,12.09-14.39,19.06.55,2.38,5.11,2.5,10.93,4.56,15.44,1.12,2.44,4.37,4.7,4.73,7.36.48,3.52-4.68,8.55,2.27,11.73.37.17,7.19.66,7.51.47Z"/>
      <path class="cls-1" d="M468.48,527.58c2.89-6.81,8.72-10.51,10.98-17.54,1.84-1.1,3.23,2.5,3.69,2.58,5.85,1.07,6.83-4.59,9.31-7.55,1.79-2.14,5.92-2.4,5.02-6.47h-5.99c1.29-6.68,5.46-4.43,8.94-5.51,1.98-.62,3.32-3.44,3.76-3.51,2.16-.36,4.61,1.13,5.72.86s3.09-5.34,8.03-5.7c1.91-.14,3.88,2.17,5.55-.66-4.64-9.59-1.61-19.47,8.28-23.69,2.07-.88,4.51-.48,6.34-1.73,1.72-1.17.36-6.36,1.6-7.83.46-.55,4.25-1.02,5.49-2.5,1.79-2.13,3.14-6.81,6.26-10.25,4.61-5.1,9.58-5.8,12.98-9.02,2.1-1.99,3.29-6.64,6.53-8.52,4.99-2.89,3.83-.55,8.86-6.59,4.15-4.98,2.56-4.98,5.2-9.3,2.28-3.72,8.85-5.43,10-8.08,1.03-2.35-1.74-5.06.45-6.48,2.52-1.63,5.24,1.76,4.01,4.51,2.25,2.69,12.08-14.31,12.9-15.69.85-1.44.33-3.04.88-4.01,1.89-3.36,5.93-5.74,6.23-10.29,2.31.62.4,3.3,4.06,2.59,2.79-.54,2.01-3.18,3.17-4.35,1.41-1.43,10.55-3.55,9.76-6.74l-4.98-3.01c1.92-4.36,7.54-4.03,9.71-5.78,1.46-1.18,2.12-5.53,3.24-6.25,1.6-1.04,4.34.18,6.61-1.39,2.56-1.76,1.9-5.7,2.96-8.04,1.76-3.88,12.36-4.68,15.39-6.6,3.32-2.1,1.87-7.02,4.56-9.42l3.49,5.97c4.44-7.41-.6-8.15-1.55-11.96-.84-3.37,4.56-.53,6.84-1.19,1.91-.55,7.25-6.37,11.71-5.85,2.4,1.78,2.33,28.95,2.05,33.55-.37,6.25-2.04,19.83-4.84,25.16-2.16,4.11-19.16,18.47-23.49,20.5-5.12,2.41-9.69-.24-14.67,3.34-3.92,2.82-3.11,6.28-5.19,9.81-3.27,5.55-36.83,27.36-44.74,33.26-31.69,23.61-62.89,47.89-94.79,71.21l-40.32,28.17Z"/>
      <path class="cls-1" d="M120.69,193.38c.44.62,2.98.77,4.66,2.85,3.26,4.03,5.86,14.23,7.15,19.36l1.91-.96c4.08,11.54,10.59,22,15.26,33.27,2.81,6.8,2.01,5.83,6.06,11.94,1.71,2.58,9.25,18.6,10.28,21.72.34,1.03.68,1.9.47,3.03l-1.98-1.02c-.43.6.53,6.56,1.01,7,1.95,1.79,2.04-3.87,3.98-1.99.11.11.42,2.39,1.02,2.99l-3.01,1.99c5.04.3,5.39,2.23,7.19,6.33,3.86,8.82,1.37,17.72,5.6,25.4,2.39,4.34,5.52,3.71,8.23,6.77,3.5,3.94,19.32,35.66,19.59,40.07.06.93-.5,1.59-.62,2.44,7.04.24,1.13,2.04.68,3.27-.77,2.09,2.02,6.72,3.77,7.82,1.58.99,3.64.51,4.65,1.57,3.2,3.37.09,8.02,1.35,10.37,1.07,1.99,5.97,1.47,6.34,6.66.14,1.89-2.4,3.73-.78,6.33,5.79-2.95,3.66,2.68,6.86,6.66.32,3.06-2.76,1.16-2.86,1.34-.37.61,1.36,6.69,1.88,7.41,1.14,1.59,5.04-.12,6.02.69.61.5,2.92,12.01,4.36,15.13,1.29,2.8,6.24,8.11,6.53,9.54.52,2.57-.9,4.6-.66,5.68.22.97,7.75,8.88,8.65,10.26,4.86,7.46,5.49,15.95,8.14,22.88.98,2.58,3.89,3,5.02,5.06s-.2,3.49.2,4.7c.13.4,3.16,5.21,4.08,6.93,3.25,6.07,8.01,10.85,7.77,18.72-10.04-3.9-12.21-17.75-17.13-26.36-4.5-7.87-14.42-19.33-17.14-27.98-1.01-3.21,2.1-4.04-2.71-3.67,2.08-6.14-1.99-7.81-4.4-12.1-10.35-18.41-22.18-36.35-32.78-55.22-26.43-47.08-51.96-95.26-77.18-141.92-2.02-3.74-9.32-14.92-10.05-17.71-.36-1.38.57-2.74-.11-4.98-1.06-3.48-4.5-3.53-6.19-5.35-2.52-2.71-9.94-17.46-10.33-21.18-.52-4.99,3.78-11.92,1.78-15.3-.26-.45-1.73-.64-2.15-1.28-8.27-12.42-11.71-6.1-16.21-9.83-1.5-1.24-1.11-3.69-1.97-5.03-4.49-6.98-2.06-4.35-3.91-9.99-1.63-4.96-6.77-5.39-7.32-9.8-.19-1.58.91-3.02.6-4.52-.25-1.19-1.74-1.84-1.77-4.11-.02-1.62,1.79-6.91,2.73-8.4,1.06-1.68,3-2.21,3.12-2.42.38-.67-.93-2.15-.39-3.77,1.87-5.63,8.01-10.33,13.91-6.93,1.5.86,7.4,9.58,8.45,11.54,1.51,2.81,1.53,5.74,2.74,8.26,1.39,2.86,5.07,6.55,5.99,10.09.82,3.13-.96,4.85-.16,8.01,1.1,4.29,5.3,6.09,7.01,9.07,2.12,3.69,5.67,17.15,6.78,18.71Z"/>
      <path class="cls-1" d="M447.46,435.58c-1.26.29-2.01-3.96-2-4.41.02-.67,1.64-.62,2-1.3,3.45-6.62,2.68-14.2,6.79-21.01,1.45-2.41,5.08-2.96,4.23-5.77-.41-1.37-3.78-.85-2.99-2.99,1.4-3.76,5.73-1.29,5.99-1.52-.95-1.86-1.17-6.56-.77-8.5.13-.62,1.64-.41,1.79-1.16.79-3.73-1.76-5.69,1.97-10.84,1.54-2.13,4.27-2.88,5.31-4.77.5-.9,6.3-18.32,6.49-19.47.41-2.5-1.04-7.86-.78-8.21.28-.38,3.12-.34,3.78-1.25.87-1.21.69-6.66,2.31-9.18,1.12-1.74,5.85-4.74,6.88-7.13.82-1.91-2.1-.86-2.07-2.9.07-4.24,2.88-10.37,3.01-14.16.08-2.22-1.15-3.82-.74-6.65.68-4.65,6.07-6.63,6.68-8.42.84-2.46-.91-4.21-.89-5.77,0-.65,1.58-.6,2-1.3,2.84-4.81.85-6.67,2.04-10.68,1.07-3.6,4.87-7.24,4.99-11.6,1.15-.84,5.68,3.45,3.97-2.33-.29-1-2.87.26-1.75-4.92,1.71-7.87,4.73-3.02,5.76-3.74,3.69-2.58-5.05-13.57,1.5-15.01l2.5,2.99c-.06-4.02,2.19-5.36,6.01-5l-1.01-2.51c8.09-.33,4.57-.67,6.71-4.23.84-1.4,1.96-1.17,2.87-3.2.86-1.93.37-3.58.67-4.57.21-.71,2.61.25,1.52-3.7-.6-2.17-4.07-6.71-4.29-8.25-.32-2.33,1.58-6.82,1.24-8.89-.3-1.83-3.61-3.84-3.28-5.69.77-4.3,6.17-2.56,6.57-2.95,1.05-1.02-3.74-11.85,4.99-9,.86-3.91-4.32-.85-5.99-2.49,4.69-2.83,3.57-7.97,5.22-11.69,2.36-5.34,6-6.98,6.73-14.45.22-2.27-1.19-4-.56-6.38.28-1.06,9.79-18.54,10.52-19.37,1.04-1.18,2.8-.4,3.08-.62,3.5-2.74-4.73-.62-5-2.52-.59-4.11,7.51-4.9,8.94-11.05.77-3.3-4.05.51-4.94-.44-1.7-3.1,3.92-8.22,4.01-8.71.25-1.47-.79-2.95-.5-4.42.97-4.9,7.34-6.87,7.41-7.41.11-.97-1.02-2.48-.9-3.91.02-.29,1.89-5.21,2.11-5.4.88-.77,8.3.84,9.86,1.36,8.49,2.81,18.5,13.99,18.95,23.13.62,12.6-20.58,49.64-26.8,63-18.86,40.54-37.28,81.27-56.24,121.76-3.04,3.49-11.97,1.89-16.1,9.9-3.84,7.46-1,12.76,1.73,19.77l-51.54,109.92Z"/>
      <path class="cls-1" d="M430.63,498.74c.41-.46,2.6-.04,3.37-1.09s.57-4.67,1.38-6.64c1.07-2.62,4.76-7.64,4.74-10.92,0-1.17-3.74-5.62.85-5.52,1.26.03,3.63,2.81,4.5,2.02.11-.1.81-2.69.57-3-.95-1.21-3.73-1.23-3.44-3.3.07-.5,4.32-8.47,4.83-8.98,1.15-1.14,8.51-6.8,8.96-8.36.51-1.73-.92-3.46-.69-4.75.11-.61,4.21-10.75,4.53-11.35,1.66-3.07,6.95-6.63,8.52-11.56,1.41-4.41-1.89-4.48,3.24-8.73.92-.76,2.67-.69,3.22-1.23.95-.95,2.15-7.76,4.26-9.25-4.28,1.38-5.73-4.75-3.99-6.5.16-.16,2.38,1.61,4.01.59,1.44-.89,1.51-4.09,2.56-5.51.9-1.22,2.85-1.66,3.92-3.08,2.45-3.26,1.21-11.96,4.43-16.33.83-1.12,4.49-1.09,5.62-3.7.87-2.01-2.3-13.67,3.16-14.82,1.79-.38,4.41,2.29,5.33-3.69.32-2.11-1.89-1.44-2.55-2.41-2.22-3.29,3.68-12.33,7.03-13.04.69-.15.37,1.9.49,2,2.13,1.73,1.96-2.55,3.42-4.05,1.23-1.26,4.23-1.69,4.51-2.06.22-.29-1.57-4.58,2.06-6.46,1.77-.92,3.7,2.27,6,.98,1.32-.74,6.32-5.98,6.58-7.33.32-1.66-2.67-3.44-2.65-5.51.01-.94,3.09-.55,3.11-3.02.02-1.94-3.77-4.9-3.72-6.03.03-.7,1.69-1.63,1.54-2.83-.11-.88-2.12-2.48-2.64-4.39-.54-2.01-1.28-9.85,1.47-10.37,1.37-.26,3.66,1.21,4.37.66.29-.23,3.81-5.84,3.87-6.2.23-1.36-1.9-2.58-1.91-2.88-.06-1.47,4.09-1.08,5.08-2.13.84-.89,2.05-5.78,2.48-7.38,1.29-4.81,1.08-10.25,1.69-14.35.23-1.53,2.92-3.45,3.49-5.39.48-1.61-.15-4.37.36-5.13.58-.86,3.62.35,5.08-4.38.81-2.65.41-5.09,1.02-7.02,1-3.18,3.5-6.14,3.79-9.72,1.81-.98,4.65,2.25,4.96,2,.08-.06,0-1.2.67-1.86.64-.62,1.91-1.07,2.09-1.38,1.28-2.14-.85-8.18.74-10.78.82-1.33,3.79-1.43,4.98-3.02,1.07-1.43,1.04-4.08,2.11-5.89,1.22-2.06,7.21-5.47,4.42-8.08-.2-.19-6.53,2.73-4.99-.48,1.45-3.02,5.58-1.4,5.84-1.59.8-.58,2.33-7.01,2.94-8.63.66-1.73,2.84-3.95,3.01-4.97.29-1.68-2.26-3.36-1.69-5.62.79-3.15,7.6-2.1,7.63-10.41,0-1.61-2.23-2.47-.82-4.58,1.01-1.52,3.89-1.58,5.33-2.73,4.34-3.46,8.48-9.57,10.48-14.74.56-1.46,2.09-6.39,1.25-7.21-.33-.33-4.12.54-4.96-1.52,2.45-4.39,12.15-8.18,16.96-5.99,5.42,2.47,12.03,19.65,10.78,25.76-.73,3.54-13.04,24.85-15.77,28.22-4.51,5.56-12.8,6.49-13.94,14.06-1.45,9.66-.13,10.55-4.89,20.11-7.1,14.26-17.44,28.54-25.34,42.66-45.97,82.11-89.04,166.19-136.66,247.34-2.18,3.71-5.79,10.79-8.32,13.68-.88,1.01-1.09,2.46-2.37.66-5.32-7.5,4.01-9.92,6.39-14.63,1.08-2.14.98-5.89,1.28-6.23Z"/>
      <path class="cls-1" d="M523.21,400.33c-.97.62-3.41.5-5.14,1.35-6.85,3.37-7.95,9.22-7.65,16.36-17.11,27.35-36.34,53.7-53.89,80.9-4.67,2.34-6.57,11.29-11.54,15.67-3.02,2.96.36-4.71.51-5.53.24-1.26-.48-3.53.1-4.37.43-.61,3.05-.34,3.96-1.78,1.32-2.09.35-5.92,1.34-7.41,1.06-1.61,4.61-.2,6.09-1.91.93-1.07,1.26-4.89,2.27-6.73,2.66-4.85,6.12-9.44,9.04-13.92,4.36-6.7,1.85-8.05,3.39-13.65.64-2.31,4.76-4.96,4.76-5.32,0-2-1.6-3.7.04-6.62,1.22-2.17,8.48-7.22,10.97-8.32,1.17-.52,3.79-.3,3.98-.49.53-.53-1.87-9.21,1.93-13.33,1.27-1.37,5.97-.24,6.15-4.14-2.81-6.17-2.56.44-6.05.5-1.24-5.27,2.35-3.67,5.02-6.47,2.87-3.02,2.39-7.49,3.89-9.86.86-1.36,3.42-1.05,4.55-2.7,1.45-2.13,3.44-9.19,3.55-11.96,2.38,1.34,3.73.39,1.98,2.99,6.65.94.95-4.54,1.21-6.28.76-5.11,5.35-5.06,6.32-6.68,1.21-2.01-.22-5.08.73-6.8.16-.29,4.81-4.13,5.25-4.23,1.02-.23-.29,2.47,1.48,1.99,1.22-4,2.21-9.64,4.31-13.19,1.62-2.73,7.73-7.23,9.16-10.83.88-2.21.2-6.4.69-6.87.31-.3,1.93.24,2.59-.34.39-.34.2-1.6.66-2.32.3-.47,1.55-.54,1.63-1.09.34-2.23-2.07-4.07-2.1-5.79-.01-.74,8.59-5.72,9.06-11.05.59-6.64.84-2.4,2.34-5.73.63-1.4.49-4.6.66-4.77.61-.65,3.51,1.76,4.52,0,.72-.88-.72-5.46-.32-6.36.69-1.53,2.58-1.67,3.22-2.72,1.74-2.81,2.97-7.85,6.62-9.47,2.1-.93,3.07,1.26,4.8-1.03,3.13-4.15.53-6.08,1.53-9.46.57-1.92,3.18-3.36,3.51-4.68.54-2.13-2.03-3.3-1.81-4.65.28-1.71,6.11-4.6,2.91-8.63,2.65-.97,9.24,1.92,9.9-.64.28-1.09-.73-2.75-.25-4.13.57-1.61,2.61-.59,2.34-2.22-4.17.86-5.01-.75-3.52-4.54,2.02-5.14,10.74-9.54,13.05-14.51,2.09-4.5-3.89-12.82,5.97-15.97,1.94-.06-.46,7.55,2.49,5,.94-.81,3.19-7.09,4.44-8.08.38-.31,8.11-4.38,8.58-4.53,1.51-.46,3.56.54,4.07.18,1.89-1.34,2.05-13.47,1.94-16.56l5.99,1.99c1.5-4.49-3.32-5.84-3.79-8.69-1.3-8.04,1.83-5.79,4.22-8.34,2.97-3.16,5.72-11.17,11.55-8.48,1.49.68,6.28,7.99,7.2,9.84,9.34,18.91.79,28.68-9.78,43.56-8.51,11.97-18.55,22.91-27.21,34.79-16.56,22.74-30.52,47.94-48.94,69.06-7.49.34-14.4,5.01-15.18,12.87-.35,3.54,1.11,5.98,1.01,8.87-.13,3.8-9.51,16.85-12.25,20.83-2.4,3.48-18.65,26.5-20.08,27.42Z"/>
      <path class="cls-1" d="M497.91,232.26c.45,1.54,3,4.76,1.13,8.38l-36.57,105.96c-1.87,1.89-1.29.34-1.69-.98-.77-2.61-3.82-9.38-3.9-10.51-.23-3.19,3.26-2.27,4.12-3.47.31-.43,1.44-5.89,1.44-6.7-.01-2.92-2.32-3.77-2.52-5.8-.29-3.02,2.53-7.94,1.57-11.55l4.99,1c-.41-5-.28-10.19-.52-15.15-.07-1.5-1.58-2.84-1.28-5.12.21-1.61,1.98-3.93,2.31-5.73,1.12.98,1.96,2.24,2.29,3.71.41,1.88-.66,5.82,1.21,6.28,2.35-4.85-.51-11.14.04-15.47.28-2.22,2.57-2.79,2.98-5.06.59-3.25-1.2-6.06-1.08-8.95.2-4.66,5.06-11.53,3.08-17.51,6.47,2.56,4.59-.45,6.99-5.48-8.82-3.81-.69-2.65-.25-7.18.24-2.46-3.2-7.79-1.75-11.35l4.98,2.99v-4.99c-8.54,2.12-2.45-1.52-1.26-4.68.46-1.22-1.15-3.89.31-5.71,1.54-1.92,5.55-1.33,3.94-3.59-.16-.22-3.17.5-1.99-4.01,9.19,2.4,2.57-14.62,5.02-17l3.99,1c.48-3.4-2.03-5.04-2.1-8.47-.12-5.84,4.03-12.13,2.11-18.53l4.99,1.99c-2.2-3.07.5-4.16.96-6.54,1.53-7.95,4.95-16.14,5.94-23.05,1.38-9.67.12-20.83,3.61-30.3.71-1.93,4.1-4.55,4.34-5.75.29-1.48-2.11-3.36-1.86-5.78.29-2.78,3.81-9.89,4.53-13.01.51-2.21-.46-4.38-.16-5.86.14-.7,2.37-7.45,2.7-7.68.4-.28,5.51,2.41,5.88-5.58.12-2.68-2.8-5.6,1.57-6.42,12.27-2.3,27.37,13.92,26.23,26.21-2.28,24.49-23.76,71.11-32.75,96.27-1.98,5.55-10.1,33.67-12.44,35.56-2.33,1.88-6.65,2.47-9.58,5.42-6.42,6.48-3.64,11.01-1.53,18.21Z"/>
      <path class="cls-1" d="M17.34,391.4c-.12.12-5.19-.11-1.88,1.71,2.63,1.45,8.78-1.05,10.55,3.51.6,1.56-.69,12.18,1.68,13.78.75.5,2.67.05,3.71.73,2.23,1.47,3.38,4.23,6.62,4.43,3.82.23,9.71-2.62,12.12-2.79,1.29-.09,2.17,1.47,3.08,1.61,1.91.28,5.93-1.99,5.9,2.73-.01,1.88-3.8,3.88-1.67,5.01.55.29,5.85,1.5,6.44,1.49s4.26-8.42,5.06,4.01c2.26,2.67.71-2.98,4.57-.56,2.06,1.29.83,4.1,1.48,5.48,1.61,3.47,2.97.49,5.05.09,4.43-.86,3.01,1.43,4.87,3.04.88.76,2.36.03,3.56,1.34,1.61,1.76,1.71,4.16,4.03,6.05.89.73,5.45,3.05,6.99,3.95,1.39.81,3.79.51,4.58,1.55.69.92-.76,2.77-.16,4.04.71,1.49,3.65,2.13,4.61,3.45,1.04,1.43.88,3.43,1.91,5.09,3.97,6.42,5.54.48,6.54.48.51,0,2.04,2.51,2.96,3.02,3.72,2.05,8.93,4.17,12.24,7.25,1.45,1.35,1.53,4.93,5.36,6.23,2.41.82,6.02-3.48,5.96.99,0,.6-3.92.07-1.07,4.12,1.26,1.78,7.86,1.21,10.03,1.39l-2.98,3.93c2.98-.6,12.8,13.54,13.97,12.06.82-2.58-3.97-6.56.07-6.57,5.26-.01,1.89,3.32,2.21,5.13.25,1.41,3.64,1.7,5.06,2.61,2.53,1.63,5.2,4.46,7.4,5.6,3.25,1.68,10.31,1.17,9.36,6.63-.2,1.16-2.6-.08-2.08,1.58,4.9.17,6.74,7.73,9.48,1.03,3.54.36,4.26,5.52,4.64,5.84.85.73,3.87-.39,4.81.21.83.53-.14,7.05,2.03,8.46,1.91,1.25,15.19-.39,14.03,4.95-.96,4.39-6.15-1.28-7.24-1.73-8.33-3.46-11.91,4.39-19.49,1.48-58.86-38.64-122.86-67.7-184.99-100.5-3.28-6.99-5.66-14.9-6.98-22.52-1.01-5.84-2.74-19.03-1.07-24.49,1.63-5.32,6.83-.29,10.82-.15,2.1.07,3.84-1.34,4.46-1.27,1.98.21,2.7,3.07,1.36,4.51Z"/>
      <path class="cls-1" d="M435.24,370.42c-.6.54-6.97.8-.82,4.6l-2.93,8.56c1.31-4.67-3.17-11.74-2.95-15.56.13-2.19,3.01-3,3-4.94,0-2.4-3.46-2.62-4.56-4.53-.5-.86-.61-8.96-.42-10.38.82-6.14,4.17-15.74,6.24-21.76.72-2.1.32-4.38.89-6.12,1.06-3.24,6.94-2.11,3.71-9.93-.47-1.13-2.81-.54-1.96-5.24.2-1.1,4.21,0,5.03-2.03-4.95-5.64-1.74-7.29-.37-12.5.83-3.14-2.41-5.4,4.4-5.01.74-3.04-2.29-4.11-3.26-6.25-2.87-6.33,3.2-5.51,3.86-8.68.57-2.78-1.75-3.58-1.6-6.06l3.99.99c-.74-4.83,2.45-8.75,3.02-13.49-4.72-2.68-2.45,4.12-6.01,3.48,1.03-6.13.32-12.33,7.99-13.01.94-2.43-3.98-3.5-3.98-4.49,0-.75,3.18-1.18,3.47-3.33.23-1.67-.79-3.57-.49-5.58.22-1.44,1.64-2.34,1.72-3.86.13-2.32-1.85-8.27-1.51-10.11.51-2.75,5.9-1.16,5.74-7.2-.08-3.08-5.98-1.21-3.26-6.13,1.69-3.06,10.42-4.56,12.44-6.72.33-.35,2.61-8.81,2.65-9.29.09-.97-.7-7.84-.96-8.6-.6-1.74-3.79-2.4-4.9-4.1-.62-.95-2.12-15.55-1.76-16.84,1.17-4.22,9.03-2.87,6.83-9.73-3.68,2.94-6.69-2.31-5-4,.68-.67,7.27,1.76,6.62-2.52-.17-1.11-2-2.41-2.42-4.19-2.3-9.82,3.66-5.14,4.79-6.3.59-.6.12-8.89.31-10.72s1.4-3.13,1.63-4.83c1.14-8.2-2.6-6.58-2.95-7.97-.13-.54,3-9.12,3.53-10.46,1.64-4.17,8.26-10.19.5-11.5,2.87-3.63,1.12-9.43,1.95-12.83.26-1.04,2.46-.98,2.92-2.32.78-2.26-.99-4.44-.7-6.65.14-1.08,1.36-2.25,1.55-3.48.38-2.42,1.12-10.22,2.13-11.67.95-1.34,3.71-.17,4.13-.57,1.16-1.12-1.06-15.48,4.63-16.71,8.5-1.84,22.72,7.14,20.36,17.19-21.32,94.75-44.24,189.61-68.53,283.48-4.33,3.6-8.62,5.53-8.01,12.09.35,3.8,3.5,6.99,3.48,10.31,0,1.56-3.5,16.86-4.17,17.46Z"/>
      <path class="cls-1" d="M486.48,531.58l2.93-4.53c3.07-.31,8.6-1.48,10.8-3.72,1.38-1.41,4.65-9.23,6.86-9.69,2.85-.6,2.41,7.37,8.95,1.99,1.74-1.44,1.93-4.18,3.48-5.51,1.84-1.58,5.48-1.34,6.97-4.04.52-3.29-3.47.17-3.98-.49-3.15-3.98,6.31-4.07,7.78-4.73,1.7-.75,4.03-5.07,5.44-5.58,3.05-1.09,11.79-1.1,13.26-4.62.79-1.89-2.39-3.95,2.29-7.01,3.85-2.52,7.84-2.62,11.5-4.28,2.17-.99,3.71-3.86,6.72-3.79,1.07-2.46-1.99-1.8-2.07-2.54-.34-3.3,2.81-6.84,6.06-4.44-1.47-3.22,2.37-7.34,5.02-8.48,1.92-.82,4.05-.21,5.97-1.03,1.42-.61,2.6-3.32,4.95-4.05,1.94-.6,4.75-.03,5.86-.65.84-.48,5.07-7.17,5.41-7.52.79-.8,4.01-.62,5.73-1.84,3.87-2.74,2.74-6.84,11.04-9.96,4.56-1.71,9.31-2.5,13.56-5.44,3.36-2.32,8.32-9.44,10.93-11.07,1.75-1.09,4.42-.93,5.66-2.38,1.54-1.79-.16-3.91.32-4.65.99-1.52,5.77-1.43,7.53-2.46,1.57-.92,2.16-4.36,3.01-3.47.5.52,4.25,7.64,7.01,4.99,1.94-1.87-2.08-3.31-1.99-3.49,1.54-2.99,6.09,1.27,8.09-1.92l10.36-17.64,6.54-2.94c-2.79,9.67,6.28,1.59,5.01-4.01,10.07,1,6.03,20.96,4.7,28.2-1.67,9.1-4.14,18.45-10.74,25.26l-183.61,95.39c-5.62,3.63-11.26.9-17.35,2.14Z"/>
      <path class="cls-1" d="M23.68,457.2c.64.36,1.68-.48,2.81.78s1.77,4.21,2.15,4.45c.88.54,3.16-.06,4.81.67s2.72,3.85,5.45,5.52c5.79,3.54,13.5,3.19,18.3,5.74,2.66,1.42,4.2,6.3,7.01,7.08,2.17.61,5.64-1.86,7.04,1.87,1.54,4.12.36,5.44,5.71,8.26,2.54-1.33-.04-5.77,3.49-4.98-1.02,7.68,2.55,5.26,5.99,6.71,5.5,2.31,7.29,3.89,14.01,3.31l-2,4.98c2.41,1.6,6.27-.12,8.09.55,2.47.91,4.21,3.89,6.66,4.34,3.13.57,5.97-3.19,11.3.65,2.79,2.01-2.16,4.7-2.04,4.98,2.06,4.66,14.17-1.41,16.97,6.04l-2.98,3.46,18.77,3.67c4.87,9.31,6.1,3.88,11.51,5.52.58.18,8.7,4.81,8.7,5.32-.02,1.45-4.31,1.22-3.97,1.99,2.15.6,5.78,6.11,6.17,6.34,1.29.76,3.88-.74,5.89-.42.69.11,12.36,4.69,12.95,5.07,1.98,1.28-.33,1.56-.6,2.99-.53,2.86,3.07,2.39,4.03,3.46.37.41-.34,2.15.44,2.6,3.24,1.84,9.29-.6,11.68-.2,1.2.2,2.34,3.75,3.87,4.76,3.95,2.62,7.57-1.21,8.92-.96,1.16.22,12.77,8.63,14.9,9.9,1.42.84.65,1.53.74,2.96l-4.98-2c-.66,2.98,5.8,3.06,2.02,5.54-1.82,1.19-7.8-1.07-10.24-1.83-16.85-5.25-35.69-14.83-52.54-21.46-17.11-6.73-36.79-12.52-53.23-19.77-7.22-3.19-3.01-2.6-4.68-7.22-.65-1.81-8.03-8.18-10.32-8.79-7.61-2.04-9.07,2.89-14.03,4.12-4.13,1.02-36.54-13.08-43.48-15.6-6.94-2.53-17.72-3.39-21.95-9.05-3.03-4.06-15.76-36.76-13.56-38.93,1.85-.73,8.17,1.73,8.99.99.36-.33-2.17-4.03.51-4.99.87-.31.28,1.36.7,1.6Z"/>
      <path class="cls-1" d="M686.47,460.6c-3.24,9.12-10.45,35.27-18.73,39.76-2.85,1.55-33.87,12.86-35.77,12.86-1.22,0-6.21-2.94-9.25-3.36-9.55-1.32-12.72,3.72-15.89,11.82-45.24,16.49-90.06,34.93-135.83,49.93-4.07,1.33-8.14,3.29-12.52,2.97,1.04-5.7,2.42-6.24,8-7l-1.01-1.98c2.18-.09,6.67-.72,8.33-1.93,1.29-.94.97-2.75,2.4-4.13,1.51-1.46,5.13-2.96,7.28-2.96l-1.01-1.96c3.84-.21,4.22-2.91,8.48-3.13,5.03-.25,6.08,2.6,10.52,3.09-3.64-9.28,5.85-8.57,11.59-10.91,2.3-.94,3.23-2.98,5.17-3.83,5.82-2.56,13.92-3.64,18.27-5.65.85-.39,6.28-4.2,6.47-4.55.48-.89-.91-2.6-.05-4.02.15-.25,4.31-3.41,4.61-3.54,2.95-1.27,3.77,1.14,5.61,1.34,1.94.21,12.07-9.55,13.83-11.81,3.7,6.62,3.89,1.47,6.06.08,1.74-1.12,4.51-.71,5.23-1.31.37-.31,3.95-8.38,4.36-8.63s8.75-1.31,9.21-1.23c1.17.19.65,3.04,3,2.98,1.85-.04,2.36-2.26,3.44-2.82,1.2-.62,6.96-.62,6.21-3.58-.27-1.05-5.63-1.74-2.01-4.04,1.14-.72,3.11.72,5.03.15,1.73-.51,8.53-5.27,10.22-5.97,1.9-.78,4.38.23,4.82-.09,1.25-.89,1.55-6.3,1.94-6.57.18-.12,2.24,1,4.21.81,3.48-.33,3.9-2.66,4.49-2.8,1.23-.28,5.82,1.37,6.21.96s-.18-3.11,2.11-4.5c1.17-.71,3.34.44,5.03-.04,4.68-1.32,10.67-4.82,14.99-6.88,1.55-.74,3.88-.26,5-1.03,1.03-.71.52-2.87,1.59-3.64s3.65.16,5.33-.32c4.19-1.19,7.4-4.08,13.02-2.56Z"/>
      <path class="cls-1" d="M472.51,591.59c-4.25-9.16,12.02-8.81,17.55-10.92,3.54-1.35,12.52-9.08,16.77-8.15,1,.22.98,2.17,1.61,2.6,1.82,1.24,10.61-3.98,13.81-4.35,2.27-.26,3.76.87,6.22.4,5.43-1.03,14.88-8.1,18.74-9.36,1.6-.52,3.63.11,5.3-.7s2.91-5.22,6.74-6.26c2.07-.57,10.14-3.17,10.82-3.26,2.81-.39,5.99,2.05,7.46,1.5,1.94-.72,3.58-5,5.03-5.93,3.01-1.95,11.03-3.14,14.45-6.55,2.3,5.68-.83,4.04-3.51,6.98,9.08.58,6.43-.81,8.72-5.75,1.83-3.94,12.32-2.99,15.96-6.09,3.9-.12.96,4.53,1.32,4.85.92.82,17.02-4.54,18.52-5.98,1.59-1.52.32-5.02,4.47-4.03-1.29-2.28-5.05-.47-3.99-4.98.65-.66,11.47,2.14,13.39,1.78,2.25-.42,1.73-3.65,3.6-3.78-3.19,18.89-16.98,41.14-37.79,43.7l-145.17,24.3Z"/>
      <path class="cls-1" d="M51.37,519.71c.16.18-.86,4.44-.68,4.71,2.08,3.2,8.02.97,11.25,1.15.99.06,9.06,1.87,9.38,2.22,1.65,1.77-.06,6.16,5.93,6.64,2.31.18,3.29-1.81,5.68-1.91,9.06-.38,10.42,13.74,15.94,16.17,3.62,1.59,10.06,1.59,13.12-1.08,2.68-2.33,2.05-6.64,6.17-1.04,7.93-.4,14.67,5.26,20.03,10.84,3.47,1.14,6.8-1.89,10.25-.32,3.5,1.6,0,3.42.46,4.5,1.37,3.24,8.29,1.47,11.11,2.45,1.42.49,2,2.36,3.88,2.48,2.65.17,5.9-1.91,9.87-.72,2.12.64,10.76,8.77,14.47,10.52,2.33,1.1,9.89,4.33,11.88,4.96,1.5.47,8.02-.96,8.33-.66.18.17-.29,1.85.27,2.65,1.88,2.7,10.18,1.67,13.2,3.38l10.54,4.94c-54.58-8.57-108.88-19.28-163.24-29.25-6.08-2.7-25.61-31.12-27.94-38.06-.61-1.81-.63-3.79-.82-5.68,2.36.07,9.43-.47,10.89,1.12Z"/>
      <path class="cls-1" d="M472.47,615.59c.38-5.46-1.18-10.79,5.02-12.45,6.76-1.81,9.44,2.89,13.46,2.47,3.31-.35,2.88-4.43,6.02-5.04,4.85-.93,10.04,3.59,15.49,2.02-.21-.94-.95-6.11.54-6.02,3.18,1.08,11.93,4.05,14.84,3.75,1.72-.18,3.48-2.16,5.35-2.51,2.12-.39,11.29-.4,12.16-1.34.46-.5-.11-2.85.57-3.91,1.79-2.76,10.85,1.06,13.54,2.03v-5c1.55-.24,2.38.07,3.61.95,2.67,1.92-2.92,6,5.39,3.03l-2.99-2.98c3.91-1.02,12.7-.64,12.01-6.01,3.72,5.55,8.86,5.75,11.01-1,3.87,4.92,7.15,2.75,11.97,5-.35-1.97.12-6.49,2.51-6.71.34-.03,6.39,1.53,6.69,1.7,1.4.79,1.73,3.8,4.81,3.03.19.86-.15,1.39-.4,2.09-1.64,4.6-25.54,24.95-30.57,26.43-6.13,1.81-32.26,2.59-38.49,1.42-5.01-.94-10.64-8.9-18.06-8.79-5.46.08-10.04,7.83-10.98,7.83h-43.5Z"/>
      <path class="cls-1" d="M124.3,583.81c.23.11.26,2.56,3.77,2.75,10.16.55,18.14-.23,28,4.99,3.84,2.03,5.94,6.77,12.42,5.04.57-.57-1.3-6.05,1.48-4.99,2.37.9,7.3,5.32,9.28,5.81,3.11.77,5.75-2.07,9.47-1.64,4.42.51,8.96,5.37,10.41,5.65,2.06.41,6.08-3.87,8.44-3.38,5.82,1.21-.05,4.4-.06,5.04,5.83,4.57,5.43.79,8.25-.83.77-.44,6.43-1.82,7.07-1.63.71.21.5,1.58,1.39,1.91,1.46.55,4.11-.7,5.11,1.51-1.49,5.28-1.41,7.58-7.43,8.44-7.68-1.66-36.17,3.67-40.98.17-3.79-2.76-2.39-7.44-10.94-7.16-9.97.33-9.7,8.87-13.18,9.9-1.74.51-12.38,1.28-14.83,1.27-9.79-.04-16.53-2.26-24.4-7.66-10.36-7.12-20.75-17.46-30.08-25.92,1.92-1.46,9.24,2.62,8.59-1.56-.26-1.69-3.05-4.23-.08-3.97,1.51.13,12.67,3.76,14.5,4.51,2.29.95,5.08,3.97,6.73,4.37,2.99.74,4.08-4.1,7.08-2.64Z"/>
      <path class="cls-1" d="M295.32,395.75c.56.95.04,2.67.16,3.84l1.98-1.99c.73,4.69,6,9.21,7.29,13.3.77,2.42-.39,5.07.14,5.74,1.09,1.38,3.47.32,4.68,1.6,1.45,1.53,12.6,21.17,13.79,23.98,1.28,3.02,4.79,14,5,17.02.7,9.9-3.64,20.64-9.07,28.68-1.14,1.69-7.06,9.39-8.33,9.68-4.26.95-1.45-7.7-1.41-9.48.05-2.01.21-9.58-.02-11-.41-2.56-3.76-2.32-3.82-5.15-.04-2.2,2.61-4.56,1.81-7.67-.27-1.06-2.55-.99-2.97-2.32-.59-1.81,1.01-3.94.9-5.83-.09-1.59-1.44-2.84-1.76-4.27-.41-1.87.15-4.22-.34-5.66-.67-1.95-3.31-1.25-3.74-1.74-.6-.69.34-5.26-1.15-6.86,8.73-1.02.63-4.76.2-7.73-.48-3.31,1.35-6.03.87-8.77-.41-2.32-2.9-2.4-4.18-4.98s.58-5.69.14-7.84c-.15-.74-1.74-.61-1.94-1.45-.9-3.69-.66-8.04-2.08-11.74.3-1.33,3.76.48,3.86.64Z"/>
      <path class="cls-1" d="M151.48,630.58l10.33-3.8c3.27.23,4.37,5.27,6.67,6.3,7.8,3.5,5.08-2.09,6.49-4.48,3.24-5.48,6.69-.72,9.22-.22,2.65.53,14.13,1.46,16.78,1.2,7.74-.74,6.82-5.87,10.23-6.83,2.78-.78,5.08,1.19,6.68.92.86-.15.53-2,.61-2.07.67-.54,4.38,4.45,4.52,5.46.75,5.62-4.09,16.03-4.45,22.11-.77,2.31-3.2,4.22-5.63,4.37-4.09.26-19.25-4.37-23.99-5.92-13.12-4.29-25.12-11.04-37.46-17.05Z"/>
      <path class="cls-1" d="M488.18,627.92c.46.32.65,1.8,1.28,2.14,5.01,2.67,8.53-2.88,10.42-2.41,1.38.35,1.89,4.61,6.09,4.83,5.13.26,2.99-5.76,5-5.86,2,.35,6.15,5.73,6.99,5.74.63,0,2.65-2.61,4.51-1.76,1.89,3.33-3.22,6.46,1.88,7.47.84.17,8.54-.41,9.43-.67,1.74-.51,2.89-3.7,5.69-2.79l-2,4.98c5.43-.39,2.76-3.99,3.21-6.25.16-.81,2.95-4.72,3.28-4.73.39-.01,2.75,2.94,6.97,3.03s1.48-.45,2.15-2.04c1.25-2.96,3.91-.81,6.23-.54,1.2.14,2.66-.65,3.43-.49.68.14,2.7,3.69,2.6,4.39-.31,2.02-15.48,12.51-18.2,13.83-10.14,4.91-18.61,1.11-28.9-1.47-14.74-3.7-28.92-9.8-43.78-12.72.6-6.71,9.08-7.85,13.7-4.67Z"/>
      <path class="cls-1" d="M482.82,649.26c4.55,5.11,6.59,5.81,12.81,3.2.75-.31.87-1.69,1.56-1.84,5.99-1.37,17.33,7.03,22.28,10.46-1.3,2.85-28.98,6.33-33.45,6.55-3.22.16-12.41.54-14.9-.19-1.29-.37-1.23-.78-1.23-1.9,0-5.61,1.67-12.37,2.6-17.96l4.98,2c1.35-10.19,3.07-2.89,5.35-.33Z"/>
      <path class="cls-1" d="M383.47,396.6c-1.21,1.27-10.95-4.66-13-5.49-1.48-.6-6.67-1.33-6.9-1.6-.36-.43-1.07-10.49-.94-11.17.44-2.47,6.01-11.45,8.8-12.29s14.06-2.25,14.87,1.27l-2.82,29.28Z"/>
      <path class="cls-1" d="M418.46,441.59c-1.53-.22-1.6-4.29-1.82-5.65-.92-5.68-.38-12.43-1.4-17.61-.43-2.16-3.76-7.04-3.6-8.06.15-.95,1.89-2.21,2.37-3.65,1.34-4.11,2.06-12.81,4.43-15.6,1.75-2.06,2.92-.41,3.82-.75.17-.07.1-1.28.95-1.6,2.9-1.13,5.41-.27,8.26-4.07l-13,56.99Z"/>
      <path class="cls-1" d="M459.47,353.6l-19.01,62.98c-1.32.56-1.02-4.15-2.98-1.99-.16.17.52,4.09-2.51,3.98-4.39-.16,2.44-5.34,2.52-5.68.86-3.54-.47-7.7,1.48-12.3.95-2.24,3.71-4.31,4.09-5.94.3-1.31-1.98-2.38-1.5-4.36.24-.97,4.58-5.2,5.61-8.5,2.2-7.08-.62-14.12,1.52-20.48.55-1.63,9.07-9.06,10.78-7.71Z"/>
      <path class="cls-1" d="M408.28,383.78c.99,1.61-3.61,21.37-4.71,24.44-.37,1.02.48,1.82-1.48,1.28-6.67-1.83-4.52-3.97-5.84-8.18-.9-2.87-3.96-2.61-3.56-7.96.4-5.39,4.6-4.18,5.74-6.56,2.09-4.32.07-9.71.05-14.21,4.76,1.56,5.13,7.22,6.93,9.59.7.92,2.57,1.12,2.86,1.59Z"/>
      <path class="cls-1" d="M214.46,471.61c1.26,1.48-2.5,4-1.55,5.99,1.16,2.41,3.72.59,5.04,1.94,1.23,1.25,1.5,4,2.49,5.32,1.59,2.1,6.79,4.27,7.65,7.69.34,1.36-4.34,4.35-2.52,6.96.41.59,9.27,2.49,10.4,4.09.87,1.24,3.32,8.9,3.49,10.99l-31.53-32.04c-1.06-1.87.71-3.67.56-5.44-.23-2.54-5.21-5.32,2.98-3.52v-3.01c.77.71,2.88.91,2.98,1.03Z"/>
      <path class="cls-1" d="M227.12,541.96c4.06,4.43,10.37,6.54,14.86,10.63,3.19,2.9,5.53,5.47,4.49,10-1.69,1.72-22.96-10.07-25.01-12.49-1.24-1.46-3.07-6.35-1.94-7.47.29-.28,7.06-2.15,7.6-.68Z"/>
    </g>
  </g>
</svg>