<?xml version="1.0" encoding="UTF-8"?>
<svg id="Calque_2" data-name="Calque 2" xmlns="http://www.w3.org/2000/svg" viewBox="0 0 693.57 636.18">
  <defs>
    <style>
      .cls-1 {
        fill: #554696;
      }
    </style>
  </defs>
  <g id="Calque_1-2" data-name="Calque 1">
    <path class="cls-1" d="M571.19,55.98c.21-.15.08-1.31.41-1.54.85-.58,2.18,1.2,3.77-.66,1.6-1.88,1.18-4.47,1.95-5.93.54-1.03,2.16-.4,3.08-1.32,1-.99,1.56-3.77,2.94-4.85-9.19-.96-1.27-3.96-.96-5.2.6-2.35-.76-4.99-1.03-7.29h3.99c-2.47,33.42,17.65,63.91,14.88,97.37-.62,7.46-3.25,14.37-4.84,21.58,2.22,1.26,5.31.53,7.27,1.08.96.27.09,2.72,4.69,1.47-15.7,17.43-29.27,39.3-50.95,50.05-5.51,2.73-11.73,3.81-17.02,6.96.03,2.45,10.81,6.36,13.23,6.84s12.53.04,13.62,1.79c.39.63.39,6.05-.02,6.71-.32.51-5.72,1.65-5.84,4.14,2.98-.99,3.79,2.77,4.7,3.03,3.47.95,8.44-1.61,12.3,0l-1.01,1.98c6.81-2.13,3.47,7.05,6.29,9.74,4.33,4.12,9.79-2.06,9.64,5.66-.13,6.2-5.8,5.56-9.46,9.56-8.22,8.97.95,20.66-.44,31.05l3.98-4-.98,7c2.66-.38,1.62-4.56,2-5,.14-.17,2.58,1.32,4.32,1.05.29-.05,3.82-3.99,3.94-4.26,1.55-3.37-.33-5.17.18-7.81.92-4.79,7.25-5.13,5.56-10.97l1.48,2.99c2.7-2.45,8.88-7.92,12.78-6.86,2.4.65,10.63,10.96,12.54,13.56,9.24,12.54,16.07,29.28,26.16,40.84,4.28,4.9,9.81,8.14,14.53,12.47,1.84-4.47,2.66-2.19,6.02-2.03,1.04.05,2.25-.65,3.01-.55,4.01.56,11.2,17.05,12.5,21.05,2.42,7.46,6.51,26.81-1.64,31.42-6.72,3.8-6.43-1.32-8.01-1.81s-3.37.78-4.92.76c-5.9-.09-2.13-3.54-2.92-4.89-.64-1.09-5.51-2.58-6.83-3.89-3.7-3.67-8.79-11.62-13.18-15.08-2.08-1.63-5.32-1.79-5.54-1.99-.14-.13,1.06-1.74.35-3.7-.39-1.1-2.65-1.52-2.36-3.27l-1.97,1.98c-.93-1.93-.57-5.55-1.49-7.06-.97-1.59-4.29.53-5.6-1.58-2.28-3.68.91-8.97.07-10.35-.11-.17-1.77,1.61-3.44-1.04-2.18-3.46,1.47-7.97-5.54-6.95-.34,2.04,2.81.12,3.06,1.54.2,1.1.42,8.92-2.05,6.45-1.06-1.06-3.09-9.03-6.01-10-.06,2.09-.15,4.18.23,6.26,1.23,6.81,12.17,31.28,16.77,36.23,9.36,10.1,38.97,13.98,37.79,29.72-.24,3.25-4.02,14.18-7.29,14.79-6.81,1.28-19.41-.88-26.32-2.69-6.58-1.73-3.59-4.47-6.63-6.35-1.8-1.11-3.97-.9-5.66-2.36-1.99-1.71-1.72-4.45-1.91-4.62-.43-.38-1.91.87-2.51.88-.68,0-.44-1.29-.72-1.41-1.25-.51-3.24.03-3.77-2.45l3.01-.52c.58-3.23-4.07-4.95-5.25-7.75-.81-1.91-.45-4.29-1.24-5.76-1.19-2.23-2.73,1.86-4.51,1.01,3.13-7.07-1.98-7.24-3.28-10.2-2.56-5.83.81-3.35-4.78-9.24-2.5-2.64-4.02-3.14-4.77-3.81s-1.83-4.44-2.19-5.75c-7.56,10.51-13.3,20.67-24.08,28.41-14.13,10.15-26.84,12.55-43.54,8.66-4.17-.97-6.42-.63-9.75-1.08-7.56-1.02-5.63-4-7.6-5.48-2.41-1.81-12.7-4.26-16.04-7.99-1.5-1.67-.78-4.32-.98-4.53-.42-.45-3.19.91-4.35.74-1.25-.19-5.17-3.67-7.27-4.61-19.66-8.81-26.66.54-39.9,12.85-6.51,6.05-13.33,13.06-19.5,19.5-4.75,4.96-18.28,18.15-21.02,22.98-3.03,5.34,2.24,11.39-1.4,14.61-1.42,1.25-24.32,6.36-29.07,7.92-16.51,5.43-42.62,14.25-42.49,35.02-1.42,1.53-18.34-6.37-20.47-6.01s-.65,3.47-.84,3.81c-2.86,4.99-3.48,20.27-6.66,28.72-9.97,26.43-36.17,17.29-56.81,25.19-7.78,2.98-14.37,10.24-22.23,13.77-19.55,8.78-43.68,8.14-62.66,19.34-24.77,14.62-34.1,48.38-61.35,59.65-12.03,4.97-29.72,8.76-36.21-5.75-1.07-2.39-.26-5.55-2.77-7.23,2.01.34,4.92-5.48,1.51-4.48-2.18.64-10.62,7.14-12.99,9.01-15.59,12.28-28.12,31.26-50.51,30.96-1.19-6.07.65-14.34,4.1-19.37,1.52-2.22,5.14-3.91,6.33-7.67,1.42-4.46-.65-8.17,5.63-10.45,2.54-.92,3.87,2.3,3.92-5.5l-2.51.98c-2.22-3.35,3.13-1.72,4.86-2.32,4.3-1.5,3.13-6.03,5.16-8.66,2.16-2.8,5.15-1.7,5.51-2.01.43-.38-1.44-2.64-.58-3.99.48-.75,2.32-1.13,3.01-2.08,2.01-2.79,4.78-9.33,9.05-8.94,3.28.3-1.69,2.82-1.89,3.06-1.92,2.26-3.1,5.49-6.59,5.96.08,2.25,3.63.68,4.56.06.59-.39,9.49-9.42,9.83-10.04.48-.87-.59-1.88.99-4.06,2.29-3.16,7.49-3.91,8.2-4.94s-.85-2.83-.15-4.02c.42-.72,3.02-1.89,4.15-2.96,1.03-.98,1.28-2.91,1.43-3.04.81-.73,2.21-.37,1.98,1.48-.19,1.48-6.29,9.13-2.51,7.51,1.32-.57,11.54-12.57,13.99-15.02,1.37-1.37,3.75-2.33,4.64-3.45,1.16-1.47-.36-2.97,1.29-4.53,3.73-3.54,8.29-.61,8.55-.99.36-.54.05-2.47,1.45-4.09,1.78-2.05,8.56-2.98,3.6-4.4,1.9-5.16,8.63-4.05,11.97-6.04,6.02-3.59,1.83-2.94,10.38-4.81,5.92-1.29,7.37-4.57,9.61-5.22,2.66-.77,8.89-.59,12.02-1.95,2.27-.98,6.16-7.5,6.66-7.56,2.2-.27,5.21,2.65,8.42-.43,2.01-1.93-2.42-4.18,2.95-3.49-2.44-3.05,2.69-6.4,1.49-1.99,2.22.55,3.55-8.37,3.57-10.58.01-1.78-1.78-1.18-2.04-2.14-1.75-6.34.67-8.54-6.26-13.54-5.82-4.19-9.12-4.85-15.77-1.75-2.27-7.16-7.7-13.57-10.03-21-2.12-1.54-8.31,9.53-11.99,7.57-2.87-1.53-13.34-20.26-14.71-20.6s-3.2-.02-4.55.27c-15.46,3.3-34.08,23.8-51.28,24.78-11.45.65-38.63-9.88-40.27-22.78-.75-5.92,2.99-3.11,6.38-5.17,2.68-1.63,2.48-5.72,3.69-6.82.26-.24,5.44-3.64,5.76-3.79,2.52-1.18,4.9,1.03,6.02.13,1.2-.97.64-3.49,1.46-4.62.73-1.01,2.49-.67,3.21-1.25.91-.73,2.52-5.51,4.28-7.23,1.28-1.26,5.95-3.22,5.95-3.99,0-.39-1.88-1.18-1.47-2.48.79-2.49,4.4-3.92,5.31-5.74,1.44-2.87,2.9-14.52,2.01-17.57-1.72-4.37-16.83-22.53-16.76-25.21.02-.96,2.92-2.31,4.02-1.03l.97,5.54c8.05-1.34,10.74-1.7,13.93-9.56,11.66-28.8-13.54-56.99-21.98-83.89-.73-2.31-3.66-11.97-1.99-13.1,1.44-.98,13.73,1.11,16.03,2.06,3.61,1.49,5,4.47,6.79,5.46,2.76,1.53,9.96,3.51,13.21,4.04l-1,2.98c.65.55,4.5-1.97,7.07.51,1.35,1.3-1.24,4.16,1.45,5.5,5.26-3.21,2.27-1.27,4.17,0,1.48.99,9.05,2.42,6.23,4.42-1.15.81-2.51-.04-1.92,2.57,5.62-1.26,8.23,1.59,12.99,3.01-1.72-3.99,2.03-5.29,2.06-5.63.14-1.34-1.1-3.04-.97-4.77.36-4.69,2.7-13.88,7.48-15.62,1.14-.41,10.75-1.97,11.68-1.79,6.65,1.24,4.75,7.11,10.22,9.85,5.27,2.64,10.38,3.86,14.63,9.42.82,1.07-.11,2.56.46,3.46,1.68,2.64,4.69,4.84,5.46,8.08l1.48-1.99c1.22,1.71,4.04,3.37,5.07,4.93,1.75,2.63,1.06,4.76,2.38,6.65s6.9,5,8.7,6.77c1.13,1.11,4.2,6.26,4.54,6.46,2.04,1.2,6.58-1.83,9.29-1.83,1.88,0,4.25,1.43,5.84,1.1,1.1-.23,1.14-2.85,2.13-2.97.81-.1,3.62,2.36,5.85,1.75,1.35-.37,2.28-2.55,3.18-2.61.75-.05,2.23,1.57,3.96,1.64,4.5.16,9.09-1.01,12.28-2.88,1.47-.86,5.76-1.14,5.13,1.32-.46,1.77-8.6,14.11-7.85,14.67,1.15-.19,4.59.34,4.99,0,2.11-1.72-4.11-2.28-1.99-3.99.26-.21,5.96-.94,6.64-.94,3.27,0,7.28,2.98,11.61,2.69,6.53-.43,13.55-5.46,18.59-6.22,3.88-.59,11.38-.21,15.16-1.04,1.26-.28,2.51-1.53,3.99-1.5l-1.99-3.98,8.99-1.01.5,3c1.48-1.69,5.92-2.35,6.95-3.96.46-.71-.52-3.98.74-4.86,1.03-.72,5-.05,6.32-2.17l.49,3c7.7.52,3.74-4.56,5.13-6.87.65-1.08,5.66-.83,7.14-1.36.83-.3,7.16-3.02,7.69-3.31,3.38-1.84,6.28-7.02,8.49-8.51s5.62-1.08,7.51-2.49c4.43-3.32,1.8-11.86,11.05-.97,2.64,3.1.68,5.67,6.99,4.52-1.63-8.11,3.69-6.94,8.33-10.17,2.4-1.66,12.83-9.07,13.59-10.51.89-1.69.05-3.23.59-4.27,1.65-3.2,4.33-.84,4.48-1.06.23-.32-.41-1.99.24-2.77.3-.36,7.02-4.26,7.87-4.64,2.03-.89,5.5-.55,6.93-2.06,1.31-1.38.75-4.21,1.93-5.12,1.01-.78,2.6.63,3.59.45.43-.08,5.2-1.4,5.46-1.51,6.26-2.78,14.41-11.97,20.45-12.24,1.03-.05,3.09,1.29,3.54.9.37-.32-1.2-2.02-.11-3.53.69-.95,7.66-4.94,8.89-5.23,3.66-.85,9.2,1.27,12.48.61.49-.1,8.39-3.56,9.11-3.97,2.31-1.32,3.84-4.55,6.57-5.43,6.09-1.97,5.86,2.47,6.5,2.47,5.23.02,9.31-7.09,15.56-4.92-1.88-5.43,9.74-2.66,13.96-5.53,3.6-2.45-2.81-2.5-.95-4.44,1.34-1.4,10.13-2.23,12.42-3,2.75-.92,4.04-3.89,7.57-3.03-3.38-3.6-.6-2.84.89-5.63.69-1.3.82-3.49,1.34-4.12.97-1.17,4.88-.61,5.65-2.86,2.47-7.21-5.48,1.08-5.85-2.86-.05-.52,2.63-7.56,2.85-10.13.84-9.68-1.45-5.91-5.82-8.97-2.84-2-6.49-6.64-6.07-10.4l3-.5c-4.08-1.23-4.6-5.96-6.44-7.61-1.36-1.22-5.28.24-5.44.03-.31-.4-.05-2.12-1.13-3.38-4.64-5.38-10.51-1.49-14.01-3.03-2.16-.95-.67-3.87-2.57-4.36-2.13-.55-4.64.15-6.86-.19-3.46-.53-4.25-2.56-9.06-1-1.91.62-1.56,1.91-2.18,2.04-2.28.49-4.66-.84-6.44-.48-14.9,3.09-35.92,17.05-45.3,29.55-5.48,7.3-10.52,23.14-17.85,28.15-3.91,2.67-5.76,2.35-5.81-2.78-.02-1.86,2.02-1.29,2.14-2.08.36-2.3-1.75-6.23-.06-9.35l-1.98,1.99-1-5.99c-8.21,17.34-22.21,31.84-38.49,42.01-12.43,7.76-25.84,12.11-39.03,16.98-2.59-5.62-8.62,4.55-14.36,2.89-1.11-1.05-1.16-6.02,0-6.77,1.8-1.16,8.37,2.59,7.32-1.12-2.05-7.26,1.89-2.01,4.83-3.92.8-.52.98-1.89,1.71-2.44s2.28.38,3.01-1.15c.2-.79-3.17.16-.99-2.49-9.69.43-18.32,5.82-28,4l1,2.98c-2.18,1.43-9.39,0-9.86.18-.2.07.28,1.69-2.87,2.56-8.88,2.45-34.78,3.6-42.63-.91-3.53-2.02-2.13-1.18-5.35-2.56-6.41-2.75-6.23-6.4-7.38-7.25-.19-.14-5.79,1.25-3.91-1.01.31-.37,2.39.82,1.99-1-3.85-.35-7.94-3.35-9.84-6.66-1.9-3.31-1.51-7.37-3.09-9.91-1.43-2.3-5.81-3.27-8.08-5.92-3.13-3.67-6.44-12.57-9.53-16.47-2.8-3.53-11.72-9.12-14.43-12.57-1.36-1.73-2.11-9.24-4.5-3.47-6.34-4.84-13.37-5.52-20.54-7.49-1.44-.39-2.7-2.24-3.66-2.38-1.3-.19-2.55,2.12-4.75,1.9-1.63-.16-2.84-2.31-4.99-2.1-.5.05-.42,1.65-1.95,2.22-6.32,2.34-13.93,2.5-20.4,4.61-.05-1.22-2.23-1.94-2.28-2.42-.23-2.26,8.95-14.23,11.07-16.83,17.75-21.8,46.72-39.41,75.43-40.56,24.76-.99,44.02-1.58,68.14-4.86,10.96-1.49,21.15-2.39,31.42-5.74,17.96-5.85,32.31-13.78,48.49-23.35,6.6-3.9,4.46-5.88,6.42-8.6.81-1.12,2.52-.67,3.55-1.41,4.07-2.92,7.71-5.3,7.52-10.99l-2,4c-3.48-1.39-8.29-.34-11.31-1.03-.7-.16-.52-1.57-1.41-1.93-1.06-.43-2.9.26-4.35-.51-.31-.16-.93-6.57-.84-6.91.44-1.66,11.58-2.49,14.41-2.72,25.74-2.02,52.63-10.43,78.47-14.45,34.72-5.4,81.49-8.03,110.05,16.03,12.15,10.24,19.94,23.67,30.47,34.53.86.88,2.09,2.7,3.36,1.78ZM88,285.53c-2.11-2.4-7.83-5.8-10.74-7.76-4.23-2.86-32.01-20.17-34.91-17.59-.09,2.25-2.03,8.31-.93,9.93.51.75,3.37-.18,4.35,1.07,1.7,2.17,2.15,6.85,3.51,8.59.83,1.07,2.83,1.28,2.99,1.5s-1.53,2.47-.46,4.88c.53,1.19,7.81,7.09,9.62,7.62.5,3.74,3.3,11.78,6.18,14.13,1.86,1.52,12.64,4.65,5.22,8.26-2.02,2.26,6.45,2.71,8.6-.41,1.2-1.75.65-3.89,1.49-5.52,4.01-7.85,12.45-16.37,5.09-24.72ZM138.79,300.84c-5.39-10.38-11.58-20.64-18.63-29.97-1.35-1.79-7.69-11.8-9.81-9.69-.93.93,1.65,16.07,2.27,18.23,1.2,4.2,7.38,14.23,7.78,17.22.38,2.93-.37,6.52-.06,9.57l-1.99-1.02c2,3.86-.66,2.63-.95,3.63-.41,1.45.61,6.31.1,8.95-.75,3.86-3.7,6.94-3.92,8.04-.1.54.75,4.98.94,5.2,1.43,1.64,14.76,2.81,15.82,1.18.11-.16-1.77-2.45-.05-3.53,2.17-1.37,6.79.26,9.38-.63,1.29-.44,2.46-3.14,3.62-4.42.72-.8,2.54-1.15,2.82-1.62,2.67-4.55-1.73-8.29-2.99-11.09-1.55-3.45-2.87-7.22-4.34-10.06ZM106.34,369.19c-3.67.35-12.46-3.26-14.56,1-1.5,3.04,2.72,4.3,3.53,5.78,2.05,3.76-2.19,9.5,4.51,5.2l2.51,4,4.01-15.99ZM88.34,386.2c-5.88-1.53-7.3-8.71-7-14.01-3.07.5-3.76,3.52-5.46,5.03-1.15,1.02-4.11,1.13-4.52,2.54-.13.45,2.55,8.71,2.93,8.98.97.7,3.56.35,5.07.93,3.38,1.3,5.7,3.52,9.98,2.51l-7.99-3.5,6.98-2.47ZM115.34,553.2c-11.9,2.71-17.99,14.11-25.98,21.51-6.65,6.16-16.44,8.66-21.03,17,2.9.94,1.59.8,1.01,3.48,4.2-4.51,3.75.73,5.48,0,2.93-4.61,6.69-3.19,11.51-4,.97-2.45-3.31-2.9-2.99-3.49.19-.34,5.29-5.23,5.65-5.36,3.7-1.39,3.08,3.23,7.35,1.85l-4-3.98c8.93-1.07,13.42-8.4,18.6-14.91.75-.95,2.54-1.44,2.91-2.06.43-.74-1.68-7.76,1.49-10.03Z"/>
  </g>
</svg>