<?xml version="1.0" encoding="UTF-8"?>
<svg id="Calque_2" data-name="Calque 2" xmlns="http://www.w3.org/2000/svg" viewBox="0 0 617.15 662.85">
  <defs>
    <style>
      .cls-1 {
        fill: #554696;
      }
    </style>
  </defs>
  <g id="Calque_1-2" data-name="Calque 1">
    <g>
      <path class="cls-1" d="M234.04,106.57c-.13.17.16,1.06-.33,1.66-4.54,5.61-9.86,9.11-16.65,10.42-1.55,2.06,10.75,28.11,13.98,31.43-2.97.26-1.85,3.75-.48,5.54,1.06,1.39,2.88-.58,4.45.39.43.26,6.04,7.57,6.01,8.07-.09,1.33-4.73.93-1.99,3.02,4.35-1.35,2.94,2.4,6.05,3.92,1.84.9,4.98.49,6.37,1.45,1.18.82-.61,2.49,2.56,3.61.82.29,11.77-.14,12.3-.48,1.2-.77.61-2.78,2.28-3.97,1.23-.88,4.27-.92,4.42-1.1.63-.74-.9-3.59-.41-5.01.23-.68,6.78-10.15,7.97-11.94.93-1.4,2.88-1.67,3.52-2.71,1.08-1.73.84-5.16,1.86-6.66,1.15-1.68,8.33-2.43,9.07-4.16,1.9-4.38-3.23-.77-3.99-1.5.1-7.41,6.52-4.7,6.94-5,.17-.12.53-2.69,1.59-3.95.47-.56,5.91-4.33,6.43-4.49,1.99-.61,3.48,1.27,4.57,1.44.2.03.84-3.94,2.45-2,.48.58-1.88,5.35-2.53,6.02-1.42,1.48-5.13-1.08-2.47,5.97l-2.99-.99c1.8,4.58-2.83,13.93-7.54,14.89l-4.42,23.47-3.04.64c-.78.72,6.71,17.34,7.47,19.88,1.15,3.84-1.67.8,2.36,5.74,2.5,3.06,5.36,7.68,7.76,10.28,3.97,4.31,12.24,7.41,11.41,14.1,4.14-1.85,8.22-1.28,12,1.5,1.9,1.4,1.53,4.44,4.46,3.53.52-.16,2.68-5.2,7.53-3.03l-5.99,2c1.19,3.81,14.1.83,11.87-1.93-5.89-.49,5.72-6.29,7.55-8.15,5.13-5.2,3.16-7.18,4.81-12.19.83-2.53,3.51-4.84,3.49-8.44,0-1.7-1.42-2.84-1.45-3.92-.13-4.36.8-17.21,2.86-20.74,1.2-2.06,3.79-3.71,4.85-6.15l-4.99,1.01c.26-2.04,4.57-5.35,4.72-5.7.3-.7-1.13-2.36.76-4.79,2.34-3.01,6.99-2.05,8.13-7.99,1.03-5.35-7.12-7.73-8.4-11.74-.97-3.02.19-7.81-.28-9.69-.26-1.03-1.62-2.13-2.46-.61-1.03,1.85.51,4.88-1.47,5.01-.01-3.14-4.24-7.55-4.58-9.94-.19-1.35,1.54-2.08,1.37-3.34-.42-3.29-4.6-5.7-6.03-7.98-2.57-4.1-3.26-10.89-4.69-13.22-1.78-2.9-15.95-9.24-19.46-12.43-1.07-.97-.39-2.65-.71-2.94-.44-.4-8.35-.44-11.3-3.06-1.13-1-.1-2.86-1.19-3.15-3.12-.81-6.55-.51-10.95-1.92-10.4-3.33-21.74-7.69-31.46-11.45-3.53-1.37-15.08-5.83-17.48-7.48-.62-.42.2-4.76-1.76-5.94-.36-.22-4.92.15-8.1-1.16-.16-.07-2.33-1.13-2.47-1.24-.32-.26-4.1-4.1-3.23-4.74,3.42.36,4.14.46,4.48-2.99,8.37.9,16.75,5.44,24.87,4.05l11.65,2.93c2.73-6.29-4.81-7.68-5.03-8.67-.29-1.29.27-3.16-.06-4.71-.53-2.53-2.8-8.54-1.68-10.4.63-1.06,3.09-.58,3.74-4.83s-1.97-3.27-1.99-3.95c-.04-1.22,1.42-2.96,1.08-4.8-.09-.48-4.04-.64-1.07-4.98.4-.58,5.42-2.04.02-2.67,3.46-5.35,6.63,4.48,5,8l2.99-2.99c-.58,2.63,1.8,6.38,1.56,8.49-.15,1.29-2.05,1.99-1.39,4.74.52,2.18,4.25,5.82,5.25,7.86,3.21,6.55,3.81,13.48,11.85,17.15,2.17.99,9.86,3.26,11.76,2.28.56-.29,7.2-8.04,7.51-8.98s1.61-10.34,1.51-10.87c-.14-.71-1.82-.55-2.01-1.35-1.04-4.25.19-9.38-.1-12.73-.3-3.39-2.58-6.87-1.92-10.59,10.91-2.08,3.52,6.81,10.99,9l1-1.99c2.79,4.81-.89,5.08-1.01,5.6-1.18,5.12,4.03,3.7,4.87,6.05,1.66,4.66,2.45,12.85-2.84,15.35-.71-1.9,1.14-5.21.84-6.44-.26-1.07-2.19-1.24-2.54-1.86-.46-.82-3.57-7.38-3.3-7.7,2.4.11,3.59,4.62,4.01,4.99,4.62,4.1-1.56-10.82-5.54-5.99-.43.52-.29,11.13-.6,13.38-.61,4.37-1.32,8.68-1.92,13.08-.31,2.29-3.05,2.82-.86,5.91,1.39,1.96,2.86,1.67,4.21,2.63.98.7.62,1.94.71,2,.43.27,6.55-6.15,7.96-3.99.27-2.83,1.52-5.49,1.01-8.43s-6.81-8.38.02-7.56c-1.95,3.14.73,4.52.96,6.54.48,4.38-.79,11.21,2,15,1.71,2.32,9.44,5.58,12.29,7.44,3.23,2.1,5.03,3.03,8.29,4.98,8.81,5.26,10.6,11.65,13.93,20.07,1.52,3.83,6.15,5.81,5.03-.03,4.15,4.94,8.84,8.55,15.77,6.75,10.85-2.83,12.99-10.65,18.71-18.32.74-1,2.64-1.21,2.87-1.61.87-1.47-1.15-3.56.05-5.38,1.35-2.06,8.68-6.14,8.96-6.62.95-1.65-1.66-4.19.55-5.87,3.94-2.99,3.58,1.21,4.1,1.04,1.88-.64-.1-4.59,1.97-4.84,1.32-.16,4.7,2.48,6.53-.66l-3.99-.51c-2.02-1.45,12.89-3.96,13.99-2.98l-1.5,2.99c-.4.19-.78-4.09-2.49-1.99-.88,1.08,1.91,2.74,1.59,4.04-.34,1.38-2.48,3.11-3.33,4.71-.81,1.51-1.36,4.63-2.19,5.61s-2.48.28-3.17,1.25c-1,1.41.11,4.21-.95,5.74-5.58,8.03-11.26,18.07-14.86,27.44-1.04,2.72-1.86,15.66-3.1,17.2-1.2-2.16-5.39-1.43-5.99,0,.64-3.41.58-4.36.96-7.46.91-7.53,9.08-4.91,4.54-10.54l-2.49,1.99c-1.01-2.94,1.44-2.77,1.67-3.22s-.65-1.37-.47-1.58c1.38-1.65,4.84-.71,2.78-5.2l-1.98,1.01c-.91-2.77,3.44-5.08.49-7-.92,2.9-.82,1.59-3.49,1,.69,1.59.88,1.87.14,3.52-2.24,5.03-14.17,15.21-15.12,20-1.66,8.35,5.64,10.22,8.48,16.48.91-2.88.84-1.65,3.49-1,.26-2.07-.38-4.57-.05-6.53.27-1.62,1.04-1.38,1.06-1.47-.7,1.66,3.12,8.05,3.06,9.49-.03.58-2.22.44-2.07.99,1.27,4.7,6.4,11.35,8.3,15.85.67,1.59-.22,3.32-.1,3.52.15.24,2.92,1.36,4.26,3.21,3.23,4.47,8.57,16.48,9.51,21.49.56,2.96-.63,5.63-.48,7.99.47,7.59,13.69,6.62,13.5,3.96-.07-.99-3.29-1.32-2.98-2,.46-1,3.05-1.82,4.05-2.99,1.61-1.88,4.99-8.99,7.48-11.49,1.34-1.34,4.43-1.39,5.47-3.54,1.47-3.07-5.21,1.48-3.98-1.97,1.39-3.87,7.17-5.47,7.98-6.54,1.7-2.23-2.93-1.51-1.99-3.47,4.03-2.13,3.68-3.4,4.01-7.5,1.69-.46.48,1.89,1.5,2.04,6.56.99,2.74-5.65,2.91-6.05.26-.62,8.24-9.17,9.22-9.86,1.06-.74,9.17-4.87,10.11-4.95,1.66-.15,4.71.77,5.19,2.45.62,2.14-11.57,19.64-11.62,24.09-6.27,2.99-3.98,12.59-6.83,16.33-1.14,1.49-4.43-2.2-4.21,3.67.05,1.38,1.46,2.13,1.28,3.33-.25,1.61-10.05,18.77-11.56,20.44-1.65,1.83-4.19,2.66-5.98,5.02-5.95,7.84-.83,11.47-.03,19.03.28,2.62-1.03.72-1.97.45.17,1.01-.29,3.62,0,4,1.78,2.31,1.76-2.6,2.98-1.99,1.27,4.06-1.02,9.71.18,13.37.43,1.31,2.37,1.29,3.15,2.88,2.5,5.09,1.06,10.89,1.83,14.05.97,3.95,1.47,1.19,1.88,8.15.12,2.12,2.49,4.89,2.5,7.47,0,1.72-2.12,2.98-1.53,5.07l2.98-2.99c.96,2.43,1.1,7.01,2.56,8.95,2.06,2.74,10.26,4.55,12.84,7.01.8.77-.55,2.22,1.14,3.03,2.28.65.73-2.37,2.84-1.9,1.86.41,16.22,6.77,17.21,7.85,1.64,1.78,1.1,3.84,2.46,5.54,1.6,1.99,5.15,2.05,6.89,3.11,5.69,3.49,6.87,9.95,10.05,13.95,10.46,13.18,22.06,16.51,35.26,25.52,7.52,5.14,9.38,11.34,14.04,15.62.96.88,3.28.46,4.29,2.3,1.64,3.02-1.19,4.82-1.19,6.52,0,1.94,2.64,2.67.43,6.77-1.37,2.53-3.4,2.55-4.81,4.21-1.03,1.2-1.17,3.28-2.39,4.61-1.62,1.77-11.61,5.6-14.21,5.82-7,.6-6.75-3.02-10.1-3.71-2.24-.46-5.72,1.5-9.57.6-9.4-2.21-18.2-8.25-29.24-7.32-3.42.29-10.4,3.65-14.02,3.42-1.77-.11-3.18-2.54-5.44-1.9,1.37,5.5-7.29,2.14-11.01,2.99.92,2.02-1.61,10.34-.96,10.98.29.28,2.43-.33,2.84.1.39.41-.11,4.15,1.23,6.33.91,1.49,3.56,2.48,4.95,4.05,7.52,8.48,16.99,16.92,21.9,26.28,3.07,5.85-.49,5.49,1.06,11.27l2.98-2c4.05,14.4,5.16,37.26-1.49,51-2.91,6.01-2.77,5.29-4.96,12.04-3.25,10-13.8,21.98-19.54,30.95l9,.02c.25.19-2.88,4.32,1.5,3.01.96-.29.81-3.33,2.54-4.48.34-.22,7.04-3.15,7.44-3.17,1.54-.07,4.42,2.29,5.52,1.62.29-.18-2.19-4.69,3.99-2.5-8.18,5.85,1.68,1.48,5.41,1.6,2.77.09,5.2,1.77,7.61,2.4,4.23,1.1,5.55-1,9.45,4.54,1.12,1.59,1.18,4.06,1.76,4.73.82.95,3.25.65,4.48,1.53.39.28,6.14,6.77,6.4,7.18,1.22,1.94-.27,3.3.34,4.52.13.26,4.01,3.91,4.27,4.04,4.01,2.04,10.12,3.62,14.7,6.9.83.6-.53,1.93.49,2.55,1.43.87,3.89.52,5.41,1.43,1,.6,1.23,2.57,2.71,3.52,3.75,2.42,11.42-.14,7.97,6.54,1.91.76,3.76-1.95,4.99-1.51s11.61,8.28,12.64,9.48c1.41,1.65.46,5.02,3.35,7.59,1.39,1.24,3.45,1.26,3.81,1.66,2.7,3.04.52,23.01,0,28.07-.11,1.04-1.31,2.14-1.47,3.35-.37,2.79-.03,14.21-1.33,16.36-.05.09-1.41-.79-2.03-.47-.2.1-1.8,3.6-1.94,3.99-.25.66,1.92.45,2.03.98.71,3.43-4.68,4.9-7.28,5.87-.79.29-10.66,2.7-11.27,2.7-3.82-.03-3.67-.38-8.01-.12-6.37.38-18.03.63-17.17-8.31.13-1.32,4.13-12.62,4.86-13.44.19-.21,1.56.76,2.3-.12s1.26-7.96,2.56-9.07c2.52-2.17,2.29,3.8.98,4.98,7.19.26,1.56-17.93-1-15v3.01c-.74.91-9.02-10.43-9.81-11.7-1.67-2.68-2.13-5.98-3.71-8.29-1.96-2.88-.95,1.59-2.47.98-.22-2.44-1.16-7.38-3.2-8.8-3.13-2.17-4.57-3.17-7.86-7.72-.69-.96,0-2.26-.1-2.34-.78-.61-6-1.21-6.67-2.34-1.31-2.17,1.67-4-4.92-5.55-6.77-1.6-16.17-2.51-22.56-4.28-.87-.24-.74-1.93-1.24-2.01-3.5-.52-3.41,2.75-5.21,4.07-5.13,3.77-9.96,6.27-15.35,10.38-4.29,3.27-17.51,9.34-22.95,11.05-2.3.73-7.54,2.62-9.52,2.63s-.81-2.2-2.68-1.98c-4.59.54-8.4,4.58-11.34,4.87-4.68.46-11-4.05-14.62-1.97-1.39.8-1.7,3.72-4.79,2.98,2.18,5.48,6.09,5.38,9.74,7.7,1.5.95,2.22,3.13,4.31,3.74,5.67,1.64,11.72,4.45,17.27,7.73s13.71,12.39,13.58,19.34c-.05,2.47-2.98,4.87-2.86,6.99.1,1.9,2.53,2.43,1.58,5.51-.64,2.11-6.09,7.51-8.23,7.71-1.49.14-3.33-1.08-4.71-.81-1.03.2-.57,2.56-3.14,3.1-5.7,1.18-5.75-2.02-6.11-2.04-2.58-.13-6.84,1.57-10.96,1.05-6.59-.84-6.91-1.05-13.92-.98-18.19.16-36.39-.44-54.54-.05-.52-1.42,3.99-.83,1.99-2.98-.76-.82-4.25-1.31-4.99.49-.41,1.01,2.5-.27,1.99,1.48-5.61,1.71-10.44-1.85-14.67-2.67-1.19-.23-2.84.77-4.57.52-3.97-.59-17.68-7.11-20.34-9.85-1.29-1.33-.58-3.11-1.33-3.5-1.61-.83-3.73-.17-5.67-1.41-1.72-1.1-4.02-6.19-7.13-6.91-1.35-.31-2.92.78-4.51.56-11.23-1.53-23.2-3.44-34.24-4.26-10.41-.77-9.68,3.84-15.02,8.55-.33.29-6.13,4.37-6.5,4.53-1.06.48-8.15-3.94-5.02,2.44-3.94,1.73-5.29-2-5.63-2.04-1.55-.19-3.6,1.34-5.8,1.07-1.81-.22-4.36-2.7-6.54-3.55s-4.17-.03-6.59-1.41c-1.91-1.09-8.85-9.32-10.44-11.56-2.2-3.08-.87-6.68-6.54-6.37-2.86.16-7.2,4.89-10.79,6.13-1.74.6-3.01-.15-3.97.12-2.61.73-5.07,2.71-8.28,2.69-1.9-.01-1.36-2.07-1.96-2.13-2.83-.28-3.7,3.53-7.77,1.03-1.04-.64-.41-2.91-3.71-1.97l-.47,1.98c-3.74-4.43-9.38-2.72-14.51-2.99l2.99-3.98c-1.64-.39-3.15.94-4.59.92-8.57-.12-13.46.32-21.97-.88-6.07-.86-7.25,2.75-8.15,2.97-6.33,1.6-17.91,2.76-24.84,3.93-3.67.62-7.22-1.16-8.87-.99-.86.09-.82,2.03-1.56,2.52-1.43.95-21.11.76-24.52.5-3.17-.23-9.86-1.86-12.27-3.22-.78-.44-1.23-4.02-3.19-2.7-.1.07.32,2.9-1.54,1.92-1.43-.76-1.14-3.26-1.74-3.76-5.05-4.3-20.61-.28-27.16-1.25-8.46-1.25-6.68-16.8-4.6-22.98l.98,3.99c5.92,1.49,1.44-6.51,1.33-9.63-.2-5.84,1.62-10.81-.24-17.86s-7.34-2.23-7.13-9.02c.01-.42,1.63-7.64,1.85-8.17,1.04-2.63,5.2-5.56,5.22-6.75s-2.53-6.36-3.37-7.71c-3.39-5.43-11.85-10.79-13.41-17.59-.32-1.41-.3-2.84-.23-4.26l3.99,2.99c-2.15-5.61.42-8.01,2-12.99l-3.99,3.51c-3.14,1.35-1-7.62-.53-9.54.91-3.75,5.91-15.02,8.48-17.52,1.38-1.34,4.03-1.55,4.61-2.38.28-.4-.7-4.95,3.42-8.59,2-1.76,4.9-2.1,6.69-3.82,2.72-2.61,6.34-10.23,8.79-12.71,2.13-2.16,13.09-4.77,12.42-7.3-.23-.88-2.07-1.91-1.84-3.05.19-.94,13.31-12.31,14.48-12.59l1.99,2.97c4.33-3.02-1.79-4.33,3.97-8.07,2.54-1.65,4.35.27,4.52.1.13-.13-.04-2.22.95-3.56,1.39-1.89,16.38-10.35,18.65-10.47,3.87-.21,2.34,2.59,4.39,3.01.43-4.41,2.88-1.82,6.02-2-2.24-8.48,7.68,1.29,8.63-7.05,3.06.66,16.93-4.1,18.37-2.94.17.14-2,4.01.5,3.97.62,0,5.24-5.17,10.99-4.99.28,5.67,2.36,1.57,4.17,1.32,3.33-.46,13.75-1.16,16.73-.16,1.35.45,1.27,2.62,2.31,2.88,6.6,1.68,13.6-.7,18.75-.9,2.05-.08,5.05,1.6,7.55.88l-.99,3.99c7.13-5.43,13.49.33,20.99,0-1.95,5.42,5.89,1.73,9.4,2.03,3.52.3,3.75,2.98,4.17,2.98,1,0,2.46-1.06,3.94-1.06,4.81,0,5.05,3.73,6.19,4.05,4.37,1.19,11.38-1.34,17.61,1.21,1.36.56,1.38,2.17,2.45,2.76,2.78,1.54,12.27.92,15.62,1.3,2.31.26,4.31,3.54,7.16,3.7,1.4.08,4.95-1.49,5.45-.98.3.31-.29,2.7,0,3,1.04,1.05,4.07-1.81,5.43-1.9,4.36-.26,11.96,2.93,15.65,4.3,7.07,2.61,3.88-.47,6.34-.48,3.16-.02,7.49,2.21,10.43,2.54,6.16.69,11.41.75,17.73,1.6.52.07,7.63-6.64,4.42,1.94,4.48.4,4.28.34,4-4,5.01,1.92,11.34-.49,15.41.01,1.63.2,5.49,2.91,6.58,1.99,2.08-1.75-4.26-2.74-2.99-4.99,1.57-1.22,7.66.23,7.95-.03.21-.19.4-4.34,2.54-4.95l2,4.96c2.15-1.33,1.37-4.95,2.39-6.4.98-1.39,3.62,1.01,3.1-4.57l-3.99,1.99c-.55-.72.73-4.23,1.49-5.06,1.63-1.76,4.25,1.52,3.47-1.41-.96-3.63-4.01-5.77-4.04-6.15-.08-1.25,1.02-2.67.97-3.94s-1.5-2.21-1.57-2.96c-.16-1.71,4.78-5.14-1.34-4.48-.21-2.25,3.67.46,2.96-2.45-1.01-4.15-7.15-7.4-5.96-12.54l3-.49c-5.21-2.38-1.34-2.55-1.34-5,0-.92-1.38-2.5-1.61-4.07-1.07-7.21,2.4-5.31,2.93-7.01.16-.52-2-7.08-1.45-10.58.3-1.92,1.97-3.25,2.16-4.51.18-1.17-.92-2.68-.62-3.72.4-1.39,2.89-1.26,2.96-2.19s-1.13-2.46-.87-4.65c.42-3.55,4.15-7.68,3.84-11.77,7.74,2.3,3.56.38,4.72-2.71,1.18-3.14,12.72-12.72,4.27-12.29,3.12-6.98.54-4.09-.85-6.15-.23-.34.94-1.72.85-1.84-.16-.22-3.96-.46-5.29-1.14-1.7-.86-10.12-6.66-11.03-7.8-1.32-1.64-.37-4.47-2.69-5.63s-6.66,1.62-8.99-2.95l1.99-1.48c-3.51-2.34-7.91-1.04-7.01-7.45.67-4.8,4.17-2.33,5.97-3.07,2.33-.95,5.75-7.23,6.57-.48,7.23-2.47,14.59-6.85,21.98-2.4l5.5-2.61c-8.81-3.88-17.41-7.33-26.87-9.4-7.17-1.56-20.93-1.67-26.48-3.79-1.54-.59-1.35-2.76-2.29-2.91-1.15-.19-4.33,1.22-6.8,1.12-7.49-.29-29.63-9.55-35.04-15.04-3.72-3.77-14.29-15.37-16.01-20.09-.68-1.87.46-3.23-.58-5.24-1.32-2.56-4.22-3.32-5.91-5.18-2.9-3.18-3.65-7.57-5.41-9.59-1.9-2.18-4.35-1.45-5.62-2.41-1-.76-.65-2.54-1.26-3.2-.8-.87-6.66-2.51-8.28-4.23-1.84-1.94-1.04-4.38-2.94-6.06l-.99,2.99c-1.87-2.05-4.94-3.33-6.88-5.12-1.6-1.47-1.63-3.36-2.67-4.32-1.87-1.72-11.2-7.82-12.03-8.97-1.38-1.91-.7-4.87-2.45-7.54-1.64-2.52-5.11-3.09-7.4-5.83-2.66-3.19-4.19-7.65-7.07-10.71,4.71.65-2.65-8.96-2.99-8.49l-.51,2.99c-3.8-2.94-6.34-7.17-9.46-10.54-1.86-2.01-5.06-3.23-7.05-5.95-2.88-3.95-9.88-14.3-14.03-17.02-.89-.58-2.39.44-3.5-.38-2.06-1.52-1.91-5.09-3.47-6.61-.99-.96-3-.95-3.75-1.73-.97-1-.91-3.69-2.2-5.31-1.33-1.67-4.25-2.03-5.3-4.73-.95-2.44,1.61-9.06-4.73-6.72-1.35-3.25,1.69-4.2,1.76-4.49.51-1.84-.22-8.6,3.69-8.54,5.55.09,20.61,17.38,23.04,23l2.51-2.97-3-2c1.17.21,3.82-.71,4.03.7.16,1.06-.72,2.58.96,2.29l1.02-7,3.99,1c-.77-3.17,4.97-14.56,3.73-16.78-.13-.24-1.73-.18-1.76-.78-.08-1.38,1.79-4.35,1.04-6.43,1.61-.44.71,1.44,1.18,1.68.44.22,1.91-.47,2.8.33,1.3-6.98-2.11-4.29-2.87-5.07-.26-.27-.28-4.76-.11-4.94,1.78-1.89,2.94,1.81,3.99,2-1.07-3.51,1.45-8.56,1.02-11.42-.23-1.54-1.83-2.58-2-4.12-.21-1.93,1.47-4.3.98-6.47l-1.98,1.01c.81-3.47.7-20.07,3.6-20.96,1.73-.53,4.35,1.05,5.18,2.67,1.93,3.8,4.37,20.05,4.95,25.06.92,7.93,1.95,31.04-.8,38.46-.39,1.05-2.04.84-2.54,2.69-.63,2.32.41,4.74-.39,7.07,4.93.36,3.36-4.18,6.5-4.99,5.4,12.01,4.99-7.95,14.5-4.01.86-5.46-2.42-1.83-5.49-1.98-2.07-3.85,5.44-3.49,6.28-4.22.47-.41.3-2.36,1.16-3.34,2.03-2.33,6.19-5.23,8.55-7.45,2.39,2.18-4.74,3.18-2.5,4.99.34.28,3.34.09,4.06-.43,1.73-1.21-.18-4.58,1.92-4.56.04,10.67-1.76,17.68-5.99,27,.25-3.81.2-3.34-2.99-2l-.02-7c-6.32.2-5.94,3.15-8.92,5.6-4.62,3.81-12.79,9.73-15.29,15.69-.52,1.25-1.06,2.29-.78,3.71,1.97.75,4.27-.85,5.57-.9.58-.02-.07,2.16,1.91,1.95,2.47-.26,8.4-9.1,10.01-9.02.31.02,2.88,5.83,4.5,1.98ZM398.72,165.88c-.78-.91-8.25-5.94-8.67-5.31-.79,5.34-.85,13.3-2.23,18.28-.91,3.3-4.78,6.4-3.77,10.73l1.98-1.01-3,22.01-1.98-1.01c-1.13,1.74,2.52,5.11-4.02,4.01.31,2.14.74,8.66-1.04,9.99-.7.52-4.95-3.04-4.51,1.52.07.76,1.45,1.6,1.37,2.8-.17,2.62-6.24,11.15-5.8,11.68,4.49-3.28,5.84.87,7.42,1.08,8.58,1.14,8.94-2.85,19.58,1.45,2.55,1.03,4.77-.9,4,3.47l1.46-1.99c2.52,1.63,5.57,2.45,8.19,3.83,2.84,1.5,9.93,7.4,11.31,7.77,2.45.66,3.69-1.71,5.35-1.42,2.17.37,6.34,2.28,10.94,3.04,1.53.25,4.67,2.2,5.59,1.68,1.8-1.01,2.87-8.75,1.08-9.87-3.79-2.36-2.02,2.49-3.93,2.95-1.22-2.14.2-5.79-.19-7.28-.49-1.85-5.54-5.24-5.61-8.43l1.79-.29c.85-4.54-4.41-4.74-4.83-6.58-.5-2.24,3.29-4.98-1.68-6.43l-1.47,2c-1.03-2.34-2.23-7.08-3.59-8.92-1.22-1.65-4.99-2.96-5.96-5.14-.69-1.57.39-3.11,0-4-.61-1.41-5.67-3.74-7.11-5.29-4.17-4.5-.85-12.15-1.36-12.64-.37-.35-2.7.69-3.07-.55-.87-2.96,1.18-7.97.65-10.54-.42-2.03-2.48-2.02-2.98-2.97-1.3-2.45-1.91-6.28-3.92-8.63ZM426.05,188.58c-14.25,1.59-4.43,6.48-.99,10.75,3.99,4.95,6.15,9.09,10.53,14.19,2.99,3.48,9.91,24.72,11.9,30.01.75,2-.64,7.13,2.31,11.78,1.18,1.85,3.04,2.35,3.65,3.35.7,1.16,6.41,13.22,7.08,12.91,4.13-2.53,3.05-6.03,4.51-9.99-5.49.7-1.51-1.94-1.98-5.43-.25-1.87-2.15-3-2.47-4.47-.57-2.62.26-11.18-.1-12.16-.56-1.54-5.14-4.16-5.95-5.97-1.77-3.98-1.54-3.35-3.39-6.56-1.75-3.02-6.25-10.94-7.33-13.73-.86-2.21.57-7.03.17-7.61-.89-1.28-5.33-.13-6.51-.98-2.38-1.73-1.84-5.21-3.01-7.05-1.57-2.46-7.93-3.7-6.45-9.05l-1,3.99c-2.22-.58-1.9-2.25-.98-3.99ZM294.02,215.61c-.16-.17-1.99-.02-2.87-.6-3.2-2.12-6.22-4.98-10.1-6.44-.86,1.03,2.58,5.09,2.83,6.75.33,2.19-1.14,4.42-.78,5.63.43,1.45,3.6,1.78,5.03,3.05,4.84,4.3,9.4,12.52,13.66,16.59,4.5,4.3,13.55,8.97,18.77,12.95,1.44,1.1,2.34,3.85,3.18,4.06,2.53.63,5.34-.99,7.81-1,4.39-.02,11.72,2.58,13.08-2.99.78-3.22-11.33-2.76-13.6-4.06l1.01-1.98c-3.83,1.33-5.18-1.67-7.06-2.45-5.92-2.46-11.05-5.93-16.51-9.5-1.68-1.1-4.18-5.82-6.89-7,1.54-7.7-3.56-3.55-4.41-4.12-.25-.17-3.49-4.6-3.61-4.88-.5-1.18.96-3.45.45-4.01ZM493.04,316.58c-6.88,2-8.44-5.05-11.93,4.56-2.12,5.82-.44,3.38,1.45,5.4.81.87,1.28,2.55,1.73,2.81.76.44,2.18.06,3.46.56.23.09.97,3.44,3.35-.02,3.72-5.41-.78-6.72-.83-7.79-.01-.31,3.23-5.17,2.77-5.51ZM509.45,328.21c-1.27-1.38-5.5-9.01-7.41-7.63-.58.42.64,11.14-4.01,12.98,1.73,1.9,11.13-2.56,13-4.49.35-.74-1.05-.28-1.58-.86ZM91.04,424.58c-1.64.82-7.15,1.04-8.04,1.58-.97.59-3.21,4.15-2.96,4.4,1.73,1.68,2.1-1.66,2.69-2.06,1.44-.97,7.34-.36,8.31-3.92Z"/>
      <path class="cls-1" d="M240.04,96.57c-2.11,4.64-3.03,5.94-6,10,.37-.88-2.11-.35-2.05-2.41.11-3.75,3.51-9.5,8.05-7.59Z"/>
    </g>
  </g>
</svg>